<svg xmlns:xlink="http://www.w3.org/1999/xlink" xmlns="http://www.w3.org/2000/svg" class="sd-tree-designer" width="764.265625" height="1740" style="; color: rgb(0, 0, 0); font-family: sans-serif; font-kerning: auto; font-size: 12px; font-stretch: 100%; font-style: normal; font-variant: normal; font-variant-ligatures: normal; font-variant-caps: normal; font-variant-numeric: normal; font-variant-east-asian: normal; font-weight: 400; opacity: 1; color-interpolation: srgb; color-interpolation-filters: linearrgb; color-rendering: auto" text-align="start" text-align-last="auto" text-decoration="none solid rgb(0, 0, 0)" text-decoration-line="none" text-decoration-style="solid" text-decoration-color="rgb(0, 0, 0)" text-decoration-skip-ink="auto" text-underline-position="auto" text-indent="0px" text-rendering="auto" text-shadow="none" text-size-adjust="auto" text-overflow="clip" text-transform="none" fill="rgb(0, 0, 0)" fill-opacity="1" fill-rule="nonzero" stroke="none" stroke-dasharray="none" stroke-dashoffset="0px" stroke-linecap="butt" stroke-linejoin="miter" stroke-miterlimit="4" stroke-opacity="1" stroke-width="1px" text-anchor="start" xlink="http://www.w3.org/1999/xlink"><g class="sd-wrapper-group" transform="scale(1)"><g class="brush" fill="none" pointer-events="all"><rect class="overlay" pointer-events="all" cursor="crosshair" x="0" y="0" width="764.265625" height="1740"/></g><g class="main-group" transform="translate(25,25)"><g class="nodes"><g id="node-858c6a14-7c0a-508d-ed2e-a577e9addae8" class="decision-node node optimal" transform="translate(20, 507.5)"><path d="M-20,-20h40v40h-40Z" fill="rgb(255, 119, 119)" stroke="rgb(0, 111, 0)" stroke-width="1.5px"/><text class="label" x="0" y="-27" text-anchor="middle"/><text class="payoff computed" dy="0.75em" x="0" y="27" text-anchor="middle"><tspan x="0">$1,140,000</tspan></text><text class="aggregated-payoff" x="27" y="-6" fill="rgb(0, 111, 0)"><tspan x="27"/></text><text class="probability-to-enter" dy="0.75em" x="27" y="6" fill="rgb(0, 0, 215)"/></g><g id="node-f1c5d5b5-e6aa-d839-a7d6-835df8d47f0c" class="chance-node node" transform="translate(470  70)"><path d="M-19.999998960714944,0C-19.999998960714944,-11.045694422638713,-11.045694422638713,-19.999998960714944,0,-19.999998960714944C11.045694422638713,-19.999998960714944,19.999998960714944,-11.045694422638713,19.999998960714944,0C19.999998960714944,11.045694422638713,11.045694422638713,19.999998960714944,0,19.999998960714944C-11.045694422638713,19.999998960714944,-19.999998960714944,11.045694422638713,-19.999998960714944,0" fill="rgb(255, 255, 68)" stroke="rgb(102, 102, 0)"/><text class="label" x="0" y="-27" text-anchor="middle"/><text class="payoff computed" dy="0.75em" x="0" y="27" text-anchor="middle"><tspan x="0">$6,000,000</tspan></text><text class="aggregated-payoff" x="27" y="-6" fill="rgb(0, 111, 0)"><tspan x="27"/></text><text class="probability-to-enter" dy="0.75em" x="27" y="6" fill="rgb(0, 0, 215)"/></g><g id="node-6d8beb64-2220-87c2-6715-7228b5218578" class="terminal-node node" transform="translate(620  20)"><path d="M-19.999998960714944,0L17.99999906464345,-19.999998960714944L17.99999906464345,19.999998960714944Z" fill="rgb(68, 255, 68)" stroke="rgb(0, 0, 0)"/><text class="label" x="0" y="-27" text-anchor="middle"/><text class="payoff computed" dy="0.75em" x="0" y="27" text-anchor="middle"><tspan x="0"/></text><text class="aggregated-payoff" x="27" y="-6"><tspan x="27">$3,000,000</tspan></text><text class="probability-to-enter" dy="0.75em" x="27" y="6" fill="rgb(0, 0, 215)">0.00</text></g><g id="node-7dac0f8d-f627-1075-1b0a-6ffb23ab52ff" class="terminal-node node" transform="translate(620  120)"><path d="M-19.999998960714944,0L17.99999906464345,-19.999998960714944L17.99999906464345,19.999998960714944Z" fill="rgb(68, 255, 68)" stroke="rgb(0, 0, 0)"/><text class="label" x="0" y="-27" text-anchor="middle"/><text class="payoff computed" dy="0.75em" x="0" y="27" text-anchor="middle"><tspan x="0"/></text><text class="aggregated-payoff" x="27" y="-6"><tspan class="negative" x="27" fill="rgb(182, 0, 0)">-$1,000,000</tspan></text><text class="probability-to-enter" dy="0.75em" x="27" y="6" fill="rgb(0, 0, 215)">0.00</text></g><g id="node-70300fc7-aa9e-d41d-1858-738045863811" class="chance-node node" transform="translate(320  375)"><path d="M-19.999998960714944,0C-19.999998960714944,-11.045694422638713,-11.045694422638713,-19.999998960714944,0,-19.999998960714944C11.045694422638713,-19.999998960714944,19.999998960714944,-11.045694422638713,19.999998960714944,0C19.999998960714944,11.045694422638713,11.045694422638713,19.999998960714944,0,19.999998960714944C-11.045694422638713,19.999998960714944,-19.999998960714944,11.045694422638713,-19.999998960714944,0" fill="rgb(255, 255, 68)" stroke="rgb(102, 102, 0)"/><text class="label" x="0" y="-27" text-anchor="middle"/><text class="payoff computed" dy="0.75em" x="0" y="27" text-anchor="middle"><tspan x="0">$450,000</tspan></text><text class="aggregated-payoff" x="27" y="-6" fill="rgb(0, 111, 0)"><tspan x="27"/></text><text class="probability-to-enter" dy="0.75em" x="27" y="6" fill="rgb(0, 0, 215)"/></g><g id="node-01c84897-1552-f623-315c-97ad88cd640f" class="chance-node node" transform="translate(470  290)"><path d="M-19.999998960714944,0C-19.999998960714944,-11.045694422638713,-11.045694422638713,-19.999998960714944,0,-19.999998960714944C11.045694422638713,-19.999998960714944,19.999998960714944,-11.045694422638713,19.999998960714944,0C19.999998960714944,11.045694422638713,11.045694422638713,19.999998960714944,0,19.999998960714944C-11.045694422638713,19.999998960714944,-19.999998960714944,11.045694422638713,-19.999998960714944,0" fill="rgb(255, 255, 68)" stroke="rgb(102, 102, 0)"/><text class="label" x="0" y="-27" text-anchor="middle"/><text class="payoff computed" dy="0.75em" x="0" y="27" text-anchor="middle"><tspan x="0">$900,000</tspan></text><text class="aggregated-payoff" x="27" y="-6" fill="rgb(0, 111, 0)"><tspan x="27"/></text><text class="probability-to-enter" dy="0.75em" x="27" y="6" fill="rgb(0, 0, 215)"/></g><g id="node-fbf97e8c-6172-62e2-c318-b0b893021ed3" class="terminal-node node" transform="translate(620  240)"><path d="M-19.999998960714944,0L17.99999906464345,-19.999998960714944L17.99999906464345,19.999998960714944Z" fill="rgb(68, 255, 68)" stroke="rgb(0, 0, 0)"/><text class="label" x="0" y="-27" text-anchor="middle"/><text class="payoff computed" dy="0.75em" x="0" y="27" text-anchor="middle"><tspan x="0"/></text><text class="aggregated-payoff" x="27" y="-6"><tspan x="27">$3,000,000</tspan></text><text class="probability-to-enter" dy="0.75em" x="27" y="6" fill="rgb(0, 0, 215)">0.00</text></g><g id="node-789cbebd-8c2d-d22b-a1b3-a942681f8aa4" class="terminal-node node" transform="translate(620  340)"><path d="M-19.999998960714944,0L17.99999906464345,-19.999998960714944L17.99999906464345,19.999998960714944Z" fill="rgb(68, 255, 68)" stroke="rgb(0, 0, 0)"/><text class="label" x="0" y="-27" text-anchor="middle"/><text class="payoff computed" dy="0.75em" x="0" y="27" text-anchor="middle"><tspan x="0"/></text><text class="aggregated-payoff" x="27" y="-6"><tspan x="27">$0</tspan></text><text class="probability-to-enter" dy="0.75em" x="27" y="6" fill="rgb(0, 0, 215)">0.00</text></g><g id="node-d46035b4-9fba-4edf-ad31-d8c4c4a4e26a" class="terminal-node node" transform="translate(620, 460)"><path d="M-19.999998960714944,0L17.99999906464345,-19.999998960714944L17.99999906464345,19.999998960714944Z" fill="rgb(68, 255, 68)" stroke="rgb(0, 0, 0)"/><text class="label" x="0" y="-27" text-anchor="middle"/><text class="payoff computed" dy="0.75em" x="0" y="27" text-anchor="middle"><tspan x="0"/></text><text class="aggregated-payoff" x="27" y="-6"><tspan x="27">$0</tspan></text><text class="probability-to-enter" dy="0.75em" x="27" y="6" fill="rgb(0, 0, 215)">0.00</text></g><g id="node-2c66df00-0781-89c2-6999-be0ccb7dbd02" class="terminal-node node" transform="translate(620  580)"><path d="M-19.999998960714944,0L17.99999906464345,-19.999998960714944L17.99999906464345,19.999998960714944Z" fill="rgb(68, 255, 68)" stroke="rgb(0, 0, 0)"/><text class="label" x="0" y="-27" text-anchor="middle"/><text class="payoff computed" dy="0.75em" x="0" y="27" text-anchor="middle"><tspan x="0"/></text><text class="aggregated-payoff" x="27" y="-6"><tspan x="27">$0</tspan></text><text class="probability-to-enter" dy="0.75em" x="27" y="6" fill="rgb(0, 0, 215)">0.00</text></g><g id="node-3b6ad2b1-05e4-1449-51e1-46c7213ad80c" class="chance-node node optimal" transform="translate(20, 1510)"><path d="M-19.999998960714944,0C-19.999998960714944,-11.045694422638713,-11.045694422638713,-19.999998960714944,0,-19.999998960714944C11.045694422638713,-19.999998960714944,19.999998960714944,-11.045694422638713,19.999998960714944,0C19.999998960714944,11.045694422638713,11.045694422638713,19.999998960714944,0,19.999998960714944C-11.045694422638713,19.999998960714944,-19.999998960714944,11.045694422638713,-19.999998960714944,0" fill="rgb(255, 255, 68)" stroke="rgb(0, 111, 0)" stroke-width="1.5px"/><text class="label" x="0" y="-27" text-anchor="middle"/><text class="payoff computed" dy="0.75em" x="0" y="27" text-anchor="middle"><tspan x="0">$0</tspan></text><text class="aggregated-payoff" x="27" y="-6" fill="rgb(0, 111, 0)"><tspan x="27"/></text><text class="probability-to-enter" dy="0.75em" x="27" y="6" fill="rgb(0, 0, 215)"/></g><g id="node-314b0614-fcfb-cbc3-2a26-168cd1cdb349" class="chance-node node optimal" transform="translate(170, 1400)"><path d="M-19.999998960714944,0C-19.999998960714944,-11.045694422638713,-11.045694422638713,-19.999998960714944,0,-19.999998960714944C11.045694422638713,-19.999998960714944,19.999998960714944,-11.045694422638713,19.999998960714944,0C19.999998960714944,11.045694422638713,11.045694422638713,19.999998960714944,0,19.999998960714944C-11.045694422638713,19.999998960714944,-19.999998960714944,11.045694422638713,-19.999998960714944,0" fill="rgb(255, 255, 68)" stroke="rgb(0, 111, 0)" stroke-width="1.5px"/><text class="label" x="0" y="-27" text-anchor="middle"/><text class="payoff computed" dy="0.75em" x="0" y="27" text-anchor="middle"><tspan x="0">$0</tspan></text><text class="aggregated-payoff" x="27" y="-6" fill="rgb(0, 111, 0)"><tspan x="27"/></text><text class="probability-to-enter" dy="0.75em" x="27" y="6" fill="rgb(0, 0, 215)"/></g><g id="node-2e51f6f8-e8c8-e95f-8e46-a7018f0bb57c" class="terminal-node node optimal" transform="translate(320, 1350)"><path d="M-19.999998960714944,0L17.99999906464345,-19.999998960714944L17.99999906464345,19.999998960714944Z" fill="rgb(68, 255, 68)" stroke="rgb(0, 111, 0)" stroke-width="1.5px"/><text class="label" x="0" y="-27" text-anchor="middle"/><text class="payoff computed" dy="0.75em" x="0" y="27" text-anchor="middle"><tspan x="0"/></text><text class="aggregated-payoff" x="27" y="-6"><tspan x="27">$0</tspan></text><text class="probability-to-enter" dy="0.75em" x="27" y="6" fill="rgb(0, 0, 215)">0.45</text></g><g id="node-713dff86-579a-cf85-ca39-608cb2519bbe" class="terminal-node node optimal" transform="translate(320, 1450)"><path d="M-19.999998960714944,0L17.99999906464345,-19.999998960714944L17.99999906464345,19.999998960714944Z" fill="rgb(68, 255, 68)" stroke="rgb(0, 111, 0)" stroke-width="1.5px"/><text class="label" x="0" y="-27" text-anchor="middle"/><text class="payoff computed" dy="0.75em" x="0" y="27" text-anchor="middle"><tspan x="0"/></text><text class="aggregated-payoff" x="27" y="-6"><tspan x="27">$0</tspan></text><text class="probability-to-enter" dy="0.75em" x="27" y="6" fill="rgb(0, 0, 215)">0.20</text></g><g id="node-7b894f01-8259-326f-371f-c48cf5013fb8" class="chance-node node optimal" transform="translate(170, 1620)"><path d="M-19.999998960714944,0C-19.999998960714944,-11.045694422638713,-11.045694422638713,-19.999998960714944,0,-19.999998960714944C11.045694422638713,-19.999998960714944,19.999998960714944,-11.045694422638713,19.999998960714944,0C19.999998960714944,11.045694422638713,11.045694422638713,19.999998960714944,0,19.999998960714944C-11.045694422638713,19.999998960714944,-19.999998960714944,11.045694422638713,-19.999998960714944,0" fill="rgb(255, 255, 68)" stroke="rgb(0, 111, 0)" stroke-width="1.5px"/><text class="label" x="0" y="-27" text-anchor="middle"/><text class="payoff computed" dy="0.75em" x="0" y="27" text-anchor="middle"><tspan x="0">$0</tspan></text><text class="aggregated-payoff" x="27" y="-6" fill="rgb(0, 111, 0)"><tspan x="27"/></text><text class="probability-to-enter" dy="0.75em" x="27" y="6" fill="rgb(0, 0, 215)"/></g><g id="node-7a8e863e-ea41-4bf2-3b05-f49857bd2d80" class="terminal-node node optimal" transform="translate(320, 1570)"><path d="M-19.999998960714944,0L17.99999906464345,-19.999998960714944L17.99999906464345,19.999998960714944Z" fill="rgb(68, 255, 68)" stroke="rgb(0, 111, 0)" stroke-width="1.5px"/><text class="label" x="0" y="-27" text-anchor="middle"/><text class="payoff computed" dy="0.75em" x="0" y="27" text-anchor="middle"><tspan x="0"/></text><text class="aggregated-payoff" x="27" y="-6"><tspan x="27">$0</tspan></text><text class="probability-to-enter" dy="0.75em" x="27" y="6" fill="rgb(0, 0, 215)">0.05</text></g><g id="node-a64c9942-e26d-fdfa-c088-d4a2e3a8bb50" class="terminal-node node optimal" transform="translate(320, 1670)"><path d="M-19.999998960714944,0L17.99999906464345,-19.999998960714944L17.99999906464345,19.999998960714944Z" fill="rgb(68, 255, 68)" stroke="rgb(0, 111, 0)" stroke-width="1.5px"/><text class="label" x="0" y="-27" text-anchor="middle"/><text class="payoff computed" dy="0.75em" x="0" y="27" text-anchor="middle"><tspan x="0"/></text><text class="aggregated-payoff" x="27" y="-6"><tspan x="27">$0</tspan></text><text class="probability-to-enter" dy="0.75em" x="27" y="6" fill="rgb(0, 0, 215)">0.30</text></g><g id="node-19a850e3-e9dc-6b73-4c2c-dd178a2e5320" class="chance-node node optimal" transform="translate(170, 1005)"><path d="M-19.999998960714944,0C-19.999998960714944,-11.045694422638713,-11.045694422638713,-19.999998960714944,0,-19.999998960714944C11.045694422638713,-19.999998960714944,19.999998960714944,-11.045694422638713,19.999998960714944,0C19.999998960714944,11.045694422638713,11.045694422638713,19.999998960714944,0,19.999998960714944C-11.045694422638713,19.999998960714944,-19.999998960714944,11.045694422638713,-19.999998960714944,0" fill="rgb(255, 255, 68)" stroke="rgb(0, 111, 0)" stroke-width="1.5px"/><text class="label" x="0" y="-27" text-anchor="middle"/><text class="payoff computed" dy="0.75em" x="0" y="27" text-anchor="middle"><tspan x="0">$1,150,000</tspan></text><text class="aggregated-payoff" x="27" y="-6" fill="rgb(0, 111, 0)"><tspan x="27"/></text><text class="probability-to-enter" dy="0.75em" x="27" y="6" fill="rgb(0, 0, 215)"/></g><g id="node-964b139e-9eff-3c13-1e4c-446f09f33fe3" class="chance-node node optimal" transform="translate(470  750)"><path d="M-19.999998960714944,0C-19.999998960714944,-11.045694422638713,-11.045694422638713,-19.999998960714944,0,-19.999998960714944C11.045694422638713,-19.999998960714944,19.999998960714944,-11.045694422638713,19.999998960714944,0C19.999998960714944,11.045694422638713,11.045694422638713,19.999998960714944,0,19.999998960714944C-11.045694422638713,19.999998960714944,-19.999998960714944,11.045694422638713,-19.999998960714944,0" fill="rgb(255, 255, 68)" stroke="rgb(0, 111, 0)" stroke-width="1.5px"/><text class="label" x="0" y="-27" text-anchor="middle"/><text class="payoff computed" dy="0.75em" x="0" y="27" text-anchor="middle"><tspan x="0">$1,769,230.77</tspan></text><text class="aggregated-payoff" x="27" y="-6" fill="rgb(0, 111, 0)"><tspan x="27"/></text><text class="probability-to-enter" dy="0.75em" x="27" y="6" fill="rgb(0, 0, 215)"/></g><g id="node-854da832-329e-27ba-cb72-d9e0974e70cc" class="terminal-node node optimal" transform="translate(620  700)"><path d="M-19.999998960714944,0L17.99999906464345,-19.999998960714944L17.99999906464345,19.999998960714944Z" fill="rgb(68, 255, 68)" stroke="rgb(0, 111, 0)" stroke-width="1.5px"/><text class="label" x="0" y="-27" text-anchor="middle"/><text class="payoff computed" dy="0.75em" x="0" y="27" text-anchor="middle"><tspan x="0"/></text><text class="aggregated-payoff" x="27" y="-6"><tspan x="27">$2,990,000</tspan></text><text class="probability-to-enter" dy="0.75em" x="27" y="6" fill="rgb(0, 0, 215)">0.45</text></g><g id="node-db5b88a5-647c-9f8a-0aac-d74b9345ed90" class="terminal-node node optimal" transform="translate(620  800)"><path d="M-19.999998960714944,0L17.99999906464345,-19.999998960714944L17.99999906464345,19.999998960714944Z" fill="rgb(68, 255, 68)" stroke="rgb(0, 111, 0)" stroke-width="1.5px"/><text class="label" x="0" y="-27" text-anchor="middle"/><text class="payoff computed" dy="0.75em" x="0" y="27" text-anchor="middle"><tspan x="0"/></text><text class="aggregated-payoff" x="27" y="-6"><tspan x="27" class="negative" fill="rgb(182, 0, 0)">-$1,010,000</tspan></text><text class="probability-to-enter" dy="0.75em" x="27" y="6" fill="rgb(0, 0, 215)">0.20</text></g><g id="node-b2a84045-db47-9583-44a5-26d1daf4e387" class="chance-node node" transform="translate(470  1090)"><path d="M-19.999998960714944,0C-19.999998960714944,-11.045694422638713,-11.045694422638713,-19.999998960714944,0,-19.999998960714944C11.045694422638713,-19.999998960714944,19.999998960714944,-11.045694422638713,19.999998960714944,0C19.999998960714944,11.045694422638713,11.045694422638713,19.999998960714944,0,19.999998960714944C-11.045694422638713,19.999998960714944,-19.999998960714944,11.045694422638713,-19.999998960714944,0" fill="rgb(255, 255, 68)" stroke="rgb(102, 102, 0)"/><text class="label" x="0" y="-27" text-anchor="middle"/><text class="payoff computed" dy="0.75em" x="0" y="27" text-anchor="middle"><tspan x="0" class="negative">-$428,571.43</tspan></text><text class="aggregated-payoff" x="27" y="-6" fill="rgb(0, 111, 0)"><tspan x="27"/></text><text class="probability-to-enter" dy="0.75em" x="27" y="6" fill="rgb(0, 0, 215)"/></g><g id="node-8e35b77c-1bca-3700-84bc-df4ac9dd9352" class="terminal-node node" transform="translate(620  1040)"><path d="M-19.999998960714944,0L17.99999906464345,-19.999998960714944L17.99999906464345,19.999998960714944Z" fill="rgb(68, 255, 68)" stroke="rgb(0, 0, 0)"/><text class="label" x="0" y="-27" text-anchor="middle"/><text class="payoff computed" dy="0.75em" x="0" y="27" text-anchor="middle"><tspan x="0"/></text><text class="aggregated-payoff" x="27" y="-6"><tspan x="27">$2,990,000</tspan></text><text class="probability-to-enter" dy="0.75em" x="27" y="6" fill="rgb(0, 0, 215)">0.00</text></g><g id="node-629b26ff-1b1d-dba1-05bc-2254218f4e4f" class="terminal-node node" transform="translate(620  1140)"><path d="M-19.999998960714944,0L17.99999906464345,-19.999998960714944L17.99999906464345,19.999998960714944Z" fill="rgb(68, 255, 68)" stroke="rgb(0, 0, 0)"/><text class="label" x="0" y="-27" text-anchor="middle"/><text class="payoff computed" dy="0.75em" x="0" y="27" text-anchor="middle"><tspan x="0"/></text><text class="aggregated-payoff" x="27" y="-6"><tspan x="27" class="negative" fill="rgb(182, 0, 0)">-$1,010,000</tspan></text><text class="probability-to-enter" dy="0.75em" x="27" y="6" fill="rgb(0, 0, 215)">0.00</text></g><g id="node-d4c59fa9-f6d7-4194-3f69-3bf349ce8f30" class="decision-node node optimal" transform="translate(320  835)"><path d="M-20,-20h40v40h-40Z" fill="rgb(255, 119, 119)" stroke="rgb(0, 111, 0)" stroke-width="1.5px"/><text class="label" x="0" y="-27" text-anchor="middle"/><text class="payoff computed" dy="0.75em" x="0" y="27" text-anchor="middle"><tspan x="0">$1,769,230.77</tspan></text><text class="aggregated-payoff" x="27" y="-6" fill="rgb(0, 111, 0)"><tspan x="27"/></text><text class="probability-to-enter" dy="0.75em" x="27" y="6" fill="rgb(0, 0, 215)"/></g><g id="node-3ed1fff7-d1ea-fac1-5332-be050a52313f" class="terminal-node node" transform="translate(620  920)"><path d="M-19.999998960714944,0L17.99999906464345,-19.999998960714944L17.99999906464345,19.999998960714944Z" fill="rgb(68, 255, 68)" stroke="rgb(0, 0, 0)"/><text class="label" x="0" y="-27" text-anchor="middle"/><text class="payoff computed" dy="0.75em" x="0" y="27" text-anchor="middle"><tspan x="0"/></text><text class="aggregated-payoff" x="27" y="-6"><tspan x="27" class="negative" fill="rgb(182, 0, 0)">-$10,000</tspan></text><text class="probability-to-enter" dy="0.75em" x="27" y="6" fill="rgb(0, 0, 215)">0.00</text></g><g id="node-fee92009-0be9-1b14-11b3-c51d2002cfb5" class="decision-node node optimal" transform="translate(320, 1175)"><path d="M-20,-20h40v40h-40Z" fill="rgb(255, 119, 119)" stroke="rgb(0, 111, 0)" stroke-width="1.5px"/><text class="label" x="0" y="-27" text-anchor="middle"/><text class="payoff computed" dy="0.75em" x="0" y="27" text-anchor="middle"><tspan x="0">$0</tspan></text><text class="aggregated-payoff" x="27" y="-6" fill="rgb(0, 111, 0)"><tspan x="27"/></text><text class="probability-to-enter" dy="0.75em" x="27" y="6" fill="rgb(0, 0, 215)"/></g><g id="node-7c294266-ec28-21f0-2107-15c9e1678612" class="terminal-node node optimal" transform="translate(620, 1260)"><path d="M-19.999998960714944,0L17.99999906464345,-19.999998960714944L17.99999906464345,19.999998960714944Z" fill="rgb(68, 255, 68)" stroke="rgb(0, 111, 0)" stroke-width="1.5px"/><text class="label" x="0" y="-27" text-anchor="middle"/><text class="payoff computed" dy="0.75em" x="0" y="27" text-anchor="middle"><tspan x="0"/></text><text class="aggregated-payoff" x="27" y="-6"><tspan x="27" class="negative" fill="rgb(182, 0, 0)">-$10,000</tspan></text><text class="probability-to-enter" dy="0.75em" x="27" y="6" fill="rgb(0, 0, 215)">0.35</text></g></g><g class="edges"><g id="edge-2e5a2913-4cd3-f918-f21e-5e17c88e8886" class="edge"><path d="M41,507.5L50,507.5L70,375L292,375" fill="none" marker-end="url(#arrow)" stroke="rgb(66, 66, 66)" stroke-width="1.5px"/><g class="label-group" transform="translate(72,368)"><text class="label"><tspan x="0">wait</tspan></text></g><text class="payoff" dy="0.75em" x="72" y="382"><tspan x="72">$0</tspan></text><text class="probability" text-anchor="end" dy="0.75em" x="284" y="382" fill="rgb(0, 0, 215)">0.00</text></g><g id="edge-919e46e8-f7ca-cee9-e7ac-44c8768c7503" class="edge"><path d="M341,375L350,375L370,290L442,290" fill="none" marker-end="url(#arrow)" stroke="rgb(66, 66, 66)" stroke-width="1.5px"/><g class="label-group" transform="translate(372,283)"><text class="label"><tspan x="0">yes</tspan></text></g><text class="payoff" dy="0.75em" x="372" y="297"><tspan x="372">$0</tspan></text><text class="probability" text-anchor="end" dy="0.75em" x="434" y="297" fill="rgb(0, 0, 215)">0.50</text></g><g id="edge-ab876bff-1957-712b-374e-4030c09bf2cb" class="edge"><path d="M491,290L500,290L520,240L592,240" fill="none" marker-end="url(#arrow)" stroke="rgb(66, 66, 66)" stroke-width="1.5px"/><g class="label-group" transform="translate(522,233)"><text class="label"/></g><text class="payoff" dy="0.75em" x="522" y="247"><tspan x="522">$3,000,000</tspan></text><text class="probability" text-anchor="end" dy="0.75em" x="615.07421875" y="247" fill="rgb(0, 0, 215)">0.30</text></g><g id="edge-d969913d-d090-952a-c7f4-95bc06d078f7" class="edge"><path d="M491,290L500,290L520,340L592,340" fill="none" marker-end="url(#arrow)" stroke="rgb(66, 66, 66)" stroke-width="1.5px"/><g class="label-group" transform="translate(522,333)"><text class="label"/></g><text class="payoff" dy="0.75em" x="522" y="347"><tspan x="522">$0</tspan></text><text class="probability" text-anchor="end" dy="0.75em" x="584" y="347" fill="rgb(0, 0, 215)">0.70</text></g><g id="edge-54e6f18b-50f4-02dc-68aa-ebad470aa8b1" class="edge"><path d="M341,375L350,375L370,460.00000000000006L592,460.00000000000006" fill="none" marker-end="url(#arrow)" stroke="rgb(66, 66, 66)" stroke-width="1.5px"/><g class="label-group" transform="translate(372, 453)"><text class="label"><tspan x="0">no</tspan></text></g><text class="payoff" dy="0.75em" x="372" y="467.00000000000006"><tspan x="372">$0</tspan></text><text class="probability" text-anchor="end" dy="0.75em" x="584" y="467.00000000000006" fill="rgb(0, 0, 215)">0.50</text></g><g id="edge-df3ddf84-f735-591f-5509-ad58874ffb83" class="edge"><path d="M41,507.5L50,507.5L70,580L592,580" fill="none" marker-end="url(#arrow)" stroke="rgb(66, 66, 66)" stroke-width="1.5px"/><g class="label-group" transform="translate(72,573)"><text class="label"><tspan x="0">dont purchase</tspan></text></g><text class="payoff" dy="0.75em" x="72" y="587"><tspan x="72">$0</tspan></text><text class="probability" text-anchor="end" dy="0.75em" x="584" y="587" fill="rgb(0, 0, 215)">0.00</text></g><g id="edge-939ca7d0-abab-6b88-38d3-65419ff59105" class="edge"><path d="M341,835L350,835L370,920L592,920" fill="none" marker-end="url(#arrow)" stroke="rgb(66, 66, 66)" stroke-width="1.5px"/><g class="label-group" transform="translate(372,913)"><text class="label"><tspan x="0">dont purchase</tspan></text></g><text class="payoff" dy="0.75em" x="372" y="927"><tspan x="372">$0</tspan></text><text class="probability" text-anchor="end" dy="0.75em" x="584" y="927" fill="rgb(0, 0, 215)">0.00</text></g><g id="edge-7f131a8e-e705-c550-a0a1-13416f165e53" class="edge"><path d="M41,507.5L50,507.5L70,70L442,70" fill="none" marker-end="url(#arrow)" stroke="rgb(66, 66, 66)" stroke-width="1.5px"/><g class="label-group" transform="translate(72,63)"><text class="label"/></g><text class="payoff" dy="0.75em" x="72" y="77"><tspan x="72">-$5,000,000</tspan></text><text class="probability" text-anchor="end" dy="0.75em" x="434" y="77" fill="rgb(0, 0, 215)">0.00</text></g><g id="edge-cc6ef6fc-dcc6-7508-13a3-fddabaecf8b4" class="edge"><path d="M491,70L500,70L520,20L592,20" fill="none" marker-end="url(#arrow)" stroke="rgb(66, 66, 66)" stroke-width="1.5px"/><g class="label-group" transform="translate(522,13)"><text class="label"><tspan x="0">yes</tspan></text></g><text class="payoff" dy="0.75em" x="522" y="27"><tspan x="522">$8,000,000</tspan></text><text class="probability" text-anchor="end" dy="0.75em" x="615.07421875" y="27" fill="rgb(0, 0, 215)">0.50</text></g><g id="edge-4fe3f5a6-80c6-ea3c-1885-3084dc4f086b" class="edge"><path d="M491,70L500,70L520,120L592,120" fill="none" marker-end="url(#arrow)" stroke="rgb(66, 66, 66)" stroke-width="1.5px"/><g class="label-group" transform="translate(522,113)"><text class="label"><tspan x="0">no</tspan></text></g><text class="payoff" dy="0.75em" x="522" y="127"><tspan x="522">$4,000,000</tspan></text><text class="probability" text-anchor="end" dy="0.75em" x="615.07421875" y="127" fill="rgb(0, 0, 215)">0.50</text></g><g id="edge-3f85276c-38b0-2e2e-9015-6f2a38b29ad8" class="edge"><path d="M341,1175L350,1175L370,1090L442,1090" fill="none" marker-end="url(#arrow)" stroke="rgb(66, 66, 66)" stroke-width="1.5px"/><g class="label-group" transform="translate(372, 1083)"><text class="label"><tspan x="0">purchase</tspan></text></g><text class="payoff" dy="0.75em" x="372" y="1097"><tspan x="372">$0</tspan></text><text class="probability" text-anchor="end" dy="0.75em" x="434" y="1097" fill="rgb(0, 0, 215)">0.00</text></g><g id="edge-855c5786-254c-d42c-b3fa-33c04f212364" class="edge"><path d="M491,1090L500,1090L520,1040L592,1040" fill="none" marker-end="url(#arrow)" stroke="rgb(66, 66, 66)" stroke-width="1.5px"/><g class="label-group" transform="translate(522,1033)"><text class="label"><tspan x="0">import license? yes</tspan></text></g><text class="payoff" dy="0.75em" x="522" y="1047"><tspan x="522">$3,000,000</tspan></text><text class="probability" text-anchor="end" dy="0.75em" x="622.111328125" y="1047" fill="rgb(0, 0, 215)">0.143</text></g><g id="edge-1686c729-8cae-ec4d-f158-7971d712adbf" class="edge"><path d="M491,1090L500,1090L520,1140L592,1140" fill="none" marker-end="url(#arrow)" stroke="rgb(66, 66, 66)" stroke-width="1.5px"/><g class="label-group" transform="translate(522,1133)"><text class="label"><tspan x="0">no</tspan></text></g><text class="payoff" dy="0.75em" x="522" y="1147"><tspan x="522">-$1,000,000</tspan></text><text class="probability" text-anchor="end" dy="0.75em" x="627.302734375" y="1147" fill="rgb(0, 0, 215)">0.857</text></g><g id="edge-78f492c3-6a41-56b0-ac03-ee52906c8bee" class="edge optimal"><path d="M341,1175L350,1175L370,1260L592,1260" fill="none" marker-end="url(#arrow-optimal)" stroke="rgb(0, 111, 0)" stroke-width="2.4px"/><g class="label-group" transform="translate(372, 1253)"><text class="label"><tspan x="0">dont purchase</tspan></text></g><text class="payoff" dy="0.75em" x="372" y="1267"><tspan x="372">$0</tspan></text><text class="probability" text-anchor="end" dy="0.75em" x="584" y="1267" fill="rgb(0, 0, 215)">1.00</text></g><g id="edge-892db42d-607b-a69c-f9f9-0cad5c6265af" class="edge optimal"><path d="M41,507.5L50,507.5L70,1005L142,1005" fill="none" marker-end="url(#arrow-optimal)" stroke="rgb(0, 111, 0)" stroke-width="2.4px"/><g class="label-group" transform="translate(72, 998)"><text class="label"/></g><text class="payoff" dy="0.75em" x="72" y="1012"><tspan x="72">-$10,000</tspan></text><text class="probability" text-anchor="end" dy="0.75em" x="153.302734375" y="1012" fill="rgb(0, 0, 215)">1.00</text></g><g id="edge-cff65059-f268-dee5-99c8-142c78646765" class="edge optimal"><path d="M191,1005L200,1005L220,835L292,835" fill="none" marker-end="url(#arrow-optimal)" stroke="rgb(0, 111, 0)" stroke-width="2.4px"/><g class="label-group" transform="translate(222,828)"><text class="label"><tspan x="0">predict yes</tspan></text></g><text class="payoff" dy="0.75em" x="222" y="842"><tspan x="222">$0</tspan></text><text class="probability" text-anchor="end" dy="0.75em" x="284" y="842" fill="rgb(0, 0, 215)">0.65</text></g><g id="edge-74de6a1d-a165-9925-b2ad-28b23b14dfea" class="edge optimal"><path d="M491,750L500,750L520,700L592,700" fill="none" marker-end="url(#arrow-optimal)" stroke="rgb(0, 111, 0)" stroke-width="2.4px"/><g class="label-group" transform="translate(522,693)"><text class="label"><tspan x="0">import license? yes</tspan></text></g><text class="payoff" dy="0.75em" x="522" y="707"><tspan x="522">$3,000,000</tspan></text><text class="probability" text-anchor="end" dy="0.75em" x="622.111328125" y="707" fill="rgb(0, 0, 215)">0.692</text></g><g id="edge-b7ec2a9d-164f-3528-fb2d-35a5368b62b4" class="edge optimal"><path d="M491,750L500,750L520,800L592,800" fill="none" marker-end="url(#arrow-optimal)" stroke="rgb(0, 111, 0)" stroke-width="2.4px"/><g class="label-group" transform="translate(522,793)"><text class="label"><tspan x="0">no</tspan></text></g><text class="payoff" dy="0.75em" x="522" y="807"><tspan x="522">-$1,000,000</tspan></text><text class="probability" text-anchor="end" dy="0.75em" x="627.302734375" y="807" fill="rgb(0, 0, 215)">0.308</text></g><g id="edge-09476022-f573-e59d-1946-bfa9d0562863" class="edge optimal"><path d="M191,1005L200,1005L220,1175L292,1175" fill="none" marker-end="url(#arrow-optimal)" stroke="rgb(0, 111, 0)" stroke-width="2.4px"/><g class="label-group" transform="translate(222, 1168)"><text class="label"><tspan x="0">predict no</tspan></text></g><text class="payoff" dy="0.75em" x="222" y="1182"><tspan x="222">$0</tspan></text><text class="probability" text-anchor="end" dy="0.75em" x="284" y="1182" fill="rgb(0, 0, 215)">0.35</text></g><g id="edge-fc5d51cb-b260-7be7-8c09-8574a7acd2c1" class="edge optimal"><path d="M341,835L350,835L370,750L442,750" fill="none" marker-end="url(#arrow-optimal)" stroke="rgb(0, 111, 0)" stroke-width="2.4px"/><g class="label-group" transform="translate(372,743)"><text class="label"><tspan x="0">purchase</tspan></text></g><text class="payoff" dy="0.75em" x="372" y="757"><tspan x="372">$0</tspan></text><text class="probability" text-anchor="end" dy="0.75em" x="434" y="757" fill="rgb(0, 0, 215)">1.00</text></g><g id="edge-e63d2162-3f48-0db6-24ce-418a087b4fe7" class="edge optimal"><path d="M41,1510L50,1510L70,1400L142,1400" fill="none" marker-end="url(#arrow-optimal)" stroke="rgb(0, 111, 0)" stroke-width="2.4px"/><g class="label-group" transform="translate(72, 1393)"><text class="label"><tspan x="0">predict yes</tspan></text></g><text class="payoff" dy="0.75em" x="72" y="1407"><tspan x="72">$0</tspan></text><text class="probability" text-anchor="end" dy="0.75em" x="134" y="1407" fill="rgb(0, 0, 215)">0.65</text></g><g id="edge-c5f72fba-cc07-f949-99ac-02a605a07c71" class="edge optimal"><path d="M191,1400L200,1400L220,1350L292,1350" fill="none" marker-end="url(#arrow-optimal)" stroke="rgb(0, 111, 0)" stroke-width="2.4px"/><g class="label-group" transform="translate(222, 1343)"><text class="label"><tspan x="0">import license? yes</tspan></text></g><text class="payoff" dy="0.75em" x="222" y="1357"><tspan x="222">$0</tspan></text><text class="probability" text-anchor="end" dy="0.75em" x="284" y="1357" fill="rgb(0, 0, 215)">0.692</text></g><g id="edge-f0cf94b8-01fd-abc9-b642-7b5ee26c1a7e" class="edge optimal"><path d="M191,1400L200,1400L220,1450L292,1450" fill="none" marker-end="url(#arrow-optimal)" stroke="rgb(0, 111, 0)" stroke-width="2.4px"/><g class="label-group" transform="translate(222, 1443)"><text class="label"><tspan x="0">no</tspan></text></g><text class="payoff" dy="0.75em" x="222" y="1457"><tspan x="222">$0</tspan></text><text class="probability" text-anchor="end" dy="0.75em" x="284" y="1457" fill="rgb(0, 0, 215)">0.308</text></g><g id="edge-4faf11f8-0c70-5fda-dd1c-55875625e043" class="edge optimal"><path d="M41,1510L50,1510L70,1620L142,1620" fill="none" marker-end="url(#arrow-optimal)" stroke="rgb(0, 111, 0)" stroke-width="2.4px"/><g class="label-group" transform="translate(72, 1613)"><text class="label"><tspan x="0">predict no</tspan></text></g><text class="payoff" dy="0.75em" x="72" y="1627"><tspan x="72">$0</tspan></text><text class="probability" text-anchor="end" dy="0.75em" x="134" y="1627" fill="rgb(0, 0, 215)">0.35</text></g><g id="edge-061c628e-5ff5-71fd-0247-688bd4a6d72b" class="edge optimal"><path d="M191,1620L200,1620L220,1570L292,1570" fill="none" marker-end="url(#arrow-optimal)" stroke="rgb(0, 111, 0)" stroke-width="2.4px"/><g class="label-group" transform="translate(222, 1563)"><text class="label"><tspan x="0">import license? yes</tspan></text></g><text class="payoff" dy="0.75em" x="222" y="1577"><tspan x="222">$0</tspan></text><text class="probability" text-anchor="end" dy="0.75em" x="284" y="1577" fill="rgb(0, 0, 215)">0.143</text></g><g id="edge-d191b0e5-2d20-50bb-d6dd-822129bafe10" class="edge optimal"><path d="M191,1620L200,1620L220,1670L292,1670" fill="none" marker-end="url(#arrow-optimal)" stroke="rgb(0, 111, 0)" stroke-width="2.4px"/><g class="label-group" transform="translate(222, 1663)"><text class="label"><tspan x="0">no</tspan></text></g><text class="payoff" dy="0.75em" x="222" y="1677"><tspan x="222">$0</tspan></text><text class="probability" text-anchor="end" dy="0.75em" x="284" y="1677" fill="rgb(0, 0, 215)">0.857</text></g></g><g class="floating-texts"><g class="floating-text" id="text-8e32c099-3210-dc24-4bf0-798e0e4bd345" transform="translate(234  254)"><rect x="-5" y="-18" fill-opacity="0" width="97.296875" height="26"/><text><tspan x="0">import license?</tspan></text></g></g></g></g><defs><marker id="arrow" viewBox="0 -5 10 10" refX="5" refY="0" markerWidth="4" markerHeight="4" orient="auto"><path d="M0,-5L10,0L0,5" class="arrowHead" fill="rgb(66, 66, 66)"/></marker><marker id="arrow-optimal" viewBox="0 -5 10 10" refX="5" refY="0" markerWidth="4" markerHeight="4" orient="auto"><path d="M0,-5L10,0L0,5" class="arrowHead" fill="rgb(0, 111, 0)"/></marker><marker id="arrow-selected" viewBox="0 -5 10 10" refX="5" refY="0" markerWidth="4" markerHeight="4" orient="auto"><path d="M0,-5L10,0L0,5" class="arrowHead" fill="rgb(4, 90, 209)"/></marker></defs><g class="sd-title-container" transform="translate(382.1328125,15)"><text class="sd-title" dy="0.75em" text-anchor="middle" style="; font-size: 16px; font-weight: 700"/><text class="sd-description" dy="0.75em" transform="translate(0,0)" text-anchor="middle" style="; font-weight: 700"/></g></svg>