<svg xmlns:xlink="http://www.w3.org/1999/xlink" xmlns="http://www.w3.org/2000/svg" class="sd-tree-designer" width="749.265625" height="1060" style="; color: rgb(0, 0, 0); font-family: sans-serif; font-kerning: auto; font-size: 12px; font-stretch: 100%; font-style: normal; font-variant: normal; font-variant-ligatures: normal; font-variant-caps: normal; font-variant-numeric: normal; font-variant-east-asian: normal; font-weight: 400; opacity: 1; color-interpolation: srgb; color-interpolation-filters: linearrgb; color-rendering: auto" text-align="start" text-align-last="auto" text-decoration="none solid rgb(0, 0, 0)" text-decoration-line="none" text-decoration-style="solid" text-decoration-color="rgb(0, 0, 0)" text-decoration-skip-ink="auto" text-underline-position="auto" text-indent="0px" text-rendering="auto" text-shadow="none" text-size-adjust="auto" text-overflow="clip" text-transform="none" fill="rgb(0, 0, 0)" fill-opacity="1" fill-rule="nonzero" stroke="none" stroke-dasharray="none" stroke-dashoffset="0px" stroke-linecap="butt" stroke-linejoin="miter" stroke-miterlimit="4" stroke-opacity="1" stroke-width="1px" text-anchor="start" xlink="http://www.w3.org/1999/xlink"><g class="sd-wrapper-group" transform="scale(1)"><g class="brush" fill="none" pointer-events="all"><rect class="overlay" pointer-events="all" cursor="crosshair" x="0" y="0" width="749.265625" height="1060"/></g><g class="main-group" transform="translate(25,25)"><g class="nodes"><g id="node-858c6a14-7c0a-508d-ed2e-a577e9addae8" class="decision-node node optimal" transform="translate(20  341.66666666666674)"><path d="M-20,-20h40v40h-40Z" fill="rgb(255, 119, 119)" stroke="rgb(0, 111, 0)" stroke-width="1.5px"/><text class="label" x="0" y="-27" text-anchor="middle"/><text class="payoff computed" dy="0.75em" x="0" y="27" text-anchor="middle"><tspan x="0">$1,000,000</tspan></text><text class="aggregated-payoff" x="27" y="-6" fill="rgb(0, 111, 0)"><tspan x="27"/></text><text class="probability-to-enter" dy="0.75em" x="27" y="6" fill="rgb(0, 0, 215)"/></g><g id="node-f1c5d5b5-e6aa-d839-a7d6-835df8d47f0c" class="chance-node node optimal" transform="translate(410  70)"><path d="M-19.999998960714944,0C-19.999998960714944,-11.045694422638713,-11.045694422638713,-19.999998960714944,0,-19.999998960714944C11.045694422638713,-19.999998960714944,19.999998960714944,-11.045694422638713,19.999998960714944,0C19.999998960714944,11.045694422638713,11.045694422638713,19.999998960714944,0,19.999998960714944C-11.045694422638713,19.999998960714944,-19.999998960714944,11.045694422638713,-19.999998960714944,0" fill="rgb(255, 255, 68)" stroke="rgb(0, 111, 0)" stroke-width="1.5px"/><text class="label" x="0" y="-27" text-anchor="middle"/><text class="payoff computed" dy="0.75em" x="0" y="27" text-anchor="middle"><tspan x="0">$6,000,000</tspan></text><text class="aggregated-payoff" x="27" y="-6" fill="rgb(0, 111, 0)"><tspan x="27"/></text><text class="probability-to-enter" dy="0.75em" x="27" y="6" fill="rgb(0, 0, 215)"/></g><g id="node-6d8beb64-2220-87c2-6715-7228b5218578" class="terminal-node node optimal" transform="translate(605  20)"><path d="M-19.999998960714944,0L17.99999906464345,-19.999998960714944L17.99999906464345,19.999998960714944Z" fill="rgb(68, 255, 68)" stroke="rgb(0, 111, 0)" stroke-width="1.5px"/><text class="label" x="0" y="-27" text-anchor="middle"/><text class="payoff computed" dy="0.75em" x="0" y="27" text-anchor="middle"><tspan x="0"/></text><text class="aggregated-payoff" x="27" y="-6"><tspan x="27">$3,000,000</tspan></text><text class="probability-to-enter" dy="0.75em" x="27" y="6" fill="rgb(0, 0, 215)">0.50</text></g><g id="node-7dac0f8d-f627-1075-1b0a-6ffb23ab52ff" class="terminal-node node optimal" transform="translate(605  120.00000000000003)"><path d="M-19.999998960714944,0L17.99999906464345,-19.999998960714944L17.99999906464345,19.999998960714944Z" fill="rgb(68, 255, 68)" stroke="rgb(0, 111, 0)" stroke-width="1.5px"/><text class="label" x="0" y="-27" text-anchor="middle"/><text class="payoff computed" dy="0.75em" x="0" y="27" text-anchor="middle"><tspan x="0"/></text><text class="aggregated-payoff" x="27" y="-6"><tspan class="negative" x="27" fill="rgb(182, 0, 0)">-$1,000,000</tspan></text><text class="probability-to-enter" dy="0.75em" x="27" y="6" fill="rgb(0, 0, 215)">0.50</text></g><g id="node-70300fc7-aa9e-d41d-1858-738045863811" class="chance-node node" transform="translate(215  375.00000000000006)"><path d="M-19.999998960714944,0C-19.999998960714944,-11.045694422638713,-11.045694422638713,-19.999998960714944,0,-19.999998960714944C11.045694422638713,-19.999998960714944,19.999998960714944,-11.045694422638713,19.999998960714944,0C19.999998960714944,11.045694422638713,11.045694422638713,19.999998960714944,0,19.999998960714944C-11.045694422638713,19.999998960714944,-19.999998960714944,11.045694422638713,-19.999998960714944,0" fill="rgb(255, 255, 68)" stroke="rgb(102, 102, 0)"/><text class="label" x="0" y="-27" text-anchor="middle"/><text class="payoff computed" dy="0.75em" x="0" y="27" text-anchor="middle"><tspan x="0">$450,000</tspan></text><text class="aggregated-payoff" x="27" y="-6" fill="rgb(0, 111, 0)"><tspan x="27"/></text><text class="probability-to-enter" dy="0.75em" x="27" y="6" fill="rgb(0, 0, 215)"/></g><g id="node-01c84897-1552-f623-315c-97ad88cd640f" class="chance-node node" transform="translate(410  290.00000000000006)"><path d="M-19.999998960714944,0C-19.999998960714944,-11.045694422638713,-11.045694422638713,-19.999998960714944,0,-19.999998960714944C11.045694422638713,-19.999998960714944,19.999998960714944,-11.045694422638713,19.999998960714944,0C19.999998960714944,11.045694422638713,11.045694422638713,19.999998960714944,0,19.999998960714944C-11.045694422638713,19.999998960714944,-19.999998960714944,11.045694422638713,-19.999998960714944,0" fill="rgb(255, 255, 68)" stroke="rgb(102, 102, 0)"/><text class="label" x="0" y="-27" text-anchor="middle"/><text class="payoff computed" dy="0.75em" x="0" y="27" text-anchor="middle"><tspan x="0">$900,000</tspan></text><text class="aggregated-payoff" x="27" y="-6" fill="rgb(0, 111, 0)"><tspan x="27"/></text><text class="probability-to-enter" dy="0.75em" x="27" y="6" fill="rgb(0, 0, 215)"/></g><g id="node-fbf97e8c-6172-62e2-c318-b0b893021ed3" class="terminal-node node" transform="translate(605  240.00000000000006)"><path d="M-19.999998960714944,0L17.99999906464345,-19.999998960714944L17.99999906464345,19.999998960714944Z" fill="rgb(68, 255, 68)" stroke="rgb(0, 0, 0)"/><text class="label" x="0" y="-27" text-anchor="middle"/><text class="payoff computed" dy="0.75em" x="0" y="27" text-anchor="middle"><tspan x="0"/></text><text class="aggregated-payoff" x="27" y="-6"><tspan x="27">$3,000,000</tspan></text><text class="probability-to-enter" dy="0.75em" x="27" y="6" fill="rgb(0, 0, 215)">0.00</text></g><g id="node-789cbebd-8c2d-d22b-a1b3-a942681f8aa4" class="terminal-node node" transform="translate(605  340.00000000000006)"><path d="M-19.999998960714944,0L17.99999906464345,-19.999998960714944L17.99999906464345,19.999998960714944Z" fill="rgb(68, 255, 68)" stroke="rgb(0, 0, 0)"/><text class="label" x="0" y="-27" text-anchor="middle"/><text class="payoff computed" dy="0.75em" x="0" y="27" text-anchor="middle"><tspan x="0"/></text><text class="aggregated-payoff" x="27" y="-6"><tspan x="27">$0</tspan></text><text class="probability-to-enter" dy="0.75em" x="27" y="6" fill="rgb(0, 0, 215)">0.00</text></g><g id="node-d46035b4-9fba-4edf-ad31-d8c4c4a4e26a" class="terminal-node node" transform="translate(605  460.00000000000006)"><path d="M-19.999998960714944,0L17.99999906464345,-19.999998960714944L17.99999906464345,19.999998960714944Z" fill="rgb(68, 255, 68)" stroke="rgb(0, 0, 0)"/><text class="label" x="0" y="-27" text-anchor="middle"/><text class="payoff computed" dy="0.75em" x="0" y="27" text-anchor="middle"><tspan x="0"/></text><text class="aggregated-payoff" x="27" y="-6"><tspan x="27">$0</tspan></text><text class="probability-to-enter" dy="0.75em" x="27" y="6" fill="rgb(0, 0, 215)">0.00</text></g><g id="node-2c66df00-0781-89c2-6999-be0ccb7dbd02" class="terminal-node node" transform="translate(605  580.0000000000001)"><path d="M-19.999998960714944,0L17.99999906464345,-19.999998960714944L17.99999906464345,19.999998960714944Z" fill="rgb(68, 255, 68)" stroke="rgb(0, 0, 0)"/><text class="label" x="0" y="-27" text-anchor="middle"/><text class="payoff computed" dy="0.75em" x="0" y="27" text-anchor="middle"><tspan x="0"/></text><text class="aggregated-payoff" x="27" y="-6"><tspan x="27">$0</tspan></text><text class="probability-to-enter" dy="0.75em" x="27" y="6" fill="rgb(0, 0, 215)">0.00</text></g><g id="node-b8f10b8e-47e8-d5e5-7ac0-1839c25d413b" class="chance-node node optimal" transform="translate(20, 830)"><path d="M-19.999998960714944,0C-19.999998960714944,-11.045694422638713,-11.045694422638713,-19.999998960714944,0,-19.999998960714944C11.045694422638713,-19.999998960714944,19.999998960714944,-11.045694422638713,19.999998960714944,0C19.999998960714944,11.045694422638713,11.045694422638713,19.999998960714944,0,19.999998960714944C-11.045694422638713,19.999998960714944,-19.999998960714944,11.045694422638713,-19.999998960714944,0" fill="rgb(255, 255, 68)" stroke="rgb(0, 111, 0)" stroke-width="1.5px"/><text class="label" x="0" y="-27" text-anchor="middle"/><text class="payoff computed" dy="0.75em" x="0" y="27" text-anchor="middle"><tspan x="0">$1,500,000</tspan></text><text class="aggregated-payoff" x="27" y="-6" fill="rgb(0, 111, 0)"><tspan x="27"/></text><text class="probability-to-enter" dy="0.75em" x="27" y="6" fill="rgb(0, 0, 215)"/></g><g id="node-232c4fba-ec4f-6ea5-d2b9-ea8a6a2bbe2c" class="decision-node node optimal" transform="translate(215, 720)"><path d="M-20,-20h40v40h-40Z" fill="rgb(255, 119, 119)" stroke="rgb(0, 111, 0)" stroke-width="1.5px"/><text class="label" x="0" y="-27" text-anchor="middle"/><text class="payoff computed" dy="0.75em" x="0" y="27" text-anchor="middle"><tspan x="0">$3,000,000</tspan></text><text class="aggregated-payoff" x="27" y="-6" fill="rgb(0, 111, 0)"><tspan x="27"/></text><text class="probability-to-enter" dy="0.75em" x="27" y="6" fill="rgb(0, 0, 215)"/></g><g id="node-89684566-1dbd-94fe-77fa-82b0c0611818" class="decision-node node optimal" transform="translate(215, 940)"><path d="M-20,-20h40v40h-40Z" fill="rgb(255, 119, 119)" stroke="rgb(0, 111, 0)" stroke-width="1.5px"/><text class="label" x="0" y="-27" text-anchor="middle"/><text class="payoff computed" dy="0.75em" x="0" y="27" text-anchor="middle"><tspan x="0" class="">$0</tspan></text><text class="aggregated-payoff" x="27" y="-6" fill="rgb(0, 111, 0)"><tspan x="27"/></text><text class="probability-to-enter" dy="0.75em" x="27" y="6" fill="rgb(0, 0, 215)"/></g><g id="node-8d621eb7-1cb2-ebe0-1f35-19dfe1239d90" class="terminal-node node optimal" transform="translate(410, 670)"><path d="M-19.999998960714944,0L17.99999906464345,-19.999998960714944L17.99999906464345,19.999998960714944Z" fill="rgb(68, 255, 68)" stroke="rgb(0, 111, 0)" stroke-width="1.5px"/><text class="label" x="0" y="-27" text-anchor="middle"/><text class="payoff computed" dy="0.75em" x="0" y="27" text-anchor="middle"><tspan x="0"/></text><text class="aggregated-payoff" x="27" y="-6"><tspan x="27">$3,000,000</tspan></text><text class="probability-to-enter" dy="0.75em" x="27" y="6" fill="rgb(0, 0, 215)">0.50</text></g><g id="node-f53efd53-dc8a-98a0-5e8f-a2db895a6ca1" class="terminal-node node" transform="translate(410, 770)"><path d="M-19.999998960714944,0L17.99999906464345,-19.999998960714944L17.99999906464345,19.999998960714944Z" fill="rgb(68, 255, 68)" stroke="rgb(0, 0, 0)"/><text class="label" x="0" y="-27" text-anchor="middle"/><text class="payoff computed" dy="0.75em" x="0" y="27" text-anchor="middle"><tspan x="0"/></text><text class="aggregated-payoff" x="27" y="-6"><tspan x="27">$0</tspan></text><text class="probability-to-enter" dy="0.75em" x="27" y="6" fill="rgb(0, 0, 215)">0.00</text></g><g id="node-0a5b8ca8-7a02-5247-6725-540ad936e5c0" class="terminal-node node" transform="translate(410, 890)"><path d="M-19.999998960714944,0L17.99999906464345,-19.999998960714944L17.99999906464345,19.999998960714944Z" fill="rgb(68, 255, 68)" stroke="rgb(0, 0, 0)"/><text class="label" x="0" y="-27" text-anchor="middle"/><text class="payoff computed" dy="0.75em" x="0" y="27" text-anchor="middle"><tspan x="0"/></text><text class="aggregated-payoff" x="27" y="-6"><tspan x="27" class="negative" fill="rgb(182, 0, 0)">-$1,000,000</tspan></text><text class="probability-to-enter" dy="0.75em" x="27" y="6" fill="rgb(0, 0, 215)">0.00</text></g><g id="node-c451a3c7-301e-aaaf-c7e1-58f86dc7a9d7" class="terminal-node node optimal" transform="translate(410, 990)"><path d="M-19.999998960714944,0L17.99999906464345,-19.999998960714944L17.99999906464345,19.999998960714944Z" fill="rgb(68, 255, 68)" stroke="rgb(0, 111, 0)" stroke-width="1.5px"/><text class="label" x="0" y="-27" text-anchor="middle"/><text class="payoff computed" dy="0.75em" x="0" y="27" text-anchor="middle"><tspan x="0"/></text><text class="aggregated-payoff" x="27" y="-6"><tspan x="27">$0</tspan></text><text class="probability-to-enter" dy="0.75em" x="27" y="6" fill="rgb(0, 0, 215)">0.50</text></g></g><g class="edges"><g id="edge-2e5a2913-4cd3-f918-f21e-5e17c88e8886" class="edge"><path d="M41,341.66666666666674L50,341.66666666666674L70,375.00000000000006L187,375.00000000000006" fill="none" marker-end="url(#arrow)" stroke="rgb(66, 66, 66)" stroke-width="1.5px"/><g class="label-group" transform="translate(72,368.00000000000006)"><text class="label"><tspan x="0">wait</tspan></text></g><text class="payoff" dy="0.75em" x="72" y="382.00000000000006"><tspan x="72">$0</tspan></text><text class="probability" text-anchor="end" dy="0.75em" x="179" y="382.00000000000006" fill="rgb(0, 0, 215)">0.00</text></g><g id="edge-919e46e8-f7ca-cee9-e7ac-44c8768c7503" class="edge"><path d="M236,375.00000000000006L245,375.00000000000006L265,290.00000000000006L382,290.00000000000006" fill="none" marker-end="url(#arrow)" stroke="rgb(66, 66, 66)" stroke-width="1.5px"/><g class="label-group" transform="translate(267,283.00000000000006)"><text class="label"><tspan x="0">yes</tspan></text></g><text class="payoff" dy="0.75em" x="267" y="297.00000000000006"><tspan x="267">$0</tspan></text><text class="probability" text-anchor="end" dy="0.75em" x="374" y="297.00000000000006" fill="rgb(0, 0, 215)">0.50</text></g><g id="edge-ab876bff-1957-712b-374e-4030c09bf2cb" class="edge"><path d="M431,290.00000000000006L440,290.00000000000006L460,240.00000000000006L577,240.00000000000006" fill="none" marker-end="url(#arrow)" stroke="rgb(66, 66, 66)" stroke-width="1.5px"/><g class="label-group" transform="translate(462,233.00000000000006)"><text class="label"/></g><text class="payoff" dy="0.75em" x="462" y="247.00000000000006"><tspan x="462">$3,000,000</tspan></text><text class="probability" text-anchor="end" dy="0.75em" x="569" y="247.00000000000006" fill="rgb(0, 0, 215)">0.30</text></g><g id="edge-d969913d-d090-952a-c7f4-95bc06d078f7" class="edge"><path d="M431,290.00000000000006L440,290.00000000000006L460,340.00000000000006L577,340.00000000000006" fill="none" marker-end="url(#arrow)" stroke="rgb(66, 66, 66)" stroke-width="1.5px"/><g class="label-group" transform="translate(462,333.00000000000006)"><text class="label"/></g><text class="payoff" dy="0.75em" x="462" y="347.00000000000006"><tspan x="462">$0</tspan></text><text class="probability" text-anchor="end" dy="0.75em" x="569" y="347.00000000000006" fill="rgb(0, 0, 215)">0.70</text></g><g id="edge-54e6f18b-50f4-02dc-68aa-ebad470aa8b1" class="edge"><path d="M236,375.00000000000006L245,375.00000000000006L265,460.00000000000006L577,460.00000000000006" fill="none" marker-end="url(#arrow)" stroke="rgb(66, 66, 66)" stroke-width="1.5px"/><g class="label-group" transform="translate(267,453.00000000000006)"><text class="label"><tspan x="0">no</tspan></text></g><text class="payoff" dy="0.75em" x="267" y="467.00000000000006"><tspan x="267">$0</tspan></text><text class="probability" text-anchor="end" dy="0.75em" x="569" y="467.00000000000006" fill="rgb(0, 0, 215)">0.50</text></g><g id="edge-df3ddf84-f735-591f-5509-ad58874ffb83" class="edge"><path d="M41,341.66666666666674L50,341.66666666666674L70,580.0000000000001L577,580.0000000000001" fill="none" marker-end="url(#arrow)" stroke="rgb(66, 66, 66)" stroke-width="1.5px"/><g class="label-group" transform="translate(72,573.0000000000001)"><text class="label"/></g><text class="payoff" dy="0.75em" x="72" y="587.0000000000001"><tspan x="72">$0</tspan></text><text class="probability" text-anchor="end" dy="0.75em" x="569" y="587.0000000000001" fill="rgb(0, 0, 215)">0.00</text></g><g id="edge-f10c208f-23e0-5f9a-6722-34f849331c88" class="edge"><path d="M236,720.0000000000001L245,720.0000000000001L265,770.0000000000001L382,770.0000000000001" fill="none" marker-end="url(#arrow)" stroke="rgb(66, 66, 66)" stroke-width="1.5px"/><g class="label-group" transform="translate(267, 763)"><text class="label"/></g><text class="payoff" dy="0.75em" x="267" y="777.0000000000001"><tspan x="267">$0</tspan></text><text class="probability" text-anchor="end" dy="0.75em" x="374" y="777.0000000000001" fill="rgb(0, 0, 215)">0.00</text></g><g id="edge-919cfe18-5846-2060-49d5-5ed0960f3592" class="edge"><path d="M236,940.0000000000001L245,940.0000000000001L265,890.0000000000001L382,890.0000000000001" fill="none" marker-end="url(#arrow)" stroke="rgb(66, 66, 66)" stroke-width="1.5px"/><g class="label-group" transform="translate(267, 883)"><text class="label"/></g><text class="payoff" dy="0.75em" x="267" y="897.0000000000001"><tspan x="267">-$1,000,000</tspan></text><text class="probability" text-anchor="end" dy="0.75em" x="374" y="897.0000000000001" fill="rgb(0, 0, 215)">0.00</text></g><g id="edge-2f113d3f-c156-8e38-8411-570ce68a0fb7" class="edge optimal"><path d="M236,940.0000000000001L245,940.0000000000001L265,990.0000000000001L382,990.0000000000001" fill="none" marker-end="url(#arrow-optimal)" stroke="rgb(0, 111, 0)" stroke-width="2.4px"/><g class="label-group" transform="translate(267, 983)"><text class="label"/></g><text class="payoff" dy="0.75em" x="267" y="997.0000000000001"><tspan x="267">$0</tspan></text><text class="probability" text-anchor="end" dy="0.75em" x="374" y="997.0000000000001" fill="rgb(0, 0, 215)">1.00</text></g><g id="edge-f4dc4b36-b336-7a84-7f96-5eaa6c41338c" class="edge optimal"><path d="M41,830.0000000000001L50,830.0000000000001L70,720.0000000000001L187,720.0000000000001" fill="none" marker-end="url(#arrow-optimal)" stroke="rgb(0, 111, 0)" stroke-width="2.4px"/><g class="label-group" transform="translate(72, 713)"><text class="label"><tspan x="0">import license? yes</tspan></text></g><text class="payoff" dy="0.75em" x="72" y="727.0000000000001"><tspan x="72">$0</tspan></text><text class="probability" text-anchor="end" dy="0.75em" x="179" y="727.0000000000001" fill="rgb(0, 0, 215)">0.50</text></g><g id="edge-0658347b-c4d8-3333-f2ae-2e0bc725d54b" class="edge optimal"><path d="M41,830.0000000000001L50,830.0000000000001L70,940.0000000000001L187,940.0000000000001" fill="none" marker-end="url(#arrow-optimal)" stroke="rgb(0, 111, 0)" stroke-width="2.4px"/><g class="label-group" transform="translate(72, 933)"><text class="label"><tspan x="0">no</tspan></text></g><text class="payoff" dy="0.75em" x="72" y="947.0000000000001"><tspan x="72">$0</tspan></text><text class="probability" text-anchor="end" dy="0.75em" x="179" y="947.0000000000001" fill="rgb(0, 0, 215)">0.50</text></g><g id="edge-8fe5341a-5047-d454-6ea3-6561e53a5fc5" class="edge optimal"><path d="M236,720.0000000000001L245,720.0000000000001L265,670.0000000000001L382,670.0000000000001" fill="none" marker-end="url(#arrow-optimal)" stroke="rgb(0, 111, 0)" stroke-width="2.4px"/><g class="label-group" transform="translate(267,663.0000000000001)"><text class="label"/></g><text class="payoff" dy="0.75em" x="267" y="677.0000000000001"><tspan x="267">$3,000,000</tspan></text><text class="probability" text-anchor="end" dy="0.75em" x="374" y="677.0000000000001" fill="rgb(0, 0, 215)">1.00</text></g><g id="edge-7f131a8e-e705-c550-a0a1-13416f165e53" class="edge optimal"><path d="M41,341.66666666666674L50,341.66666666666674L70,70L382,70" fill="none" marker-end="url(#arrow-optimal)" stroke="rgb(0, 111, 0)" stroke-width="2.4px"/><g class="label-group" transform="translate(72,63)"><text class="label"/></g><text class="payoff" dy="0.75em" x="72" y="77"><tspan x="72">-$5,000,000</tspan></text><text class="probability" text-anchor="end" dy="0.75em" x="374" y="77" fill="rgb(0, 0, 215)">1.00</text></g><g id="edge-cc6ef6fc-dcc6-7508-13a3-fddabaecf8b4" class="edge optimal"><path d="M431,70L440,70L460,20L577,20" fill="none" marker-end="url(#arrow-optimal)" stroke="rgb(0, 111, 0)" stroke-width="2.4px"/><g class="label-group" transform="translate(462,13)"><text class="label"><tspan x="0">yes</tspan></text></g><text class="payoff" dy="0.75em" x="462" y="27"><tspan x="462">$8,000,000</tspan></text><text class="probability" text-anchor="end" dy="0.75em" x="569" y="27" fill="rgb(0, 0, 215)">0.50</text></g><g id="edge-4fe3f5a6-80c6-ea3c-1885-3084dc4f086b" class="edge optimal"><path d="M431,70L440,70L460,120.00000000000003L577,120.00000000000003" fill="none" marker-end="url(#arrow-optimal)" stroke="rgb(0, 111, 0)" stroke-width="2.4px"/><g class="label-group" transform="translate(462,113.00000000000003)"><text class="label"><tspan x="0">no</tspan></text></g><text class="payoff" dy="0.75em" x="462" y="127.00000000000003"><tspan x="462">$4,000,000</tspan></text><text class="probability" text-anchor="end" dy="0.75em" x="569" y="127.00000000000003" fill="rgb(0, 0, 215)">0.50</text></g></g><g class="floating-texts"><g class="floating-text" id="text-8e32c099-3210-dc24-4bf0-798e0e4bd345" transform="translate(234  254)"><rect x="-5" y="-18" fill-opacity="0" width="97.296875" height="26"/><text><tspan x="0">import license?</tspan></text></g></g></g></g><defs><marker id="arrow" viewBox="0 -5 10 10" refX="5" refY="0" markerWidth="4" markerHeight="4" orient="auto"><path d="M0,-5L10,0L0,5" class="arrowHead" fill="rgb(66, 66, 66)"/></marker><marker id="arrow-optimal" viewBox="0 -5 10 10" refX="5" refY="0" markerWidth="4" markerHeight="4" orient="auto"><path d="M0,-5L10,0L0,5" class="arrowHead" fill="rgb(0, 111, 0)"/></marker><marker id="arrow-selected" viewBox="0 -5 10 10" refX="5" refY="0" markerWidth="4" markerHeight="4" orient="auto"><path d="M0,-5L10,0L0,5" class="arrowHead" fill="rgb(4, 90, 209)"/></marker></defs><g class="sd-title-container" transform="translate(374.6328125,15)"><text class="sd-title" dy="0.75em" text-anchor="middle" style="; font-size: 16px; font-weight: 700"/><text class="sd-description" dy="0.75em" transform="translate(0,0)" text-anchor="middle" style="; font-weight: 700"/></g></svg>