<svg xmlns:xlink="http://www.w3.org/1999/xlink" xmlns="http://www.w3.org/2000/svg" class="sd-tree-designer" width="760.265625" height="948.0000019073486" style="; color: rgb(0, 0, 0); font-family: sans-serif; font-kerning: auto; font-size: 12px; font-stretch: 100%; font-style: normal; font-variant: normal; font-variant-ligatures: normal; font-variant-caps: normal; font-variant-numeric: normal; font-variant-east-asian: normal; font-weight: 400; opacity: 1; color-interpolation: srgb; color-interpolation-filters: linearrgb; color-rendering: auto" text-align="start" text-align-last="auto" text-decoration="none solid rgb(0, 0, 0)" text-decoration-line="none" text-decoration-style="solid" text-decoration-color="rgb(0, 0, 0)" text-decoration-skip-ink="auto" text-underline-position="auto" text-indent="0px" text-rendering="auto" text-shadow="none" text-size-adjust="auto" text-overflow="clip" text-transform="none" fill="rgb(0, 0, 0)" fill-opacity="1" fill-rule="nonzero" stroke="none" stroke-dasharray="none" stroke-dashoffset="0px" stroke-linecap="butt" stroke-linejoin="miter" stroke-miterlimit="4" stroke-opacity="1" stroke-width="1px" text-anchor="start" xlink="http://www.w3.org/1999/xlink"><g class="sd-wrapper-group" transform="scale(1)"><g class="brush" fill="none" pointer-events="all"><rect class="overlay" pointer-events="all" cursor="crosshair" x="0" y="0" width="760.265625" height="948.0000019073486"/></g><g class="main-group" transform="translate(25,25)"><g class="nodes"><g id="node-56663589-525a-9b61-6b44-ad9dec0895d5" class="terminal-node node" transform="translate(640  877.9999999999999)"><path d="M-19.999998960714944,0L17.99999906464345,-19.999998960714944L17.99999906464345,19.999998960714944Z" fill="rgb(68, 255, 68)" stroke="rgb(0, 0, 0)"/><text class="label" x="0" y="-27" text-anchor="middle"/><text class="payoff computed" dy="0.75em" x="0" y="27" text-anchor="middle"><tspan x="0"/></text><text class="aggregated-payoff" x="27" y="-6"><tspan x="27">$0</tspan></text><text class="probability-to-enter" dy="0.75em" x="27" y="6" fill="rgb(0, 0, 215)">0.00</text></g><g id="node-6054c31a-8dae-091b-e01d-3ba74a9dff13" class="chance-node node" transform="translate(175  198.75)"><path d="M-19.999998960714944,0C-19.999998960714944,-11.045694422638713,-11.045694422638713,-19.999998960714944,0,-19.999998960714944C11.045694422638713,-19.999998960714944,19.999998960714944,-11.045694422638713,19.999998960714944,0C19.999998960714944,11.045694422638713,11.045694422638713,19.999998960714944,0,19.999998960714944C-11.045694422638713,19.999998960714944,-19.999998960714944,11.045694422638713,-19.999998960714944,0" fill="rgb(255, 255, 68)" stroke="rgb(102, 102, 0)"/><text class="label" x="0" y="-27" text-anchor="middle"/><text class="payoff computed" dy="0.75em" x="0" y="27" text-anchor="middle"><tspan x="0">$791.67</tspan></text><text class="aggregated-payoff" x="27" y="-6" fill="rgb(0, 111, 0)"><tspan x="27"/></text><text class="probability-to-enter" dy="0.75em" x="27" y="6" fill="rgb(0, 0, 215)"/></g><g id="node-04403219-aa0f-1f95-1bf6-78dbb8761418" class="decision-node node" transform="translate(330  135.5)"><path d="M-20,-20h40v40h-40Z" fill="rgb(255, 119, 119)" stroke="rgb(102, 0, 0)"/><text class="label" x="0" y="-27" text-anchor="middle"/><text class="payoff computed" dy="0.75em" x="0" y="27" text-anchor="middle"><tspan x="0" class="negative">-$7,125</tspan></text><text class="aggregated-payoff" x="27" y="-6" fill="rgb(0, 111, 0)"><tspan x="27"/></text><text class="probability-to-enter" dy="0.75em" x="27" y="6" fill="rgb(0, 0, 215)"/></g><g id="node-a24b5bd4-f94e-9448-8e58-57bfb651870b" class="terminal-node node" transform="translate(640  262)"><path d="M-19.999998960714944,0L17.99999906464345,-19.999998960714944L17.99999906464345,19.999998960714944Z" fill="rgb(68, 255, 68)" stroke="rgb(0, 0, 0)"/><text class="label" x="0" y="-27" text-anchor="middle"/><text class="payoff computed" dy="0.75em" x="0" y="27" text-anchor="middle"><tspan x="0"/></text><text class="aggregated-payoff" x="27" y="-6"><tspan x="27" class="negative" fill="rgb(182, 0, 0)">-$100</tspan></text><text class="probability-to-enter" dy="0.75em" x="27" y="6" fill="rgb(0, 0, 215)">0.00</text></g><g id="node-6306ca42-18e2-f15f-ca0a-108aaee9fe85" class="terminal-node node" transform="translate(640  20)"><path d="M-19.999998960714944,0L17.99999906464345,-19.999998960714944L17.99999906464345,19.999998960714944Z" fill="rgb(68, 255, 68)" stroke="rgb(0, 0, 0)"/><text class="label" x="0" y="-27" text-anchor="middle"/><text class="payoff computed" dy="0.75em" x="0" y="27" text-anchor="middle"><tspan x="0"/></text><text class="aggregated-payoff" x="27" y="-6"><tspan x="27">$4,400</tspan></text><text class="probability-to-enter" dy="0.75em" x="27" y="6" fill="rgb(0, 0, 215)">0.00</text></g><g id="node-b991c164-7724-6923-229b-0059fc1e31db" class="terminal-node node" transform="translate(640  196)"><path d="M-19.999998960714944,0L17.99999906464345,-19.999998960714944L17.99999906464345,19.999998960714944Z" fill="rgb(68, 255, 68)" stroke="rgb(0, 0, 0)"/><text class="label" x="0" y="-27" text-anchor="middle"/><text class="payoff computed" dy="0.75em" x="0" y="27" text-anchor="middle"><tspan x="0"/></text><text class="aggregated-payoff" x="27" y="-6"><tspan x="27">$1,400</tspan></text><text class="probability-to-enter" dy="0.75em" x="27" y="6" fill="rgb(0, 0, 215)">0.00</text></g><g id="node-dcd41f08-dc76-2ce3-6750-959b0cf90844" class="terminal-node node" transform="translate(640  75)"><path d="M-19.999998960714944,0L17.99999906464345,-19.999998960714944L17.99999906464345,19.999998960714944Z" fill="rgb(68, 255, 68)" stroke="rgb(0, 0, 0)"/><text class="label" x="0" y="-27" text-anchor="middle"/><text class="payoff computed" dy="0.75em" x="0" y="27" text-anchor="middle"><tspan x="0"/></text><text class="aggregated-payoff" x="27" y="-6"><tspan x="27">$1,900</tspan></text><text class="probability-to-enter" dy="0.75em" x="27" y="6" fill="rgb(0, 0, 215)">0.00</text></g><g id="node-45c711ea-45c3-3357-18de-b4cc969a601f" class="chance-node node" transform="translate(485  75)"><path d="M-19.999998960714944,0C-19.999998960714944,-11.045694422638713,-11.045694422638713,-19.999998960714944,0,-19.999998960714944C11.045694422638713,-19.999998960714944,19.999998960714944,-11.045694422638713,19.999998960714944,0C19.999998960714944,11.045694422638713,11.045694422638713,19.999998960714944,0,19.999998960714944C-11.045694422638713,19.999998960714944,-19.999998960714944,11.045694422638713,-19.999998960714944,0" fill="rgb(255, 255, 68)" stroke="rgb(102, 102, 0)"/><text class="label" x="0" y="-27" text-anchor="middle"/><text class="payoff computed" dy="0.75em" x="0" y="27" text-anchor="middle"><tspan x="0" class="negative">-$7,125</tspan></text><text class="aggregated-payoff" x="27" y="-6" fill="rgb(0, 111, 0)"><tspan x="27"/></text><text class="probability-to-enter" dy="0.75em" x="27" y="6" fill="rgb(0, 0, 215)"/></g><g id="node-87d9e858-bcc7-1ad2-3070-70c7b0df5600" class="terminal-node node" transform="translate(640  130)"><path d="M-19.999998960714944,0L17.99999906464345,-19.999998960714944L17.99999906464345,19.999998960714944Z" fill="rgb(68, 255, 68)" stroke="rgb(0, 0, 0)"/><text class="label" x="0" y="-27" text-anchor="middle"/><text class="payoff computed" dy="0.75em" x="0" y="27" text-anchor="middle"><tspan x="0"/></text><text class="aggregated-payoff" x="27" y="-6"><tspan x="27">$900</tspan></text><text class="probability-to-enter" dy="0.75em" x="27" y="6" fill="rgb(0, 0, 215)">0.00</text></g><g id="node-d801b172-1aaf-36ef-84b3-ee75656278fd" class="decision-node node optimal" transform="translate(20  583.75)"><path d="M-20,-20h40v40h-40Z" fill="rgb(255, 119, 119)" stroke="rgb(0, 111, 0)" stroke-width="1.5px"/><text class="label" x="0" y="-27" text-anchor="middle"/><text class="payoff computed" dy="0.75em" x="0" y="27" text-anchor="middle"><tspan x="0">$816.67</tspan></text><text class="aggregated-payoff" x="27" y="-6" fill="rgb(0, 111, 0)"><tspan x="27"/></text><text class="probability-to-enter" dy="0.75em" x="27" y="6" fill="rgb(0, 0, 215)"/></g><g id="node-b63b4f8b-5c2e-a007-83ec-ce684eadb923" class="chance-node node optimal" transform="translate(175  506.7500000000001)"><path d="M-19.999998960714944,0C-19.999998960714944,-11.045694422638713,-11.045694422638713,-19.999998960714944,0,-19.999998960714944C11.045694422638713,-19.999998960714944,19.999998960714944,-11.045694422638713,19.999998960714944,0C19.999998960714944,11.045694422638713,11.045694422638713,19.999998960714944,0,19.999998960714944C-11.045694422638713,19.999998960714944,-19.999998960714944,11.045694422638713,-19.999998960714944,0" fill="rgb(255, 255, 68)" stroke="rgb(0, 111, 0)" stroke-width="1.5px"/><text class="label" x="0" y="-27" text-anchor="middle"/><text class="payoff computed" dy="0.75em" x="0" y="27" text-anchor="middle"><tspan x="0">$916.67</tspan></text><text class="aggregated-payoff" x="27" y="-6" fill="rgb(0, 111, 0)"><tspan x="27"/></text><text class="probability-to-enter" dy="0.75em" x="27" y="6" fill="rgb(0, 0, 215)"/></g><g id="node-e9de9125-1ebc-7b1f-be5b-eb15f7e4e3d5" class="decision-node node optimal" transform="translate(330  443.50000000000006)"><path d="M-20,-20h40v40h-40Z" fill="rgb(255, 119, 119)" stroke="rgb(0, 111, 0)" stroke-width="1.5px"/><text class="label" x="0" y="-27" text-anchor="middle"/><text class="payoff computed" dy="0.75em" x="0" y="27" text-anchor="middle"><tspan x="0" class="negative">-$7,125</tspan></text><text class="aggregated-payoff" x="27" y="-6" fill="rgb(0, 111, 0)"><tspan x="27"/></text><text class="probability-to-enter" dy="0.75em" x="27" y="6" fill="rgb(0, 0, 215)"/></g><g id="node-e2652d80-87a7-fba5-5f76-93a4219d1528" class="chance-node node optimal" transform="translate(485  383)"><path d="M-19.999998960714944,0C-19.999998960714944,-11.045694422638713,-11.045694422638713,-19.999998960714944,0,-19.999998960714944C11.045694422638713,-19.999998960714944,19.999998960714944,-11.045694422638713,19.999998960714944,0C19.999998960714944,11.045694422638713,11.045694422638713,19.999998960714944,0,19.999998960714944C-11.045694422638713,19.999998960714944,-19.999998960714944,11.045694422638713,-19.999998960714944,0" fill="rgb(255, 255, 68)" stroke="rgb(0, 111, 0)" stroke-width="1.5px"/><text class="label" x="0" y="-27" text-anchor="middle"/><text class="payoff computed" dy="0.75em" x="0" y="27" text-anchor="middle"><tspan x="0" class="negative">-$7,125</tspan></text><text class="aggregated-payoff" x="27" y="-6" fill="rgb(0, 111, 0)"><tspan x="27"/></text><text class="probability-to-enter" dy="0.75em" x="27" y="6" fill="rgb(0, 0, 215)"/></g><g id="node-d1aa8704-26e3-c6f2-d08b-c56ee4d104b9" class="terminal-node node optimal" transform="translate(640  328)"><path d="M-19.999998960714944,0L17.99999906464345,-19.999998960714944L17.99999906464345,19.999998960714944Z" fill="rgb(68, 255, 68)" stroke="rgb(0, 111, 0)" stroke-width="1.5px"/><text class="label" x="0" y="-27" text-anchor="middle"/><text class="payoff computed" dy="0.75em" x="0" y="27" text-anchor="middle"><tspan x="0"/></text><text class="aggregated-payoff" x="27" y="-6"><tspan x="27">$3,400</tspan></text><text class="probability-to-enter" dy="0.75em" x="27" y="6" fill="rgb(0, 0, 215)">0.167</text></g><g id="node-8d5f62fd-f571-2e12-aedd-001fa5c997fa" class="terminal-node node optimal" transform="translate(640  383)"><path d="M-19.999998960714944,0L17.99999906464345,-19.999998960714944L17.99999906464345,19.999998960714944Z" fill="rgb(68, 255, 68)" stroke="rgb(0, 111, 0)" stroke-width="1.5px"/><text class="label" x="0" y="-27" text-anchor="middle"/><text class="payoff computed" dy="0.75em" x="0" y="27" text-anchor="middle"><tspan x="0"/></text><text class="aggregated-payoff" x="27" y="-6"><tspan x="27">$900</tspan></text><text class="probability-to-enter" dy="0.75em" x="27" y="6" fill="rgb(0, 0, 215)">0.333</text></g><g id="node-11ec2704-03c1-9131-9ae3-38dffc7f2570" class="terminal-node node optimal" transform="translate(640  438)"><path d="M-19.999998960714944,0L17.99999906464345,-19.999998960714944L17.99999906464345,19.999998960714944Z" fill="rgb(68, 255, 68)" stroke="rgb(0, 111, 0)" stroke-width="1.5px"/><text class="label" x="0" y="-27" text-anchor="middle"/><text class="payoff computed" dy="0.75em" x="0" y="27" text-anchor="middle"><tspan x="0"/></text><text class="aggregated-payoff" x="27" y="-6"><tspan x="27" class="negative" fill="rgb(182, 0, 0)">-$100</tspan></text><text class="probability-to-enter" dy="0.75em" x="27" y="6" fill="rgb(0, 0, 215)">0.167</text></g><g id="node-faaa02ba-9983-13e7-6875-9dd7cf15a888" class="terminal-node node" transform="translate(640  504.00000000000006)"><path d="M-19.999998960714944,0L17.99999906464345,-19.999998960714944L17.99999906464345,19.999998960714944Z" fill="rgb(68, 255, 68)" stroke="rgb(0, 0, 0)"/><text class="label" x="0" y="-27" text-anchor="middle"/><text class="payoff computed" dy="0.75em" x="0" y="27" text-anchor="middle"><tspan x="0"/></text><text class="aggregated-payoff" x="27" y="-6"><tspan x="27">$400</tspan></text><text class="probability-to-enter" dy="0.75em" x="27" y="6" fill="rgb(0, 0, 215)">0.00</text></g><g id="node-87996154-c209-dc28-c414-5cbdd73707ef" class="terminal-node node optimal" transform="translate(640  570)"><path d="M-19.999998960714944,0L17.99999906464345,-19.999998960714944L17.99999906464345,19.999998960714944Z" fill="rgb(68, 255, 68)" stroke="rgb(0, 111, 0)" stroke-width="1.5px"/><text class="label" x="0" y="-27" text-anchor="middle"/><text class="payoff computed" dy="0.75em" x="0" y="27" text-anchor="middle"><tspan x="0"/></text><text class="aggregated-payoff" x="27" y="-6"><tspan x="27" class="negative" fill="rgb(182, 0, 0)">-$100</tspan></text><text class="probability-to-enter" dy="0.75em" x="27" y="6" fill="rgb(0, 0, 215)">0.333</text></g><g id="node-c7ff8892-2a45-032f-1468-91a2b3b8fc46" class="decision-node node" transform="translate(330  751.4999999999998)"><path d="M-20,-20h40v40h-40Z" fill="rgb(255, 119, 119)" stroke="rgb(102, 0, 0)"/><text class="label" x="0" y="-27" text-anchor="middle"/><text class="payoff computed" dy="0.75em" x="0" y="27" text-anchor="middle"><tspan x="0" class="negative">-$7,125</tspan></text><text class="aggregated-payoff" x="27" y="-6" fill="rgb(0, 111, 0)"><tspan x="27"/></text><text class="probability-to-enter" dy="0.75em" x="27" y="6" fill="rgb(0, 0, 215)"/></g><g id="node-a6f6d261-8c61-eb32-b425-eb146ebb7079" class="chance-node node" transform="translate(485  690.9999999999999)"><path d="M-19.999998960714944,0C-19.999998960714944,-11.045694422638713,-11.045694422638713,-19.999998960714944,0,-19.999998960714944C11.045694422638713,-19.999998960714944,19.999998960714944,-11.045694422638713,19.999998960714944,0C19.999998960714944,11.045694422638713,11.045694422638713,19.999998960714944,0,19.999998960714944C-11.045694422638713,19.999998960714944,-19.999998960714944,11.045694422638713,-19.999998960714944,0" fill="rgb(255, 255, 68)" stroke="rgb(102, 102, 0)"/><text class="label" x="0" y="-27" text-anchor="middle"/><text class="payoff computed" dy="0.75em" x="0" y="27" text-anchor="middle"><tspan x="0" class="negative">-$7,125</tspan></text><text class="aggregated-payoff" x="27" y="-6" fill="rgb(0, 111, 0)"><tspan x="27"/></text><text class="probability-to-enter" dy="0.75em" x="27" y="6" fill="rgb(0, 0, 215)"/></g><g id="node-9b4f7070-c793-9f96-5419-6276b5cd40ba" class="terminal-node node" transform="translate(640  636)"><path d="M-19.999998960714944,0L17.99999906464345,-19.999998960714944L17.99999906464345,19.999998960714944Z" fill="rgb(68, 255, 68)" stroke="rgb(0, 0, 0)"/><text class="label" x="0" y="-27" text-anchor="middle"/><text class="payoff computed" dy="0.75em" x="0" y="27" text-anchor="middle"><tspan x="0"/></text><text class="aggregated-payoff" x="27" y="-6"><tspan x="27">$2,400</tspan></text><text class="probability-to-enter" dy="0.75em" x="27" y="6" fill="rgb(0, 0, 215)">0.00</text></g><g id="node-25e1ed37-14ed-dae2-093b-b2dfd22a4597" class="terminal-node node" transform="translate(640  691)"><path d="M-19.999998960714944,0L17.99999906464345,-19.999998960714944L17.99999906464345,19.999998960714944Z" fill="rgb(68, 255, 68)" stroke="rgb(0, 0, 0)"/><text class="label" x="0" y="-27" text-anchor="middle"/><text class="payoff computed" dy="0.75em" x="0" y="27" text-anchor="middle"><tspan x="0"/></text><text class="aggregated-payoff" x="27" y="-6"><tspan x="27" class="negative" fill="rgb(182, 0, 0)">-$100</tspan></text><text class="probability-to-enter" dy="0.75em" x="27" y="6" fill="rgb(0, 0, 215)">0.00</text></g><g id="node-12e34d39-3912-e399-4d04-73ba9013172d" class="terminal-node node" transform="translate(640  746)"><path d="M-19.999998960714944,0L17.99999906464345,-19.999998960714944L17.99999906464345,19.999998960714944Z" fill="rgb(68, 255, 68)" stroke="rgb(0, 0, 0)"/><text class="label" x="0" y="-27" text-anchor="middle"/><text class="payoff computed" dy="0.75em" x="0" y="27" text-anchor="middle"><tspan x="0"/></text><text class="aggregated-payoff" x="27" y="-6"><tspan x="27" class="negative" fill="rgb(182, 0, 0)">-$1,100</tspan></text><text class="probability-to-enter" dy="0.75em" x="27" y="6" fill="rgb(0, 0, 215)">0.00</text></g><g id="node-ebb01bcb-1f2a-4bad-ba7d-a90f6706c533" class="terminal-node node" transform="translate(640  811.9999999999999)"><path d="M-19.999998960714944,0L17.99999906464345,-19.999998960714944L17.99999906464345,19.999998960714944Z" fill="rgb(68, 255, 68)" stroke="rgb(0, 0, 0)"/><text class="label" x="0" y="-27" text-anchor="middle"/><text class="payoff computed" dy="0.75em" x="0" y="27" text-anchor="middle"><tspan x="0"/></text><text class="aggregated-payoff" x="27" y="-6"><tspan x="27" class="negative" fill="rgb(182, 0, 0)">-$600</tspan></text><text class="probability-to-enter" dy="0.75em" x="27" y="6" fill="rgb(0, 0, 215)">0.00</text></g><g id="node-1d941bd7-b151-79d4-148c-1f4ed14198db" class="chance-node node" transform="translate(175  751.4999999999998)"><path d="M-19.999998960714944,0C-19.999998960714944,-11.045694422638713,-11.045694422638713,-19.999998960714944,0,-19.999998960714944C11.045694422638713,-19.999998960714944,19.999998960714944,-11.045694422638713,19.999998960714944,0C19.999998960714944,11.045694422638713,11.045694422638713,19.999998960714944,0,19.999998960714944C-11.045694422638713,19.999998960714944,-19.999998960714944,11.045694422638713,-19.999998960714944,0" fill="rgb(255, 255, 68)" stroke="rgb(102, 102, 0)"/><text class="label" x="0" y="-27" text-anchor="middle"/><text class="payoff computed" dy="0.75em" x="0" y="27" text-anchor="middle"><tspan x="0">$375</tspan></text><text class="aggregated-payoff" x="27" y="-6" fill="rgb(0, 111, 0)"><tspan x="27"/></text><text class="probability-to-enter" dy="0.75em" x="27" y="6" fill="rgb(0, 0, 215)"/></g></g><g class="edges"><g id="edge-ba216ae3-116e-600f-4187-dc4f80d861c1" class="edge"><path d="M41,583.75L50,583.75L70,198.75L147,198.75" fill="none" marker-end="url(#arrow)" stroke="rgb(66, 66, 66)" stroke-width="1.5px"/><g class="label-group" transform="translate(72,191.75)"><text class="label"><tspan x="0">$9500 bid</tspan></text></g><text class="payoff" dy="0.75em" x="72" y="205.75"><tspan x="72">-$100</tspan></text><text class="probability" text-anchor="end" dy="0.75em" x="139" y="205.75" fill="rgb(0, 0, 215)">0.00</text></g><g id="edge-0fc521d1-7f3e-d5de-4dfd-3543091356e4" class="edge"><path d="M41,583.75L50,583.75L70,877.9999999999999L612,877.9999999999999" fill="none" marker-end="url(#arrow)" stroke="rgb(66, 66, 66)" stroke-width="1.5px"/><g class="label-group" transform="translate(72,870.9999999999999)"><text class="label"><tspan x="0">no bid</tspan></text></g><text class="payoff" dy="0.75em" x="72" y="884.9999999999999"><tspan x="72">$0</tspan></text><text class="probability" text-anchor="end" dy="0.75em" x="604" y="884.9999999999999" fill="rgb(0, 0, 215)">0.00</text></g><g id="edge-ae782a51-ffa2-8bec-ac7f-72191f8abc8b" class="edge"><path d="M196,198.75L205,198.75L225,135.5L302,135.5" fill="none" marker-end="url(#arrow)" stroke="rgb(66, 66, 66)" stroke-width="1.5px"/><g class="label-group" transform="translate(227,128.5)"><text class="label"><tspan x="0">win $10000</tspan></text></g><text class="payoff" dy="0.75em" x="227" y="142.5"><tspan x="227">$9,500</tspan></text><text class="probability" text-anchor="end" dy="0.75em" x="303.111328125" y="142.5" fill="rgb(0, 0, 215)">0.333</text></g><g id="edge-6162909c-c3a7-030c-6538-8cd4d57aed30" class="edge"><path d="M196,198.75L205,198.75L225,262L612,262" fill="none" marker-end="url(#arrow)" stroke="rgb(66, 66, 66)" stroke-width="1.5px"/><g class="label-group" transform="translate(227,255)"><text class="label"><tspan x="0">lose $9000/$8000</tspan></text></g><text class="payoff" dy="0.75em" x="227" y="269"><tspan x="227">$0</tspan></text><text class="probability" text-anchor="end" dy="0.75em" x="604" y="269" fill="rgb(0, 0, 215)">0.667</text></g><g id="edge-1761565a-b928-d0db-2d24-8ca7cec0282e" class="edge"><path d="M351,135.5L360,135.5L380,75L457,75" fill="none" marker-end="url(#arrow)" stroke="rgb(66, 66, 66)" stroke-width="1.5px"/><g class="label-group" transform="translate(382,68)"><text class="label"><tspan x="0">new</tspan></text></g><text class="payoff" dy="0.75em" x="382" y="82"><tspan x="382">$0</tspan></text><text class="probability" text-anchor="end" dy="0.75em" x="449" y="82" fill="rgb(0, 0, 215)">1.00</text></g><g id="edge-140b291b-5329-459a-7cac-c670a70dc884" class="edge"><path d="M351,135.5L360,135.5L380,196L612,196" fill="none" marker-end="url(#arrow)" stroke="rgb(66, 66, 66)" stroke-width="1.5px"/><g class="label-group" transform="translate(382,189)"><text class="label"><tspan x="0">current</tspan></text></g><text class="payoff" dy="0.75em" x="382" y="203"><tspan x="382">-$8,000</tspan></text><text class="probability" text-anchor="end" dy="0.75em" x="604" y="203" fill="rgb(0, 0, 215)">0.00</text></g><g id="edge-fd7dc537-810d-77fb-f0cc-5fcb5ed39473" class="edge"><path d="M506,75L515,75L535,20L612,20" fill="none" marker-end="url(#arrow)" stroke="rgb(66, 66, 66)" stroke-width="1.5px"/><g class="label-group" transform="translate(537,13)"><text class="label"/></g><text class="payoff" dy="0.75em" x="537" y="27"><tspan x="537">-$5,000</tspan></text><text class="probability" text-anchor="end" dy="0.75em" x="611.265625" y="27" fill="rgb(0, 0, 215)">0.25</text></g><g id="edge-3363339c-8872-42db-de86-cfaafd1efa04" class="edge"><path d="M506,75L515,75L535,75L612,75" fill="none" marker-end="url(#arrow)" stroke="rgb(66, 66, 66)" stroke-width="1.5px"/><g class="label-group" transform="translate(537,68)"><text class="label"/></g><text class="payoff" dy="0.75em" x="537" y="82"><tspan x="537">-$7,500</tspan></text><text class="probability" text-anchor="end" dy="0.75em" x="611.265625" y="82" fill="rgb(0, 0, 215)">0.50</text></g><g id="edge-a1114e5b-46e9-190f-b891-e98489307d48" class="edge"><path d="M506,75L515,75L535,130L612,130" fill="none" marker-end="url(#arrow)" stroke="rgb(66, 66, 66)" stroke-width="1.5px"/><g class="label-group" transform="translate(537,123)"><text class="label"/></g><text class="payoff" dy="0.75em" x="537" y="137"><tspan x="537">-$8,500</tspan></text><text class="probability" text-anchor="end" dy="0.75em" x="611.265625" y="137" fill="rgb(0, 0, 215)">0.25</text></g><g id="edge-9c4bb4d5-fc52-200f-2551-efb4c309e56a" class="edge"><path d="M351,443.50000000000006L360,443.50000000000006L380,504.00000000000006L612,504.00000000000006" fill="none" marker-end="url(#arrow)" stroke="rgb(66, 66, 66)" stroke-width="1.5px"/><g class="label-group" transform="translate(382,497.00000000000006)"><text class="label"><tspan x="0">current</tspan></text></g><text class="payoff" dy="0.75em" x="382" y="511.00000000000006"><tspan x="382">-$8,000</tspan></text><text class="probability" text-anchor="end" dy="0.75em" x="604" y="511.00000000000006" fill="rgb(0, 0, 215)">0.00</text></g><g id="edge-3925eb52-6b96-8a08-3169-bcb65a39a5ac" class="edge"><path d="M351,751.4999999999998L360,751.4999999999998L380,811.9999999999999L612,811.9999999999999" fill="none" marker-end="url(#arrow)" stroke="rgb(66, 66, 66)" stroke-width="1.5px"/><g class="label-group" transform="translate(382,804.9999999999999)"><text class="label"><tspan x="0">current</tspan></text></g><text class="payoff" dy="0.75em" x="382" y="818.9999999999999"><tspan x="382">-$8,000</tspan></text><text class="probability" text-anchor="end" dy="0.75em" x="604" y="818.9999999999999" fill="rgb(0, 0, 215)">0.00</text></g><g id="edge-9db73d6d-1adc-392e-14d2-6c55cccddb28" class="edge"><path d="M41,583.75L50,583.75L70,751.4999999999998L147,751.4999999999998" fill="none" marker-end="url(#arrow)" stroke="rgb(66, 66, 66)" stroke-width="1.5px"/><g class="label-group" transform="translate(72,744.4999999999998)"><text class="label"><tspan x="0">$7500 bid</tspan></text></g><text class="payoff" dy="0.75em" x="72" y="758.4999999999998"><tspan x="72">-$100</tspan></text><text class="probability" text-anchor="end" dy="0.75em" x="139" y="758.4999999999998" fill="rgb(0, 0, 215)">0.00</text></g><g id="edge-cd33df97-6e9a-e954-4dfe-e96c1cdaa8f5" class="edge"><path d="M196,751.4999999999998L205,751.4999999999998L225,751.4999999999998L302,751.4999999999998" fill="none" marker-end="url(#arrow)" stroke="rgb(66, 66, 66)" stroke-width="1.5px"/><g class="label-group" transform="translate(227,744.4999999999998)"><text class="label"><tspan x="0">win $10000/$9000/$8000</tspan></text></g><text class="payoff" dy="0.75em" x="227" y="758.4999999999998"><tspan x="227">$7,500</tspan></text><text class="probability" text-anchor="end" dy="0.75em" x="296.07421875" y="758.4999999999998" fill="rgb(0, 0, 215)">1.00</text></g><g id="edge-680fa956-52d2-96c4-f636-3d72cf17245a" class="edge"><path d="M351,751.4999999999998L360,751.4999999999998L380,690.9999999999999L457,690.9999999999999" fill="none" marker-end="url(#arrow)" stroke="rgb(66, 66, 66)" stroke-width="1.5px"/><g class="label-group" transform="translate(382,683.9999999999999)"><text class="label"><tspan x="0">new</tspan></text></g><text class="payoff" dy="0.75em" x="382" y="697.9999999999999"><tspan x="382">$0</tspan></text><text class="probability" text-anchor="end" dy="0.75em" x="449" y="697.9999999999999" fill="rgb(0, 0, 215)">1.00</text></g><g id="edge-e64d93f3-16d8-4c3a-a606-4a34e523140f" class="edge"><path d="M506,690.9999999999999L515,690.9999999999999L535,636L612,636" fill="none" marker-end="url(#arrow)" stroke="rgb(66, 66, 66)" stroke-width="1.5px"/><g class="label-group" transform="translate(537,629)"><text class="label"/></g><text class="payoff" dy="0.75em" x="537" y="643"><tspan x="537">-$5,000</tspan></text><text class="probability" text-anchor="end" dy="0.75em" x="611.265625" y="643" fill="rgb(0, 0, 215)">0.25</text></g><g id="edge-caf8a56b-4ffd-3794-26f2-b46841104bae" class="edge"><path d="M506,690.9999999999999L515,690.9999999999999L535,691L612,691" fill="none" marker-end="url(#arrow)" stroke="rgb(66, 66, 66)" stroke-width="1.5px"/><g class="label-group" transform="translate(537,684)"><text class="label"/></g><text class="payoff" dy="0.75em" x="537" y="698"><tspan x="537">-$7,500</tspan></text><text class="probability" text-anchor="end" dy="0.75em" x="611.265625" y="698" fill="rgb(0, 0, 215)">0.50</text></g><g id="edge-6a76920c-28a0-88bf-08f8-8a0711494648" class="edge"><path d="M506,690.9999999999999L515,690.9999999999999L535,746L612,746" fill="none" marker-end="url(#arrow)" stroke="rgb(66, 66, 66)" stroke-width="1.5px"/><g class="label-group" transform="translate(537,739)"><text class="label"/></g><text class="payoff" dy="0.75em" x="537" y="753"><tspan x="537">-$8,500</tspan></text><text class="probability" text-anchor="end" dy="0.75em" x="611.265625" y="753" fill="rgb(0, 0, 215)">0.25</text></g><g id="edge-662a7471-4657-c3ca-847c-2b59f0c12d34" class="edge optimal"><path d="M41,583.75L50,583.75L70,506.7500000000001L147,506.7500000000001" fill="none" marker-end="url(#arrow-optimal)" stroke="rgb(0, 111, 0)" stroke-width="2.4px"/><g class="label-group" transform="translate(72,499.7500000000001)"><text class="label"><tspan x="0">$8500 bid</tspan></text></g><text class="payoff" dy="0.75em" x="72" y="513.7500000000001"><tspan x="72">-$100</tspan></text><text class="probability" text-anchor="end" dy="0.75em" x="139" y="513.7500000000001" fill="rgb(0, 0, 215)">1.00</text></g><g id="edge-c97f74d2-e084-8af6-ef01-62acf3debd0f" class="edge optimal"><path d="M196,506.7500000000001L205,506.7500000000001L225,443.50000000000006L302,443.50000000000006" fill="none" marker-end="url(#arrow-optimal)" stroke="rgb(0, 111, 0)" stroke-width="2.4px"/><g class="label-group" transform="translate(227,436.50000000000006)"><text class="label"><tspan x="0">win $10000/$9000</tspan></text></g><text class="payoff" dy="0.75em" x="227" y="450.50000000000006"><tspan x="227">$8,500</tspan></text><text class="probability" text-anchor="end" dy="0.75em" x="303.111328125" y="450.50000000000006" fill="rgb(0, 0, 215)">0.667</text></g><g id="edge-28107377-f296-9f66-2787-d845b94d3064" class="edge optimal"><path d="M351,443.50000000000006L360,443.50000000000006L380,383L457,383" fill="none" marker-end="url(#arrow-optimal)" stroke="rgb(0, 111, 0)" stroke-width="2.4px"/><g class="label-group" transform="translate(382,376)"><text class="label"><tspan x="0">new</tspan></text></g><text class="payoff" dy="0.75em" x="382" y="390"><tspan x="382">$0</tspan></text><text class="probability" text-anchor="end" dy="0.75em" x="449" y="390" fill="rgb(0, 0, 215)">1.00</text></g><g id="edge-e62b68d1-b837-5837-10bb-46c6d57ef62a" class="edge optimal"><path d="M506,383L515,383L535,328L612,328" fill="none" marker-end="url(#arrow-optimal)" stroke="rgb(0, 111, 0)" stroke-width="2.4px"/><g class="label-group" transform="translate(537,321)"><text class="label"/></g><text class="payoff" dy="0.75em" x="537" y="335"><tspan x="537">-$5,000</tspan></text><text class="probability" text-anchor="end" dy="0.75em" x="611.265625" y="335" fill="rgb(0, 0, 215)">0.25</text></g><g id="edge-c6856e75-6dad-cef2-9b89-ad4da1aeae00" class="edge optimal"><path d="M506,383L515,383L535,383L612,383" fill="none" marker-end="url(#arrow-optimal)" stroke="rgb(0, 111, 0)" stroke-width="2.4px"/><g class="label-group" transform="translate(537,376)"><text class="label"/></g><text class="payoff" dy="0.75em" x="537" y="390"><tspan x="537">-$7,500</tspan></text><text class="probability" text-anchor="end" dy="0.75em" x="611.265625" y="390" fill="rgb(0, 0, 215)">0.50</text></g><g id="edge-9158e3d3-29fb-d217-9dfc-9b537dd78fe0" class="edge optimal"><path d="M506,383L515,383L535,438L612,438" fill="none" marker-end="url(#arrow-optimal)" stroke="rgb(0, 111, 0)" stroke-width="2.4px"/><g class="label-group" transform="translate(537,431)"><text class="label"/></g><text class="payoff" dy="0.75em" x="537" y="445"><tspan x="537">-$8,500</tspan></text><text class="probability" text-anchor="end" dy="0.75em" x="611.265625" y="445" fill="rgb(0, 0, 215)">0.25</text></g><g id="edge-994b5004-d1c4-aba7-457e-f1c0dff91cb7" class="edge optimal"><path d="M196,506.7500000000001L205,506.7500000000001L225,570L612,570" fill="none" marker-end="url(#arrow-optimal)" stroke="rgb(0, 111, 0)" stroke-width="2.4px"/><g class="label-group" transform="translate(227,563)"><text class="label"><tspan x="0">lose $8000</tspan></text></g><text class="payoff" dy="0.75em" x="227" y="577"><tspan x="227">$0</tspan></text><text class="probability" text-anchor="end" dy="0.75em" x="604" y="577" fill="rgb(0, 0, 215)">0.333</text></g></g><g class="floating-texts"/></g></g><defs><marker id="arrow" viewBox="0 -5 10 10" refX="5" refY="0" markerWidth="4" markerHeight="4" orient="auto"><path d="M0,-5L10,0L0,5" class="arrowHead" fill="rgb(66, 66, 66)"/></marker><marker id="arrow-optimal" viewBox="0 -5 10 10" refX="5" refY="0" markerWidth="4" markerHeight="4" orient="auto"><path d="M0,-5L10,0L0,5" class="arrowHead" fill="rgb(0, 111, 0)"/></marker><marker id="arrow-selected" viewBox="0 -5 10 10" refX="5" refY="0" markerWidth="4" markerHeight="4" orient="auto"><path d="M0,-5L10,0L0,5" class="arrowHead" fill="rgb(4, 90, 209)"/></marker></defs><g class="sd-title-container" transform="translate(380.1328125,15)"><text class="sd-title" dy="0.75em" text-anchor="middle" style="; font-size: 16px; font-weight: 700"/><text class="sd-description" dy="0.75em" transform="translate(0,0)" text-anchor="middle" style="; font-weight: 700"/></g></svg>