<svg xmlns:xlink="http://www.w3.org/1999/xlink" xmlns="http://www.w3.org/2000/svg" class="sd-tree-designer" width="748" height="1560" style="; color: rgb(0, 0, 0); font-family: sans-serif; font-kerning: auto; font-size: 12px; font-stretch: 100%; font-style: normal; font-variant: normal; font-variant-ligatures: normal; font-variant-caps: normal; font-variant-numeric: normal; font-variant-east-asian: normal; font-weight: 400; opacity: 1; color-interpolation: srgb; color-interpolation-filters: linearrgb; color-rendering: auto" text-align="start" text-align-last="auto" text-decoration="none solid rgb(0, 0, 0)" text-decoration-line="none" text-decoration-style="solid" text-decoration-color="rgb(0, 0, 0)" text-decoration-skip-ink="auto" text-underline-position="auto" text-indent="0px" text-rendering="auto" text-shadow="none" text-size-adjust="auto" text-overflow="clip" text-transform="none" fill="rgb(0, 0, 0)" fill-opacity="1" fill-rule="nonzero" stroke="none" stroke-dasharray="none" stroke-dashoffset="0px" stroke-linecap="butt" stroke-linejoin="miter" stroke-miterlimit="4" stroke-opacity="1" stroke-width="1px" text-anchor="start" xlink="http://www.w3.org/1999/xlink"><g class="sd-wrapper-group" transform="scale(1)"><g class="brush" fill="none" pointer-events="all"><rect class="overlay" pointer-events="all" cursor="crosshair" x="0" y="0" width="748" height="1560"/></g><g class="main-group" transform="translate(25,25)"><g class="nodes"><g id="node-88edc747-45c0-6a06-a7dc-03170c7d61b9" class="chance-node node optimal" transform="translate(170  177.5)"><path d="M-19.999998960714944,0C-19.999998960714944,-11.045694422638713,-11.045694422638713,-19.999998960714944,0,-19.999998960714944C11.045694422638713,-19.999998960714944,19.999998960714944,-11.045694422638713,19.999998960714944,0C19.999998960714944,11.045694422638713,11.045694422638713,19.999998960714944,0,19.999998960714944C-11.045694422638713,19.999998960714944,-19.999998960714944,11.045694422638713,-19.999998960714944,0" fill="rgb(255, 255, 68)" stroke="rgb(0, 111, 0)" stroke-width="1.5px"/><text class="label" x="0" y="-27" text-anchor="middle"/><text class="payoff computed" dy="0.75em" x="0" y="27" text-anchor="middle"><tspan x="0" class="negative">-$1,275,000</tspan></text><text class="aggregated-payoff" x="27" y="-6" fill="rgb(0, 111, 0)"><tspan x="27"/></text><text class="probability-to-enter" dy="0.75em" x="27" y="6" fill="rgb(0, 0, 215)"/></g><g id="node-664b625d-a581-e91f-de4d-14b9d17db95a" class="chance-node node optimal" transform="translate(320  95)"><path d="M-19.999998960714944,0C-19.999998960714944,-11.045694422638713,-11.045694422638713,-19.999998960714944,0,-19.999998960714944C11.045694422638713,-19.999998960714944,19.999998960714944,-11.045694422638713,19.999998960714944,0C19.999998960714944,11.045694422638713,11.045694422638713,19.999998960714944,0,19.999998960714944C-11.045694422638713,19.999998960714944,-19.999998960714944,11.045694422638713,-19.999998960714944,0" fill="rgb(255, 255, 68)" stroke="rgb(0, 111, 0)" stroke-width="1.5px"/><text class="label" x="0" y="-27" text-anchor="middle"/><text class="payoff computed" dy="0.75em" x="0" y="27" text-anchor="middle"><tspan x="0" class="negative">-$875,000</tspan></text><text class="aggregated-payoff" x="27" y="-6" fill="rgb(0, 111, 0)"><tspan x="27"/></text><text class="probability-to-enter" dy="0.75em" x="27" y="6" fill="rgb(0, 0, 215)"/></g><g id="node-26091086-0235-1520-7513-03cbffe30f1b" class="terminal-node node optimal" transform="translate(470  20)"><path d="M-19.999998960714944,0L17.99999906464345,-19.999998960714944L17.99999906464345,19.999998960714944Z" fill="rgb(68, 255, 68)" stroke="rgb(0, 111, 0)" stroke-width="1.5px"/><text class="label" x="0" y="-27" text-anchor="middle"/><text class="payoff computed" dy="0.75em" x="0" y="27" text-anchor="middle"><tspan x="0"/></text><text class="aggregated-payoff" x="27" y="-6"><tspan class="negative" x="27" fill="rgb(182, 0, 0)">-$1,125,000</tspan></text><text class="probability-to-enter" dy="0.75em" x="27" y="6" fill="rgb(0, 0, 215)">0.20</text></g><g id="node-86898b14-e4a0-5f78-7669-788d8b42ddd0" class="terminal-node node optimal" transform="translate(470  95)"><path d="M-19.999998960714944,0L17.99999906464345,-19.999998960714944L17.99999906464345,19.999998960714944Z" fill="rgb(68, 255, 68)" stroke="rgb(0, 111, 0)" stroke-width="1.5px"/><text class="label" x="0" y="-27" text-anchor="middle"/><text class="payoff computed" dy="0.75em" x="0" y="27" text-anchor="middle"><tspan x="0"/></text><text class="aggregated-payoff" x="27" y="-6"><tspan class="negative" x="27" fill="rgb(182, 0, 0)">-$1,500,000</tspan></text><text class="probability-to-enter" dy="0.75em" x="27" y="6" fill="rgb(0, 0, 215)">0.20</text></g><g id="node-7e93dbf1-b1cf-81a0-8a72-e20eb3fc44d3" class="terminal-node node optimal" transform="translate(470  170)"><path d="M-19.999998960714944,0L17.99999906464345,-19.999998960714944L17.99999906464345,19.999998960714944Z" fill="rgb(68, 255, 68)" stroke="rgb(0, 111, 0)" stroke-width="1.5px"/><text class="label" x="0" y="-27" text-anchor="middle"/><text class="payoff computed" dy="0.75em" x="0" y="27" text-anchor="middle"><tspan x="0"/></text><text class="aggregated-payoff" x="27" y="-6"><tspan class="negative" x="27" fill="rgb(182, 0, 0)">-$2,250,000</tspan></text><text class="probability-to-enter" dy="0.75em" x="27" y="6" fill="rgb(0, 0, 215)">0.20</text></g><g id="node-ea30796f-5585-a4b4-0815-30b4cdbb6ef2" class="terminal-node node optimal" transform="translate(470  260)"><path d="M-19.999998960714944,0L17.99999906464345,-19.999998960714944L17.99999906464345,19.999998960714944Z" fill="rgb(68, 255, 68)" stroke="rgb(0, 111, 0)" stroke-width="1.5px"/><text class="label" x="0" y="-27" text-anchor="middle"/><text class="payoff computed" dy="0.75em" x="0" y="27" text-anchor="middle"><tspan x="0"/></text><text class="aggregated-payoff" x="27" y="-6"><tspan class="negative" x="27" fill="rgb(182, 0, 0)">-$750,000</tspan></text><text class="probability-to-enter" dy="0.75em" x="27" y="6" fill="rgb(0, 0, 215)">0.40</text></g><g id="node-2da4f457-020b-d37a-c6d0-c2ed8135de6e" class="chance-node node" transform="translate(170  507.50000000000006)"><path d="M-19.999998960714944,0C-19.999998960714944,-11.045694422638713,-11.045694422638713,-19.999998960714944,0,-19.999998960714944C11.045694422638713,-19.999998960714944,19.999998960714944,-11.045694422638713,19.999998960714944,0C19.999998960714944,11.045694422638713,11.045694422638713,19.999998960714944,0,19.999998960714944C-11.045694422638713,19.999998960714944,-19.999998960714944,11.045694422638713,-19.999998960714944,0" fill="rgb(255, 255, 68)" stroke="rgb(102, 102, 0)"/><text class="label" x="0" y="-27" text-anchor="middle"/><text class="payoff computed" dy="0.75em" x="0" y="27" text-anchor="middle"><tspan x="0" class="negative">-$850,000</tspan></text><text class="aggregated-payoff" x="27" y="-6" fill="rgb(0, 111, 0)"><tspan x="27"/></text><text class="probability-to-enter" dy="0.75em" x="27" y="6" fill="rgb(0, 0, 215)"/></g><g id="node-be63d5b4-377f-69d9-d3ee-31b2d1a7fcd4" class="chance-node node" transform="translate(320  425.0000000000001)"><path d="M-19.999998960714944,0C-19.999998960714944,-11.045694422638713,-11.045694422638713,-19.999998960714944,0,-19.999998960714944C11.045694422638713,-19.999998960714944,19.999998960714944,-11.045694422638713,19.999998960714944,0C19.999998960714944,11.045694422638713,11.045694422638713,19.999998960714944,0,19.999998960714944C-11.045694422638713,19.999998960714944,-19.999998960714944,11.045694422638713,-19.999998960714944,0" fill="rgb(255, 255, 68)" stroke="rgb(102, 102, 0)"/><text class="label" x="0" y="-27" text-anchor="middle"/><text class="payoff computed" dy="0.75em" x="0" y="27" text-anchor="middle"><tspan x="0" class="negative">-$583,333.33</tspan></text><text class="aggregated-payoff" x="27" y="-6" fill="rgb(0, 111, 0)"><tspan x="27"/></text><text class="probability-to-enter" dy="0.75em" x="27" y="6" fill="rgb(0, 0, 215)"/></g><g id="node-71861506-1df0-225c-3e64-27ea5eaaf221" class="terminal-node node" transform="translate(470  350)"><path d="M-19.999998960714944,0L17.99999906464345,-19.999998960714944L17.99999906464345,19.999998960714944Z" fill="rgb(68, 255, 68)" stroke="rgb(0, 0, 0)"/><text class="label" x="0" y="-27" text-anchor="middle"/><text class="payoff computed" dy="0.75em" x="0" y="27" text-anchor="middle"><tspan x="0"/></text><text class="aggregated-payoff" x="27" y="-6"><tspan class="negative" x="27" fill="rgb(182, 0, 0)">-$1,500,000</tspan></text><text class="probability-to-enter" dy="0.75em" x="27" y="6" fill="rgb(0, 0, 215)">0.00</text></g><g id="node-1196ff34-2528-12bc-b49a-9a8fd2c39a7b" class="terminal-node node" transform="translate(470  425)"><path d="M-19.999998960714944,0L17.99999906464345,-19.999998960714944L17.99999906464345,19.999998960714944Z" fill="rgb(68, 255, 68)" stroke="rgb(0, 0, 0)"/><text class="label" x="0" y="-27" text-anchor="middle"/><text class="payoff computed" dy="0.75em" x="0" y="27" text-anchor="middle"><tspan x="0"/></text><text class="aggregated-payoff" x="27" y="-6"><tspan class="negative" x="27" fill="rgb(182, 0, 0)">-$1,750,000</tspan></text><text class="probability-to-enter" dy="0.75em" x="27" y="6" fill="rgb(0, 0, 215)">0.00</text></g><g id="node-b99d7aef-5d56-217a-ed31-14a8641b38ea" class="terminal-node node" transform="translate(470  500)"><path d="M-19.999998960714944,0L17.99999906464345,-19.999998960714944L17.99999906464345,19.999998960714944Z" fill="rgb(68, 255, 68)" stroke="rgb(0, 0, 0)"/><text class="label" x="0" y="-27" text-anchor="middle"/><text class="payoff computed" dy="0.75em" x="0" y="27" text-anchor="middle"><tspan x="0"/></text><text class="aggregated-payoff" x="27" y="-6"><tspan class="negative" x="27" fill="rgb(182, 0, 0)">-$2,250,000</tspan></text><text class="probability-to-enter" dy="0.75em" x="27" y="6" fill="rgb(0, 0, 215)">0.00</text></g><g id="node-78e2a1cf-0f05-c969-2744-19c26ca425ba" class="terminal-node node" transform="translate(470  590)"><path d="M-19.999998960714944,0L17.99999906464345,-19.999998960714944L17.99999906464345,19.999998960714944Z" fill="rgb(68, 255, 68)" stroke="rgb(0, 0, 0)"/><text class="label" x="0" y="-27" text-anchor="middle"/><text class="payoff computed" dy="0.75em" x="0" y="27" text-anchor="middle"><tspan x="0"/></text><text class="aggregated-payoff" x="27" y="-6"><tspan class="negative" x="27" fill="rgb(182, 0, 0)">-$1,250,000</tspan></text><text class="probability-to-enter" dy="0.75em" x="27" y="6" fill="rgb(0, 0, 215)">0.00</text></g><g id="node-728bc76c-be2c-e807-25dc-7716f9c26aaa" class="terminal-node node" transform="translate(470  680)"><path d="M-19.999998960714944,0L17.99999906464345,-19.999998960714944L17.99999906464345,19.999998960714944Z" fill="rgb(68, 255, 68)" stroke="rgb(0, 0, 0)"/><text class="label" x="0" y="-27" text-anchor="middle"/><text class="payoff computed" dy="0.75em" x="0" y="27" text-anchor="middle"><tspan x="0"/></text><text class="aggregated-payoff" x="27" y="-6"><tspan class="negative" x="27" fill="rgb(182, 0, 0)">-$1,500,000</tspan></text><text class="probability-to-enter" dy="0.75em" x="27" y="6" fill="rgb(0, 0, 215)">0.00</text></g><g id="node-c0a11f8f-6a8f-0459-7606-d3d3c6933e78" class="decision-node node optimal" transform="translate(20  455.00000000000006)"><path d="M-20,-20h40v40h-40Z" fill="rgb(255, 119, 119)" stroke="rgb(0, 111, 0)" stroke-width="1.5px"/><text class="label" x="0" y="-27" text-anchor="middle"/><text class="payoff computed" dy="0.75em" x="0" y="27" text-anchor="middle"><tspan x="0" class="negative">-$1,275,000</tspan></text><text class="aggregated-payoff" x="27" y="-6" fill="rgb(0, 111, 0)"><tspan x="27"/></text><text class="probability-to-enter" dy="0.75em" x="27" y="6" fill="rgb(0, 0, 215)"/></g><g id="node-5b945360-fb74-2fb6-ac5c-5e657712144e" class="decision-node node optimal" transform="translate(170, 1060)"><path d="M-20,-20h40v40h-40Z" fill="rgb(255, 119, 119)" stroke="rgb(0, 111, 0)" stroke-width="1.5px"/><text class="label" x="0" y="-27" text-anchor="middle"/><text class="payoff computed" dy="0.75em" x="0" y="27" text-anchor="middle"><tspan x="0" class="negative">-$1,500,000</tspan></text><text class="aggregated-payoff" x="27" y="-6" fill="rgb(0, 111, 0)"><tspan x="27"/></text><text class="probability-to-enter" dy="0.75em" x="27" y="6" fill="rgb(0, 0, 215)"/></g><g id="node-5c20b2bc-cb2f-e396-fd0d-86e7f40d56a2" class="terminal-node node optimal" transform="translate(470, 1250)"><path d="M-19.999998960714944,0L17.99999906464345,-19.999998960714944L17.99999906464345,19.999998960714944Z" fill="rgb(68, 255, 68)" stroke="rgb(0, 111, 0)" stroke-width="1.5px"/><text class="label" x="0" y="-27" text-anchor="middle"/><text class="payoff computed" dy="0.75em" x="0" y="27" text-anchor="middle"><tspan x="0"/></text><text class="aggregated-payoff" x="27" y="-6"><tspan x="27" class="negative" fill="rgb(182, 0, 0)">-$1,500,000</tspan></text><text class="probability-to-enter" dy="0.75em" x="27" y="6" fill="rgb(0, 0, 215)">0.60</text></g><g id="node-d5fea66e-7886-7e2b-ec5f-3a08b37edaf7" class="chance-node node optimal" transform="translate(20, 1237.5)"><path d="M-19.999998960714944,0C-19.999998960714944,-11.045694422638713,-11.045694422638713,-19.999998960714944,0,-19.999998960714944C11.045694422638713,-19.999998960714944,19.999998960714944,-11.045694422638713,19.999998960714944,0C19.999998960714944,11.045694422638713,11.045694422638713,19.999998960714944,0,19.999998960714944C-11.045694422638713,19.999998960714944,-19.999998960714944,11.045694422638713,-19.999998960714944,0" fill="rgb(255, 255, 68)" stroke="rgb(0, 111, 0)" stroke-width="1.5px"/><text class="label" x="0" y="-27" text-anchor="middle"/><text class="payoff computed" dy="0.75em" x="0" y="27" text-anchor="middle"><tspan x="0" class="negative">-$1,200,000</tspan></text><text class="aggregated-payoff" x="27" y="-6" fill="rgb(0, 111, 0)"><tspan x="27"/></text><text class="probability-to-enter" dy="0.75em" x="27" y="6" fill="rgb(0, 0, 215)"/></g><g id="node-a600e6e0-5ee1-0df0-7d47-34fddc8e0f9f" class="terminal-node node" transform="translate(470  770)"><path d="M-19.999998960714944,0L17.99999906464345,-19.999998960714944L17.99999906464345,19.999998960714944Z" fill="rgb(68, 255, 68)" stroke="rgb(0, 0, 0)"/><text class="label" x="0" y="-27" text-anchor="middle"/><text class="payoff computed" dy="0.75em" x="0" y="27" text-anchor="middle"><tspan x="0"/></text><text class="aggregated-payoff" x="27" y="-6"><tspan x="27" class="negative" fill="rgb(182, 0, 0)">-$1,125,000</tspan></text><text class="probability-to-enter" dy="0.75em" x="27" y="6" fill="rgb(0, 0, 215)">0.00</text></g><g id="node-1577e682-beec-4412-ed8e-6edea85c584b" class="terminal-node node" transform="translate(470  845)"><path d="M-19.999998960714944,0L17.99999906464345,-19.999998960714944L17.99999906464345,19.999998960714944Z" fill="rgb(68, 255, 68)" stroke="rgb(0, 0, 0)"/><text class="label" x="0" y="-27" text-anchor="middle"/><text class="payoff computed" dy="0.75em" x="0" y="27" text-anchor="middle"><tspan x="0"/></text><text class="aggregated-payoff" x="27" y="-6"><tspan x="27" class="negative" fill="rgb(182, 0, 0)">-$1,500,000</tspan></text><text class="probability-to-enter" dy="0.75em" x="27" y="6" fill="rgb(0, 0, 215)">0.00</text></g><g id="node-8921ec03-150c-d3a5-ce76-432a460e491a" class="terminal-node node" transform="translate(470  920)"><path d="M-19.999998960714944,0L17.99999906464345,-19.999998960714944L17.99999906464345,19.999998960714944Z" fill="rgb(68, 255, 68)" stroke="rgb(0, 0, 0)"/><text class="label" x="0" y="-27" text-anchor="middle"/><text class="payoff computed" dy="0.75em" x="0" y="27" text-anchor="middle"><tspan x="0"/></text><text class="aggregated-payoff" x="27" y="-6"><tspan x="27" class="negative" fill="rgb(182, 0, 0)">-$2,250,000</tspan></text><text class="probability-to-enter" dy="0.75em" x="27" y="6" fill="rgb(0, 0, 215)">0.00</text></g><g id="node-c845de44-3f37-e640-3c05-10e54e8d4678" class="chance-node node" transform="translate(320  845)"><path d="M-19.999998960714944,0C-19.999998960714944,-11.045694422638713,-11.045694422638713,-19.999998960714944,0,-19.999998960714944C11.045694422638713,-19.999998960714944,19.999998960714944,-11.045694422638713,19.999998960714944,0C19.999998960714944,11.045694422638713,11.045694422638713,19.999998960714944,0,19.999998960714944C-11.045694422638713,19.999998960714944,-19.999998960714944,11.045694422638713,-19.999998960714944,0" fill="rgb(255, 255, 68)" stroke="rgb(102, 102, 0)"/><text class="label" x="0" y="-27" text-anchor="middle"/><text class="payoff computed" dy="0.75em" x="0" y="27" text-anchor="middle"><tspan x="0" class="negative">-$875,000</tspan></text><text class="aggregated-payoff" x="27" y="-6" fill="rgb(0, 111, 0)"><tspan x="27"/></text><text class="probability-to-enter" dy="0.75em" x="27" y="6" fill="rgb(0, 0, 215)"/></g><g id="node-4976cf87-f938-8a1e-c78d-b75add826e70" class="terminal-node node" transform="translate(470, 1010)"><path d="M-19.999998960714944,0L17.99999906464345,-19.999998960714944L17.99999906464345,19.999998960714944Z" fill="rgb(68, 255, 68)" stroke="rgb(0, 0, 0)"/><text class="label" x="0" y="-27" text-anchor="middle"/><text class="payoff computed" dy="0.75em" x="0" y="27" text-anchor="middle"><tspan x="0"/></text><text class="aggregated-payoff" x="27" y="-6"><tspan x="27" class="negative" fill="rgb(182, 0, 0)">-$1,500,000</tspan></text><text class="probability-to-enter" dy="0.75em" x="27" y="6" fill="rgb(0, 0, 215)">0.00</text></g><g id="node-2db2dcab-d487-a723-8a1b-bdc899450fd8" class="terminal-node node" transform="translate(470, 1085)"><path d="M-19.999998960714944,0L17.99999906464345,-19.999998960714944L17.99999906464345,19.999998960714944Z" fill="rgb(68, 255, 68)" stroke="rgb(0, 0, 0)"/><text class="label" x="0" y="-27" text-anchor="middle"/><text class="payoff computed" dy="0.75em" x="0" y="27" text-anchor="middle"><tspan x="0"/></text><text class="aggregated-payoff" x="27" y="-6"><tspan x="27" class="negative" fill="rgb(182, 0, 0)">-$1,750,000</tspan></text><text class="probability-to-enter" dy="0.75em" x="27" y="6" fill="rgb(0, 0, 215)">0.00</text></g><g id="node-d996b1b8-17c0-1c5e-e3fd-1b90afbc9478" class="terminal-node node" transform="translate(470, 1160)"><path d="M-19.999998960714944,0L17.99999906464345,-19.999998960714944L17.99999906464345,19.999998960714944Z" fill="rgb(68, 255, 68)" stroke="rgb(0, 0, 0)"/><text class="label" x="0" y="-27" text-anchor="middle"/><text class="payoff computed" dy="0.75em" x="0" y="27" text-anchor="middle"><tspan x="0"/></text><text class="aggregated-payoff" x="27" y="-6"><tspan x="27" class="negative" fill="rgb(182, 0, 0)">-$2,250,000</tspan></text><text class="probability-to-enter" dy="0.75em" x="27" y="6" fill="rgb(0, 0, 215)">0.00</text></g><g id="node-c21a9d3a-85f4-8a11-5bdd-2686ef45edba" class="decision-node node optimal" transform="translate(320, 1415)"><path d="M-20,-20h40v40h-40Z" fill="rgb(255, 119, 119)" stroke="rgb(0, 111, 0)" stroke-width="1.5px"/><text class="label" x="0" y="-27" text-anchor="middle"/><text class="payoff computed" dy="0.75em" x="0" y="27" text-anchor="middle"><tspan x="0" class="negative">-$750,000</tspan></text><text class="aggregated-payoff" x="27" y="-6" fill="rgb(0, 111, 0)"><tspan x="27"/></text><text class="probability-to-enter" dy="0.75em" x="27" y="6" fill="rgb(0, 0, 215)"/></g><g id="node-88573bd4-2aa1-ace2-39e7-dbca242ec67e" class="terminal-node node optimal" transform="translate(470, 1340)"><path d="M-19.999998960714944,0L17.99999906464345,-19.999998960714944L17.99999906464345,19.999998960714944Z" fill="rgb(68, 255, 68)" stroke="rgb(0, 111, 0)" stroke-width="1.5px"/><text class="label" x="0" y="-27" text-anchor="middle"/><text class="payoff computed" dy="0.75em" x="0" y="27" text-anchor="middle"><tspan x="0"/></text><text class="aggregated-payoff" x="27" y="-6"><tspan x="27" class="negative" fill="rgb(182, 0, 0)">-$750,000</tspan></text><text class="probability-to-enter" dy="0.75em" x="27" y="6" fill="rgb(0, 0, 215)">0.40</text></g><g id="node-30b9779d-ac2e-8f60-ee94-c23ebf8659d3" class="terminal-node node" transform="translate(470, 1415)"><path d="M-19.999998960714944,0L17.99999906464345,-19.999998960714944L17.99999906464345,19.999998960714944Z" fill="rgb(68, 255, 68)" stroke="rgb(0, 0, 0)"/><text class="label" x="0" y="-27" text-anchor="middle"/><text class="payoff computed" dy="0.75em" x="0" y="27" text-anchor="middle"><tspan x="0"/></text><text class="aggregated-payoff" x="27" y="-6"><tspan x="27" class="negative" fill="rgb(182, 0, 0)">-$1,250,000</tspan></text><text class="probability-to-enter" dy="0.75em" x="27" y="6" fill="rgb(0, 0, 215)">0.00</text></g><g id="node-79d25f84-b146-f1be-1958-eab8a179cf34" class="terminal-node node" transform="translate(470, 1490)"><path d="M-19.999998960714944,0L17.99999906464345,-19.999998960714944L17.99999906464345,19.999998960714944Z" fill="rgb(68, 255, 68)" stroke="rgb(0, 0, 0)"/><text class="label" x="0" y="-27" text-anchor="middle"/><text class="payoff computed" dy="0.75em" x="0" y="27" text-anchor="middle"><tspan x="0"/></text><text class="aggregated-payoff" x="27" y="-6"><tspan x="27" class="negative" fill="rgb(182, 0, 0)">-$1,500,000</tspan></text><text class="probability-to-enter" dy="0.75em" x="27" y="6" fill="rgb(0, 0, 215)">0.00</text></g><g id="node-e929dac7-8ba5-c9e0-afc5-be435adc08b5" class="chance-node node" transform="translate(320, 1085)"><path d="M-19.999998960714944,0C-19.999998960714944,-11.045694422638713,-11.045694422638713,-19.999998960714944,0,-19.999998960714944C11.045694422638713,-19.999998960714944,19.999998960714944,-11.045694422638713,19.999998960714944,0C19.999998960714944,11.045694422638713,11.045694422638713,19.999998960714944,0,19.999998960714944C-11.045694422638713,19.999998960714944,-19.999998960714944,11.045694422638713,-19.999998960714944,0" fill="rgb(255, 255, 68)" stroke="rgb(102, 102, 0)"/><text class="label" x="0" y="-27" text-anchor="middle"/><text class="payoff computed" dy="0.75em" x="0" y="27" text-anchor="middle"><tspan x="0" class="negative">-$583,333.33</tspan></text><text class="aggregated-payoff" x="27" y="-6" fill="rgb(0, 111, 0)"><tspan x="27"/></text><text class="probability-to-enter" dy="0.75em" x="27" y="6" fill="rgb(0, 0, 215)"/></g></g><g class="edges"><g id="edge-81947495-dac4-5789-fb0d-c1fb2a7ba114" class="edge"><path d="M41,455.00000000000006L50,455.00000000000006L70,507.50000000000006L142,507.50000000000006" fill="none" marker-end="url(#arrow)" stroke="rgb(66, 66, 66)" stroke-width="1.5px"/><g class="label-group" transform="translate(72,500.50000000000006)"><text class="label"><tspan x="0">KEC 250,000</tspan></text></g><text class="payoff" dy="0.75em" x="72" y="514.5"><tspan x="72">-$750,000</tspan></text><text class="probability" text-anchor="end" dy="0.75em" x="160.33984375" y="514.5" fill="rgb(0, 0, 215)">0.00</text></g><g id="edge-66ef80ee-2195-91e3-b60f-bb45d656e93b" class="edge"><path d="M191,507.50000000000006L200,507.50000000000006L220,425.0000000000001L292,425.0000000000001" fill="none" marker-end="url(#arrow)" stroke="rgb(66, 66, 66)" stroke-width="1.5px"/><g class="label-group" transform="translate(222,418.0000000000001)"><text class="label"/></g><text class="payoff" dy="0.75em" x="222" y="432.0000000000001"><tspan x="222">-$500,000</tspan></text><text class="probability" text-anchor="end" dy="0.75em" x="310.33984375" y="432.0000000000001" fill="rgb(0, 0, 215)">0.60</text></g><g id="edge-87220493-3a83-b952-01b3-997e16ceffa6" class="edge"><path d="M341,425.0000000000001L350,425.0000000000001L370,350L442,350" fill="none" marker-end="url(#arrow)" stroke="rgb(66, 66, 66)" stroke-width="1.5px"/><g class="label-group" transform="translate(372,343)"><text class="label"><tspan x="0">50%</tspan></text></g><text class="payoff" dy="0.75em" x="372" y="357"><tspan x="372">-$250,000</tspan></text><text class="probability" text-anchor="end" dy="0.75em" x="467.376953125" y="357" fill="rgb(0, 0, 215)">0.333</text></g><g id="edge-9f55235c-8949-62dd-f80e-6787bcdd4bb1" class="edge"><path d="M341,425.0000000000001L350,425.0000000000001L370,425L442,425" fill="none" marker-end="url(#arrow)" stroke="rgb(66, 66, 66)" stroke-width="1.5px"/><g class="label-group" transform="translate(372,418)"><text class="label"><tspan x="0">100%</tspan></text></g><text class="payoff" dy="0.75em" x="372" y="432"><tspan x="372">-$500,000</tspan></text><text class="probability" text-anchor="end" dy="0.75em" x="467.376953125" y="432" fill="rgb(0, 0, 215)">0.333</text></g><g id="edge-40895110-ef8f-5855-f175-421c0e8fa95b" class="edge"><path d="M341,425.0000000000001L350,425.0000000000001L370,500L442,500" fill="none" marker-end="url(#arrow)" stroke="rgb(66, 66, 66)" stroke-width="1.5px"/><g class="label-group" transform="translate(372,493)"><text class="label"><tspan x="0">200%</tspan></text></g><text class="payoff" dy="0.75em" x="372" y="507"><tspan x="372">-$1,000,000</tspan></text><text class="probability" text-anchor="end" dy="0.75em" x="477.302734375" y="507" fill="rgb(0, 0, 215)">0.333</text></g><g id="edge-1167a632-d349-3f18-1308-826e3a60c222" class="edge"><path d="M191,507.50000000000006L200,507.50000000000006L220,590L442,590" fill="none" marker-end="url(#arrow)" stroke="rgb(66, 66, 66)" stroke-width="1.5px"/><g class="label-group" transform="translate(222,583)"><text class="label"/></g><text class="payoff" dy="0.75em" x="222" y="597"><tspan x="222">-$500,000</tspan></text><text class="probability" text-anchor="end" dy="0.75em" x="434" y="597" fill="rgb(0, 0, 215)">0.40</text></g><g id="edge-bf2696a3-4fbe-d86f-0c79-5fea4e2377e0" class="edge"><path d="M41,455.00000000000006L50,455.00000000000006L70,680L442,680" fill="none" marker-end="url(#arrow)" stroke="rgb(66, 66, 66)" stroke-width="1.5px"/><g class="label-group" transform="translate(72,673)"><text class="label"><tspan x="0">AM</tspan></text></g><text class="payoff" dy="0.75em" x="72" y="687"><tspan x="72">-$1,500,000</tspan></text><text class="probability" text-anchor="end" dy="0.75em" x="434" y="687" fill="rgb(0, 0, 215)">0.00</text></g><g id="edge-8648d56b-76b4-efb3-b628-2f60bc28d656" class="edge"><path d="M191,1060L200,1060L220,845L292,845" fill="none" marker-end="url(#arrow)" stroke="rgb(66, 66, 66)" stroke-width="1.5px"/><g class="label-group" transform="translate(222,838)"><text class="label"><tspan x="0">KEC 500,000</tspan></text></g><text class="payoff" dy="0.75em" x="222" y="852"><tspan x="222">-$750,000</tspan></text><text class="probability" text-anchor="end" dy="0.75em" x="310.33984375" y="852" fill="rgb(0, 0, 215)">0.00</text></g><g id="edge-64a415c4-9f7b-da85-882f-389ea34b0c45" class="edge"><path d="M341,845L350,845L370,770L442,770" fill="none" marker-end="url(#arrow)" stroke="rgb(66, 66, 66)" stroke-width="1.5px"/><g class="label-group" transform="translate(372,763)"><text class="label"><tspan x="0">50%</tspan></text></g><text class="payoff" dy="0.75em" x="372" y="777"><tspan x="372">-$375,000</tspan></text><text class="probability" text-anchor="end" dy="0.75em" x="467.376953125" y="777" fill="rgb(0, 0, 215)">0.333</text></g><g id="edge-d63948e1-510c-7378-d6ec-14fd8096b20f" class="edge"><path d="M341,845L350,845L370,845L442,845" fill="none" marker-end="url(#arrow)" stroke="rgb(66, 66, 66)" stroke-width="1.5px"/><g class="label-group" transform="translate(372,838)"><text class="label"><tspan x="0">100%</tspan></text></g><text class="payoff" dy="0.75em" x="372" y="852"><tspan x="372">-$750,000</tspan></text><text class="probability" text-anchor="end" dy="0.75em" x="467.376953125" y="852" fill="rgb(0, 0, 215)">0.333</text></g><g id="edge-af0376f1-ab0c-2484-395a-1530b13e22e6" class="edge"><path d="M341,845L350,845L370,920L442,920" fill="none" marker-end="url(#arrow)" stroke="rgb(66, 66, 66)" stroke-width="1.5px"/><g class="label-group" transform="translate(372,913)"><text class="label"><tspan x="0">200%</tspan></text></g><text class="payoff" dy="0.75em" x="372" y="927"><tspan x="372">-$1,500,000</tspan></text><text class="probability" text-anchor="end" dy="0.75em" x="477.302734375" y="927" fill="rgb(0, 0, 215)">0.333</text></g><g id="edge-6d933023-0599-ec72-ee0a-114c89687da5" class="edge"><path d="M341,1415L350,1415L370,1490L442,1490" fill="none" marker-end="url(#arrow)" stroke="rgb(66, 66, 66)" stroke-width="1.5px"/><g class="label-group" transform="translate(372,1483)"><text class="label"><tspan x="0">AM</tspan></text></g><text class="payoff" dy="0.75em" x="372" y="1497"><tspan x="372">-$1,500,000</tspan></text><text class="probability" text-anchor="end" dy="0.75em" x="470.265625" y="1497" fill="rgb(0, 0, 215)">0.00</text></g><g id="edge-6fe1029d-86bb-c635-972b-5f2de4ed3e21" class="edge"><path d="M341,1415L350,1415L370,1415L442,1415" fill="none" marker-end="url(#arrow)" stroke="rgb(66, 66, 66)" stroke-width="1.5px"/><g class="label-group" transform="translate(372,1408)"><text class="label"><tspan x="0">KEC 250,000</tspan></text></g><text class="payoff" dy="0.75em" x="372" y="1422"><tspan x="372">-$1,250,000</tspan></text><text class="probability" text-anchor="end" dy="0.75em" x="470.265625" y="1422" fill="rgb(0, 0, 215)">0.00</text></g><g id="edge-4b14f440-7e0c-7ec8-7aaf-6a76acdb06f6" class="edge"><path d="M191,1060L200,1060L220,1085L292,1085" fill="none" marker-end="url(#arrow)" stroke="rgb(66, 66, 66)" stroke-width="1.5px"/><g class="label-group" transform="translate(222,1078)"><text class="label"><tspan x="0">KEC 250,000</tspan></text></g><text class="payoff" dy="0.75em" x="222" y="1092"><tspan x="222">-$1,250,000</tspan></text><text class="probability" text-anchor="end" dy="0.75em" x="320.265625" y="1092" fill="rgb(0, 0, 215)">0.00</text></g><g id="edge-75b7d4ba-73f7-09ef-c54f-48de9450fc5c" class="edge"><path d="M341,1085L350,1085L370,1010L442,1010" fill="none" marker-end="url(#arrow)" stroke="rgb(66, 66, 66)" stroke-width="1.5px"/><g class="label-group" transform="translate(372,1003)"><text class="label"><tspan x="0">50%</tspan></text></g><text class="payoff" dy="0.75em" x="372" y="1017"><tspan x="372">-$250,000</tspan></text><text class="probability" text-anchor="end" dy="0.75em" x="467.376953125" y="1017" fill="rgb(0, 0, 215)">0.333</text></g><g id="edge-4ce6b346-763b-9936-a2c3-b065ded0d3bc" class="edge"><path d="M341,1085L350,1085L370,1085L442,1085" fill="none" marker-end="url(#arrow)" stroke="rgb(66, 66, 66)" stroke-width="1.5px"/><g class="label-group" transform="translate(372,1078)"><text class="label"><tspan x="0">100%</tspan></text></g><text class="payoff" dy="0.75em" x="372" y="1092"><tspan x="372">-$500,000</tspan></text><text class="probability" text-anchor="end" dy="0.75em" x="467.376953125" y="1092" fill="rgb(0, 0, 215)">0.333</text></g><g id="edge-88463738-2470-76f0-8f88-8fc2d0c825ab" class="edge"><path d="M341,1085L350,1085L370,1160L442,1160" fill="none" marker-end="url(#arrow)" stroke="rgb(66, 66, 66)" stroke-width="1.5px"/><g class="label-group" transform="translate(372,1153)"><text class="label"><tspan x="0">200%</tspan></text></g><text class="payoff" dy="0.75em" x="372" y="1167"><tspan x="372">-$1,000,000</tspan></text><text class="probability" text-anchor="end" dy="0.75em" x="477.302734375" y="1167" fill="rgb(0, 0, 215)">0.333</text></g><g id="edge-7c1adff5-32fa-fcc1-58ce-fed906a36ade" class="edge optimal"><path d="M191,1060L200,1060L220,1250L442,1250" fill="none" marker-end="url(#arrow-optimal)" stroke="rgb(0, 111, 0)" stroke-width="2.4px"/><g class="label-group" transform="translate(222,1243)"><text class="label"><tspan x="0">AM</tspan></text></g><text class="payoff" dy="0.75em" x="222" y="1257"><tspan x="222">-$1,500,000</tspan></text><text class="probability" text-anchor="end" dy="0.75em" x="434" y="1257" fill="rgb(0, 0, 215)">1.00</text></g><g id="edge-2b34ead0-b0ef-7391-02f1-6d66ee4ee26e" class="edge optimal"><path d="M341,1415L350,1415L370,1340L442,1340" fill="none" marker-end="url(#arrow-optimal)" stroke="rgb(0, 111, 0)" stroke-width="2.4px"/><g class="label-group" transform="translate(372,1333)"><text class="label"><tspan x="0">KEC 500,000</tspan></text></g><text class="payoff" dy="0.75em" x="372" y="1347"><tspan x="372">-$750,000</tspan></text><text class="probability" text-anchor="end" dy="0.75em" x="460.33984375" y="1347" fill="rgb(0, 0, 215)">1.00</text></g><g id="edge-e7d287d2-05a5-a684-bd18-926260d92f2d" class="edge optimal"><path d="M41,1237.5L50,1237.5L70,1060L142,1060" fill="none" marker-end="url(#arrow-optimal)" stroke="rgb(0, 111, 0)" stroke-width="2.4px"/><g class="label-group" transform="translate(72,1053)"><text class="label"><tspan x="0">tax</tspan></text></g><text class="payoff" dy="0.75em" x="72" y="1067"><tspan x="72">$0</tspan></text><text class="probability" text-anchor="end" dy="0.75em" x="134" y="1067" fill="rgb(0, 0, 215)">0.60</text></g><g id="edge-61d143db-a98d-0370-e9da-0bf56cfefe18" class="edge optimal"><path d="M41,1237.5L50,1237.5L70,1415L292,1415" fill="none" marker-end="url(#arrow-optimal)" stroke="rgb(0, 111, 0)" stroke-width="2.4px"/><g class="label-group" transform="translate(72,1408)"><text class="label"/></g><text class="payoff" dy="0.75em" x="72" y="1422"><tspan x="72">$0</tspan></text><text class="probability" text-anchor="end" dy="0.75em" x="284" y="1422" fill="rgb(0, 0, 215)">0.40</text></g><g id="edge-c5981831-6aff-db4a-24b1-562250ee2426" class="edge optimal"><path d="M41,455.00000000000006L50,455.00000000000006L70,177.5L142,177.5" fill="none" marker-end="url(#arrow-optimal)" stroke="rgb(0, 111, 0)" stroke-width="2.4px"/><g class="label-group" transform="translate(72,170.5)"><text class="label"><tspan x="0"/><tspan dy="-1.1em" x="0">KEC 500,000</tspan></text></g><text class="payoff" dy="0.75em" x="72" y="184.5"><tspan x="72">$0</tspan></text><text class="probability" text-anchor="end" dy="0.75em" x="134" y="184.5" fill="rgb(0, 0, 215)">1.00</text></g><g id="edge-a4afce97-a2e8-8f8a-9a42-94eb27f1e01a" class="edge optimal"><path d="M191,177.5L200,177.5L220,95L292,95" fill="none" marker-end="url(#arrow-optimal)" stroke="rgb(0, 111, 0)" stroke-width="2.4px"/><g class="label-group" transform="translate(222,88)"><text class="label"><tspan x="0">tax</tspan></text></g><text class="payoff" dy="0.75em" x="222" y="102"><tspan x="222">-$750,000</tspan></text><text class="probability" text-anchor="end" dy="0.75em" x="310.33984375" y="102" fill="rgb(0, 0, 215)">0.60</text></g><g id="edge-64ebdcbd-2147-5f0f-ee6c-01279e02cb52" class="edge optimal"><path d="M341,95L350,95L370,20L442,20" fill="none" marker-end="url(#arrow-optimal)" stroke="rgb(0, 111, 0)" stroke-width="2.4px"/><g class="label-group" transform="translate(372,13)"><text class="label"><tspan x="0">50%</tspan></text></g><text class="payoff" dy="0.75em" x="372" y="27"><tspan x="372">-$375,000</tspan></text><text class="probability" text-anchor="end" dy="0.75em" x="467.376953125" y="27" fill="rgb(0, 0, 215)">0.333</text></g><g id="edge-b6286355-93c4-7e52-d84f-f5f9381f7323" class="edge optimal"><path d="M341,95L350,95L370,95L442,95" fill="none" marker-end="url(#arrow-optimal)" stroke="rgb(0, 111, 0)" stroke-width="2.4px"/><g class="label-group" transform="translate(372,88)"><text class="label"><tspan x="0">100%</tspan></text></g><text class="payoff" dy="0.75em" x="372" y="102"><tspan x="372">-$750,000</tspan></text><text class="probability" text-anchor="end" dy="0.75em" x="467.376953125" y="102" fill="rgb(0, 0, 215)">0.333</text></g><g id="edge-6c126e1d-0b56-546a-2ffe-d0202f99e8af" class="edge optimal"><path d="M341,95L350,95L370,170L442,170" fill="none" marker-end="url(#arrow-optimal)" stroke="rgb(0, 111, 0)" stroke-width="2.4px"/><g class="label-group" transform="translate(372,163)"><text class="label"><tspan x="0">200%</tspan></text></g><text class="payoff" dy="0.75em" x="372" y="177"><tspan x="372">-$1,500,000</tspan></text><text class="probability" text-anchor="end" dy="0.75em" x="477.302734375" y="177" fill="rgb(0, 0, 215)">0.333</text></g><g id="edge-bd631e26-a7bb-87eb-267a-9e5f94be30fc" class="edge optimal"><path d="M191,177.5L200,177.5L220,260L442,260" fill="none" marker-end="url(#arrow-optimal)" stroke="rgb(0, 111, 0)" stroke-width="2.4px"/><g class="label-group" transform="translate(222,253)"><text class="label"/></g><text class="payoff" dy="0.75em" x="222" y="267"><tspan x="222">-$750,000</tspan></text><text class="probability" text-anchor="end" dy="0.75em" x="434" y="267" fill="rgb(0, 0, 215)">0.40</text></g></g><g class="floating-texts"/></g></g><defs><marker id="arrow" viewBox="0 -5 10 10" refX="5" refY="0" markerWidth="4" markerHeight="4" orient="auto"><path d="M0,-5L10,0L0,5" class="arrowHead" fill="rgb(66, 66, 66)"/></marker><marker id="arrow-optimal" viewBox="0 -5 10 10" refX="5" refY="0" markerWidth="4" markerHeight="4" orient="auto"><path d="M0,-5L10,0L0,5" class="arrowHead" fill="rgb(0, 111, 0)"/></marker><marker id="arrow-selected" viewBox="0 -5 10 10" refX="5" refY="0" markerWidth="4" markerHeight="4" orient="auto"><path d="M0,-5L10,0L0,5" class="arrowHead" fill="rgb(4, 90, 209)"/></marker></defs><g class="sd-title-container" transform="translate(374,15)"><text class="sd-title" dy="0.75em" text-anchor="middle" style="; font-size: 16px; font-weight: 700"/><text class="sd-description" dy="0.75em" transform="translate(0,0)" text-anchor="middle" style="; font-weight: 700"/></g></svg>