<svg xmlns:xlink="http://www.w3.org/1999/xlink" xmlns="http://www.w3.org/2000/svg" class="sd-tree-designer" width="748" height="990" style="; color: rgb(0, 0, 0); font-family: sans-serif; font-kerning: auto; font-size: 12px; font-stretch: 100%; font-style: normal; font-variant: normal; font-variant-ligatures: normal; font-variant-caps: normal; font-variant-numeric: normal; font-variant-east-asian: normal; font-weight: 400; opacity: 1; color-interpolation: srgb; color-interpolation-filters: linearrgb; color-rendering: auto" text-align="start" text-align-last="auto" text-decoration="none solid rgb(0, 0, 0)" text-decoration-line="none" text-decoration-style="solid" text-decoration-color="rgb(0, 0, 0)" text-decoration-skip-ink="auto" text-underline-position="auto" text-indent="0px" text-rendering="auto" text-shadow="none" text-size-adjust="auto" text-overflow="clip" text-transform="none" fill="rgb(0, 0, 0)" fill-opacity="1" fill-rule="nonzero" stroke="none" stroke-dasharray="none" stroke-dashoffset="0px" stroke-linecap="butt" stroke-linejoin="miter" stroke-miterlimit="4" stroke-opacity="1" stroke-width="1px" text-anchor="start" xlink="http://www.w3.org/1999/xlink"><g class="sd-wrapper-group" transform="scale(1)"><g class="brush" fill="none" pointer-events="all"><rect class="overlay" pointer-events="all" cursor="crosshair" x="0" y="0" width="748" height="990"/></g><g class="main-group" transform="translate(25,25)"><g class="nodes"><g id="node-31806a0c-7472-89f1-9690-307cc64e1950" class="decision-node node optimal" transform="translate(20, 545)"><path d="M-20,-20h40v40h-40Z" fill="rgb(255, 119, 119)" stroke="rgb(0, 111, 0)" stroke-width="1.5px"/><text class="label" x="0" y="-27" text-anchor="middle"/><text class="payoff computed" dy="0.75em" x="0" y="27" text-anchor="middle"><tspan x="0">$650</tspan></text><text class="aggregated-payoff" x="27" y="-6" fill="rgb(0, 111, 0)"><tspan x="27"/></text><text class="probability-to-enter" dy="0.75em" x="27" y="6" fill="rgb(0, 0, 215)"/></g><g id="node-c0d52bed-ef66-ed13-346f-e324e4cfa9e9" class="terminal-node node" transform="translate(575, 920)"><path d="M-19.999998960714944,0L17.99999906464345,-19.999998960714944L17.99999906464345,19.999998960714944Z" fill="rgb(68, 255, 68)" stroke="rgb(0, 0, 0)"/><text class="label" x="0" y="-27" text-anchor="middle"/><text class="payoff computed" dy="0.75em" x="0" y="27" text-anchor="middle"><tspan x="0"/></text><text class="aggregated-payoff" x="27" y="-6"><tspan x="27">$0</tspan></text><text class="probability-to-enter" dy="0.75em" x="27" y="6" fill="rgb(0, 0, 215)">0.00</text></g><g id="node-03b1fc3e-cd63-c89b-6f2d-15a36e5a6f1d" class="terminal-node node" transform="translate(575, 20)"><path d="M-19.999998960714944,0L17.99999906464345,-19.999998960714944L17.99999906464345,19.999998960714944Z" fill="rgb(68, 255, 68)" stroke="rgb(0, 0, 0)"/><text class="label" x="0" y="-27" text-anchor="middle"/><text class="payoff computed" dy="0.75em" x="0" y="27" text-anchor="middle"><tspan x="0"/></text><text class="aggregated-payoff" x="27" y="-6"><tspan x="27">$1,000</tspan></text><text class="probability-to-enter" dy="0.75em" x="27" y="6" fill="rgb(0, 0, 215)">0.00</text></g><g id="node-11784122-707e-1f06-a848-b410d6b0d305" class="terminal-node node" transform="translate(575, 95)"><path d="M-19.999998960714944,0L17.99999906464345,-19.999998960714944L17.99999906464345,19.999998960714944Z" fill="rgb(68, 255, 68)" stroke="rgb(0, 0, 0)"/><text class="label" x="0" y="-27" text-anchor="middle"/><text class="payoff computed" dy="0.75em" x="0" y="27" text-anchor="middle"><tspan x="0"/></text><text class="aggregated-payoff" x="27" y="-6"><tspan x="27" class="negative" fill="rgb(182, 0, 0)">-$1,000</tspan></text><text class="probability-to-enter" dy="0.75em" x="27" y="6" fill="rgb(0, 0, 215)">0.00</text></g><g id="node-bdda6207-fed0-38b6-ebe6-c2f964973972" class="chance-node node" transform="translate(390, 95)"><path d="M-19.999998960714944,0C-19.999998960714944,-11.045694422638713,-11.045694422638713,-19.999998960714944,0,-19.999998960714944C11.045694422638713,-19.999998960714944,19.999998960714944,-11.045694422638713,19.999998960714944,0C19.999998960714944,11.045694422638713,11.045694422638713,19.999998960714944,0,19.999998960714944C-11.045694422638713,19.999998960714944,-19.999998960714944,11.045694422638713,-19.999998960714944,0" fill="rgb(255, 255, 68)" stroke="rgb(102, 102, 0)"/><text class="label" x="0" y="-27" text-anchor="middle"/><text class="payoff computed" dy="0.75em" x="0" y="27" text-anchor="middle"><tspan x="0" class="negative">-$1,000</tspan></text><text class="aggregated-payoff" x="27" y="-6" fill="rgb(0, 111, 0)"><tspan x="27"/></text><text class="probability-to-enter" dy="0.75em" x="27" y="6" fill="rgb(0, 0, 215)"/></g><g id="node-2ea13417-d59e-2e1c-a1f9-3e77f99733c1" class="terminal-node node" transform="translate(575, 170)"><path d="M-19.999998960714944,0L17.99999906464345,-19.999998960714944L17.99999906464345,19.999998960714944Z" fill="rgb(68, 255, 68)" stroke="rgb(0, 0, 0)"/><text class="label" x="0" y="-27" text-anchor="middle"/><text class="payoff computed" dy="0.75em" x="0" y="27" text-anchor="middle"><tspan x="0"/></text><text class="aggregated-payoff" x="27" y="-6"><tspan x="27" class="negative" fill="rgb(182, 0, 0)">-$3,000</tspan></text><text class="probability-to-enter" dy="0.75em" x="27" y="6" fill="rgb(0, 0, 215)">0.00</text></g><g id="node-161e3ada-2587-c612-b595-62a0ad5e45aa" class="terminal-node node optimal" transform="translate(575, 500)"><path d="M-19.999998960714944,0L17.99999906464345,-19.999998960714944L17.99999906464345,19.999998960714944Z" fill="rgb(68, 255, 68)" stroke="rgb(0, 111, 0)" stroke-width="1.5px"/><text class="label" x="0" y="-27" text-anchor="middle"/><text class="payoff computed" dy="0.75em" x="0" y="27" text-anchor="middle"><tspan x="0"/></text><text class="aggregated-payoff" x="27" y="-6"><tspan x="27">$0</tspan></text><text class="probability-to-enter" dy="0.75em" x="27" y="6" fill="rgb(0, 0, 215)">0.35</text></g><g id="node-d6a803a8-aacf-0687-ed9b-0e17037a00dc" class="chance-node node optimal" transform="translate(390, 335)"><path d="M-19.999998960714944,0C-19.999998960714944,-11.045694422638713,-11.045694422638713,-19.999998960714944,0,-19.999998960714944C11.045694422638713,-19.999998960714944,19.999998960714944,-11.045694422638713,19.999998960714944,0C19.999998960714944,11.045694422638713,11.045694422638713,19.999998960714944,0,19.999998960714944C-11.045694422638713,19.999998960714944,-19.999998960714944,11.045694422638713,-19.999998960714944,0" fill="rgb(255, 255, 68)" stroke="rgb(0, 111, 0)" stroke-width="1.5px"/><text class="label" x="0" y="-27" text-anchor="middle"/><text class="payoff computed" dy="0.75em" x="0" y="27" text-anchor="middle"><tspan x="0">$1,000</tspan></text><text class="aggregated-payoff" x="27" y="-6" fill="rgb(0, 111, 0)"><tspan x="27"/></text><text class="probability-to-enter" dy="0.75em" x="27" y="6" fill="rgb(0, 0, 215)"/></g><g id="node-af863b6e-68bc-6a0c-accc-4696c32f5767" class="terminal-node node optimal" transform="translate(575, 260)"><path d="M-19.999998960714944,0L17.99999906464345,-19.999998960714944L17.99999906464345,19.999998960714944Z" fill="rgb(68, 255, 68)" stroke="rgb(0, 111, 0)" stroke-width="1.5px"/><text class="label" x="0" y="-27" text-anchor="middle"/><text class="payoff computed" dy="0.75em" x="0" y="27" text-anchor="middle"><tspan x="0"/></text><text class="aggregated-payoff" x="27" y="-6"><tspan x="27">$3,000</tspan></text><text class="probability-to-enter" dy="0.75em" x="27" y="6" fill="rgb(0, 0, 215)">0.163</text></g><g id="node-3a7813f6-7fed-58ee-699b-2562c3807c5c" class="terminal-node node optimal" transform="translate(575, 335)"><path d="M-19.999998960714944,0L17.99999906464345,-19.999998960714944L17.99999906464345,19.999998960714944Z" fill="rgb(68, 255, 68)" stroke="rgb(0, 111, 0)" stroke-width="1.5px"/><text class="label" x="0" y="-27" text-anchor="middle"/><text class="payoff computed" dy="0.75em" x="0" y="27" text-anchor="middle"><tspan x="0"/></text><text class="aggregated-payoff" x="27" y="-6"><tspan x="27">$1,000</tspan></text><text class="probability-to-enter" dy="0.75em" x="27" y="6" fill="rgb(0, 0, 215)">0.325</text></g><g id="node-213876f6-dd6e-ce9f-a108-ff1e5644ca9e" class="terminal-node node optimal" transform="translate(575, 410)"><path d="M-19.999998960714944,0L17.99999906464345,-19.999998960714944L17.99999906464345,19.999998960714944Z" fill="rgb(68, 255, 68)" stroke="rgb(0, 111, 0)" stroke-width="1.5px"/><text class="label" x="0" y="-27" text-anchor="middle"/><text class="payoff computed" dy="0.75em" x="0" y="27" text-anchor="middle"><tspan x="0"/></text><text class="aggregated-payoff" x="27" y="-6"><tspan x="27" class="negative" fill="rgb(182, 0, 0)">-$1,000</tspan></text><text class="probability-to-enter" dy="0.75em" x="27" y="6" fill="rgb(0, 0, 215)">0.163</text></g><g id="node-53acc70c-0d10-a3f3-7a9b-ab4ed7498105" class="chance-node node optimal" transform="translate(205, 417.5)"><path d="M-19.999998960714944,0C-19.999998960714944,-11.045694422638713,-11.045694422638713,-19.999998960714944,0,-19.999998960714944C11.045694422638713,-19.999998960714944,19.999998960714944,-11.045694422638713,19.999998960714944,0C19.999998960714944,11.045694422638713,11.045694422638713,19.999998960714944,0,19.999998960714944C-11.045694422638713,19.999998960714944,-19.999998960714944,11.045694422638713,-19.999998960714944,0" fill="rgb(255, 255, 68)" stroke="rgb(0, 111, 0)" stroke-width="1.5px"/><text class="label" x="0" y="-27" text-anchor="middle"/><text class="payoff computed" dy="0.75em" x="0" y="27" text-anchor="middle"><tspan x="0">$650</tspan></text><text class="aggregated-payoff" x="27" y="-6" fill="rgb(0, 111, 0)"><tspan x="27"/></text><text class="probability-to-enter" dy="0.75em" x="27" y="6" fill="rgb(0, 0, 215)"/></g><g id="node-2b4c04f9-dee0-25bb-d584-76b37f7ed815" class="chance-node node" transform="translate(390, 665)"><path d="M-19.999998960714944,0C-19.999998960714944,-11.045694422638713,-11.045694422638713,-19.999998960714944,0,-19.999998960714944C11.045694422638713,-19.999998960714944,19.999998960714944,-11.045694422638713,19.999998960714944,0C19.999998960714944,11.045694422638713,11.045694422638713,19.999998960714944,0,19.999998960714944C-11.045694422638713,19.999998960714944,-19.999998960714944,11.045694422638713,-19.999998960714944,0" fill="rgb(255, 255, 68)" stroke="rgb(102, 102, 0)"/><text class="label" x="0" y="-27" text-anchor="middle"/><text class="payoff computed" dy="0.75em" x="0" y="27" text-anchor="middle"><tspan x="0">$3,000</tspan></text><text class="aggregated-payoff" x="27" y="-6" fill="rgb(0, 111, 0)"><tspan x="27"/></text><text class="probability-to-enter" dy="0.75em" x="27" y="6" fill="rgb(0, 0, 215)"/></g><g id="node-6abe8448-badb-fc4a-07f7-8faa9dd28c59" class="terminal-node node" transform="translate(575, 590)"><path d="M-19.999998960714944,0L17.99999906464345,-19.999998960714944L17.99999906464345,19.999998960714944Z" fill="rgb(68, 255, 68)" stroke="rgb(0, 0, 0)"/><text class="label" x="0" y="-27" text-anchor="middle"/><text class="payoff computed" dy="0.75em" x="0" y="27" text-anchor="middle"><tspan x="0"/></text><text class="aggregated-payoff" x="27" y="-6"><tspan x="27">$5,000</tspan></text><text class="probability-to-enter" dy="0.75em" x="27" y="6" fill="rgb(0, 0, 215)">0.00</text></g><g id="node-debeb3bb-69b9-11d8-58cb-63ddcf958f2e" class="terminal-node node" transform="translate(575, 665)"><path d="M-19.999998960714944,0L17.99999906464345,-19.999998960714944L17.99999906464345,19.999998960714944Z" fill="rgb(68, 255, 68)" stroke="rgb(0, 0, 0)"/><text class="label" x="0" y="-27" text-anchor="middle"/><text class="payoff computed" dy="0.75em" x="0" y="27" text-anchor="middle"><tspan x="0"/></text><text class="aggregated-payoff" x="27" y="-6"><tspan x="27">$3,000</tspan></text><text class="probability-to-enter" dy="0.75em" x="27" y="6" fill="rgb(0, 0, 215)">0.00</text></g><g id="node-49e958f9-2817-e2c9-b256-9d97dbdb4487" class="terminal-node node" transform="translate(575, 740)"><path d="M-19.999998960714944,0L17.99999906464345,-19.999998960714944L17.99999906464345,19.999998960714944Z" fill="rgb(68, 255, 68)" stroke="rgb(0, 0, 0)"/><text class="label" x="0" y="-27" text-anchor="middle"/><text class="payoff computed" dy="0.75em" x="0" y="27" text-anchor="middle"><tspan x="0"/></text><text class="aggregated-payoff" x="27" y="-6"><tspan x="27">$1,000</tspan></text><text class="probability-to-enter" dy="0.75em" x="27" y="6" fill="rgb(0, 0, 215)">0.00</text></g><g id="node-36e21db8-d1a3-e64e-0916-750e1c97cc9a" class="terminal-node node" transform="translate(575, 830)"><path d="M-19.999998960714944,0L17.99999906464345,-19.999998960714944L17.99999906464345,19.999998960714944Z" fill="rgb(68, 255, 68)" stroke="rgb(0, 0, 0)"/><text class="label" x="0" y="-27" text-anchor="middle"/><text class="payoff computed" dy="0.75em" x="0" y="27" text-anchor="middle"><tspan x="0"/></text><text class="aggregated-payoff" x="27" y="-6"><tspan x="27">$0</tspan></text><text class="probability-to-enter" dy="0.75em" x="27" y="6" fill="rgb(0, 0, 215)">0.00</text></g><g id="node-ad21d910-4866-0c32-726a-5bb34dc3851e" class="chance-node node" transform="translate(205, 747.5)"><path d="M-19.999998960714944,0C-19.999998960714944,-11.045694422638713,-11.045694422638713,-19.999998960714944,0,-19.999998960714944C11.045694422638713,-19.999998960714944,19.999998960714944,-11.045694422638713,19.999998960714944,0C19.999998960714944,11.045694422638713,11.045694422638713,19.999998960714944,0,19.999998960714944C-11.045694422638713,19.999998960714944,-19.999998960714944,11.045694422638713,-19.999998960714944,0" fill="rgb(255, 255, 68)" stroke="rgb(102, 102, 0)"/><text class="label" x="0" y="-27" text-anchor="middle"/><text class="payoff computed" dy="0.75em" x="0" y="27" text-anchor="middle"><tspan x="0">$450</tspan></text><text class="aggregated-payoff" x="27" y="-6" fill="rgb(0, 111, 0)"><tspan x="27"/></text><text class="probability-to-enter" dy="0.75em" x="27" y="6" fill="rgb(0, 0, 215)"/></g></g><g class="edges"><g id="edge-2de6f869-304f-7024-642a-81926c4e05e1" class="edge"><path d="M41,545L50,545L70,95L362,95" fill="none" marker-end="url(#arrow)" stroke="rgb(66, 66, 66)" stroke-width="1.5px"/><g class="label-group" transform="translate(72,88)"><text class="label"><tspan x="0">bid $3000</tspan></text></g><text class="payoff" dy="0.75em" x="72" y="102"><tspan x="72">$0</tspan></text><text class="probability" text-anchor="end" dy="0.75em" x="354" y="102" fill="rgb(0, 0, 215)">0.00</text></g><g id="edge-5dbade9a-1413-07ab-0ddf-65de32655ccc" class="edge"><path d="M411,95L420,95L440,20L547,20" fill="none" marker-end="url(#arrow)" stroke="rgb(66, 66, 66)" stroke-width="1.5px"/><g class="label-group" transform="translate(442,13)"><text class="label"><tspan x="0">cost of $2000</tspan></text></g><text class="payoff" dy="0.75em" x="442" y="27"><tspan x="442">$1,000</tspan></text><text class="probability" text-anchor="end" dy="0.75em" x="539" y="27" fill="rgb(0, 0, 215)">0.25</text></g><g id="edge-2f056299-344e-c086-2fdc-955e59e06c26" class="edge"><path d="M411,95L420,95L440,95L547,95" fill="none" marker-end="url(#arrow)" stroke="rgb(66, 66, 66)" stroke-width="1.5px"/><g class="label-group" transform="translate(442,88)"><text class="label"><tspan x="0">cost of $4000</tspan></text></g><text class="payoff" dy="0.75em" x="442" y="102"><tspan x="442">-$1,000</tspan></text><text class="probability" text-anchor="end" dy="0.75em" x="539" y="102" fill="rgb(0, 0, 215)">0.50</text></g><g id="edge-a1665c3d-dfd5-1264-526f-d5d6c8523352" class="edge"><path d="M411,95L420,95L440,170L547,170" fill="none" marker-end="url(#arrow)" stroke="rgb(66, 66, 66)" stroke-width="1.5px"/><g class="label-group" transform="translate(442,163)"><text class="label"><tspan x="0">cost of $6000</tspan></text></g><text class="payoff" dy="0.75em" x="442" y="177"><tspan x="442">-$3,000</tspan></text><text class="probability" text-anchor="end" dy="0.75em" x="539" y="177" fill="rgb(0, 0, 215)">0.25</text></g><g id="edge-45866c8e-f4c0-1694-a11a-5db260321d32" class="edge"><path d="M41,545L50,545L70,920L547,920" fill="none" marker-end="url(#arrow)" stroke="rgb(66, 66, 66)" stroke-width="1.5px"/><g class="label-group" transform="translate(72,913)"><text class="label"><tspan x="0">no bid</tspan></text></g><text class="payoff" dy="0.75em" x="72" y="927"><tspan x="72">$0</tspan></text><text class="probability" text-anchor="end" dy="0.75em" x="539" y="927" fill="rgb(0, 0, 215)">0.00</text></g><g id="edge-9ff92d52-68bd-3d1b-53bb-268b7f6ece63" class="edge"><path d="M41,545L50,545L70,747.5000000000001L177,747.5000000000001" fill="none" marker-end="url(#arrow)" stroke="rgb(66, 66, 66)" stroke-width="1.5px"/><g class="label-group" transform="translate(72,740.5000000000001)"><text class="label"><tspan x="0">bid $7000</tspan></text></g><text class="payoff" dy="0.75em" x="72" y="754.5000000000001"><tspan x="72">$0</tspan></text><text class="probability" text-anchor="end" dy="0.75em" x="169" y="754.5000000000001" fill="rgb(0, 0, 215)">0.00</text></g><g id="edge-e5e51334-ac68-b36c-c910-12d0697ad8ac" class="edge"><path d="M226,747.5000000000001L235,747.5000000000001L255,665.0000000000001L362,665.0000000000001" fill="none" marker-end="url(#arrow)" stroke="rgb(66, 66, 66)" stroke-width="1.5px"/><g class="label-group" transform="translate(257,658.0000000000001)"><text class="label"><tspan x="0">win $8000</tspan></text></g><text class="payoff" dy="0.75em" x="257" y="672.0000000000001"><tspan x="257">$0</tspan></text><text class="probability" text-anchor="end" dy="0.75em" x="354" y="672.0000000000001" fill="rgb(0, 0, 215)">0.15</text></g><g id="edge-72954044-b108-b5f3-3678-5e9f1175d9ee" class="edge"><path d="M411,665.0000000000001L420,665.0000000000001L440,590L547,590" fill="none" marker-end="url(#arrow)" stroke="rgb(66, 66, 66)" stroke-width="1.5px"/><g class="label-group" transform="translate(442,583)"><text class="label"><tspan x="0">cost of $2000</tspan></text></g><text class="payoff" dy="0.75em" x="442" y="597"><tspan x="442">$5,000</tspan></text><text class="probability" text-anchor="end" dy="0.75em" x="539" y="597" fill="rgb(0, 0, 215)">0.25</text></g><g id="edge-83c629ef-cd94-b36c-e803-5b4bb6ab2b78" class="edge"><path d="M411,665.0000000000001L420,665.0000000000001L440,665.0000000000001L547,665.0000000000001" fill="none" marker-end="url(#arrow)" stroke="rgb(66, 66, 66)" stroke-width="1.5px"/><g class="label-group" transform="translate(442,658.0000000000001)"><text class="label"><tspan x="0">cost of $4000</tspan></text></g><text class="payoff" dy="0.75em" x="442" y="672.0000000000001"><tspan x="442">$3,000</tspan></text><text class="probability" text-anchor="end" dy="0.75em" x="539" y="672.0000000000001" fill="rgb(0, 0, 215)">0.50</text></g><g id="edge-3581b35e-3480-ed09-d88b-72132835f68b" class="edge"><path d="M411,665.0000000000001L420,665.0000000000001L440,740.0000000000001L547,740.0000000000001" fill="none" marker-end="url(#arrow)" stroke="rgb(66, 66, 66)" stroke-width="1.5px"/><g class="label-group" transform="translate(442,733.0000000000001)"><text class="label"><tspan x="0">cost of $6000</tspan></text></g><text class="payoff" dy="0.75em" x="442" y="747.0000000000001"><tspan x="442">$1,000</tspan></text><text class="probability" text-anchor="end" dy="0.75em" x="539" y="747.0000000000001" fill="rgb(0, 0, 215)">0.25</text></g><g id="edge-9aed870c-5516-8529-6fb8-220cabaf7068" class="edge"><path d="M226,747.5000000000001L235,747.5000000000001L255,830L547,830" fill="none" marker-end="url(#arrow)" stroke="rgb(66, 66, 66)" stroke-width="1.5px"/><g class="label-group" transform="translate(257,823)"><text class="label"><tspan x="0">lose $4000/$6000</tspan></text></g><text class="payoff" dy="0.75em" x="257" y="837"><tspan x="257">$0</tspan></text><text class="probability" text-anchor="end" dy="0.75em" x="539" y="837" fill="rgb(0, 0, 215)">0.85</text></g><g id="edge-6620aabb-b6c3-95bf-2e91-f0d37f696268" class="edge optimal"><path d="M41,545L50,545L70,417.50000000000006L177,417.50000000000006" fill="none" marker-end="url(#arrow-optimal)" stroke="rgb(0, 111, 0)" stroke-width="2.4px"/><g class="label-group" transform="translate(72,410.50000000000006)"><text class="label"><tspan x="0">bid $5000</tspan></text></g><text class="payoff" dy="0.75em" x="72" y="424.50000000000006"><tspan x="72">$0</tspan></text><text class="probability" text-anchor="end" dy="0.75em" x="169" y="424.50000000000006" fill="rgb(0, 0, 215)">1.00</text></g><g id="edge-46ab7a15-b67e-7999-9556-fcbba0ad1daa" class="edge optimal"><path d="M226,417.50000000000006L235,417.50000000000006L255,500L547,500" fill="none" marker-end="url(#arrow-optimal)" stroke="rgb(0, 111, 0)" stroke-width="2.4px"/><g class="label-group" transform="translate(257,493)"><text class="label"><tspan x="0">lose $4000</tspan></text></g><text class="payoff" dy="0.75em" x="257" y="507"><tspan x="257">$0</tspan></text><text class="probability" text-anchor="end" dy="0.75em" x="539" y="507" fill="rgb(0, 0, 215)">0.35</text></g><g id="edge-1f6b9380-e079-e4c2-8e95-545d7aa15c05" class="edge optimal"><path d="M226,417.50000000000006L235,417.50000000000006L255,335L362,335" fill="none" marker-end="url(#arrow-optimal)" stroke="rgb(0, 111, 0)" stroke-width="2.4px"/><g class="label-group" transform="translate(257,328)"><text class="label"><tspan x="0">win $6000/$8000</tspan></text></g><text class="payoff" dy="0.75em" x="257" y="342"><tspan x="257">$0</tspan></text><text class="probability" text-anchor="end" dy="0.75em" x="354" y="342" fill="rgb(0, 0, 215)">0.65</text></g><g id="edge-8f93f0c7-8a77-55a1-74d9-2b291a116f16" class="edge optimal"><path d="M411,335L420,335L440,260L547,260" fill="none" marker-end="url(#arrow-optimal)" stroke="rgb(0, 111, 0)" stroke-width="2.4px"/><g class="label-group" transform="translate(442,253)"><text class="label"><tspan x="0">cost of $2000</tspan></text></g><text class="payoff" dy="0.75em" x="442" y="267"><tspan x="442">$3,000</tspan></text><text class="probability" text-anchor="end" dy="0.75em" x="539" y="267" fill="rgb(0, 0, 215)">0.25</text></g><g id="edge-4515f92f-7b36-3b31-556d-74942bd771eb" class="edge optimal"><path d="M411,335L420,335L440,335L547,335" fill="none" marker-end="url(#arrow-optimal)" stroke="rgb(0, 111, 0)" stroke-width="2.4px"/><g class="label-group" transform="translate(442,328)"><text class="label"><tspan x="0">cost of $4000</tspan></text></g><text class="payoff" dy="0.75em" x="442" y="342"><tspan x="442">$1,000</tspan></text><text class="probability" text-anchor="end" dy="0.75em" x="539" y="342" fill="rgb(0, 0, 215)">0.50</text></g><g id="edge-7d5828b1-4cdb-f5bb-c347-efea22592797" class="edge optimal"><path d="M411,335L420,335L440,410L547,410" fill="none" marker-end="url(#arrow-optimal)" stroke="rgb(0, 111, 0)" stroke-width="2.4px"/><g class="label-group" transform="translate(442,403)"><text class="label"><tspan x="0">cost of $6000</tspan></text></g><text class="payoff" dy="0.75em" x="442" y="417"><tspan x="442">-$1,000</tspan></text><text class="probability" text-anchor="end" dy="0.75em" x="539" y="417" fill="rgb(0, 0, 215)">0.25</text></g></g><g class="floating-texts"/></g></g><defs><marker id="arrow" viewBox="0 -5 10 10" refX="5" refY="0" markerWidth="4" markerHeight="4" orient="auto"><path d="M0,-5L10,0L0,5" class="arrowHead" fill="rgb(66, 66, 66)"/></marker><marker id="arrow-optimal" viewBox="0 -5 10 10" refX="5" refY="0" markerWidth="4" markerHeight="4" orient="auto"><path d="M0,-5L10,0L0,5" class="arrowHead" fill="rgb(0, 111, 0)"/></marker><marker id="arrow-selected" viewBox="0 -5 10 10" refX="5" refY="0" markerWidth="4" markerHeight="4" orient="auto"><path d="M0,-5L10,0L0,5" class="arrowHead" fill="rgb(4, 90, 209)"/></marker></defs><g class="sd-title-container" transform="translate(374,15)"><text class="sd-title" dy="0.75em" text-anchor="middle" style="; font-size: 16px; font-weight: 700"/><text class="sd-description" dy="0.75em" transform="translate(0,0)" text-anchor="middle" style="; font-weight: 700"/></g></svg>