<svg xmlns:xlink="http://www.w3.org/1999/xlink" xmlns="http://www.w3.org/2000/svg" class="sd-tree-designer" width="748" height="1944.0000019073486" style="; color: rgb(0, 0, 0); font-family: sans-serif; font-kerning: auto; font-size: 12px; font-stretch: 100%; font-style: normal; font-variant: normal; font-variant-ligatures: normal; font-variant-caps: normal; font-variant-numeric: normal; font-variant-east-asian: normal; font-weight: 400; opacity: 1; color-interpolation: srgb; color-interpolation-filters: linearrgb; color-rendering: auto" text-align="start" text-align-last="auto" text-decoration="none solid rgb(0, 0, 0)" text-decoration-line="none" text-decoration-style="solid" text-decoration-color="rgb(0, 0, 0)" text-decoration-skip-ink="auto" text-underline-position="auto" text-indent="0px" text-rendering="auto" text-shadow="none" text-size-adjust="auto" text-overflow="clip" text-transform="none" fill="rgb(0, 0, 0)" fill-opacity="1" fill-rule="nonzero" stroke="none" stroke-dasharray="none" stroke-dashoffset="0px" stroke-linecap="butt" stroke-linejoin="miter" stroke-miterlimit="4" stroke-opacity="1" stroke-width="1px" text-anchor="start" xlink="http://www.w3.org/1999/xlink"><g class="sd-wrapper-group" transform="scale(1)"><g class="brush" fill="none" pointer-events="all"><rect class="overlay" pointer-events="all" cursor="crosshair" x="0" y="0" width="748" height="1944.0000019073486"/></g><g class="main-group" transform="translate(25,25)"><g class="nodes"><g id="node-889403a0-020b-c10f-0b73-1d3b150c4b4f" class="decision-node node optimal" transform="translate(20  296)"><path d="M-20,-20h40v40h-40Z" fill="rgb(255, 119, 119)" stroke="rgb(0, 111, 0)" stroke-width="1.5px"/><text class="label" x="0" y="-27" text-anchor="middle"/><text class="payoff computed" dy="0.75em" x="0" y="27" text-anchor="middle"><tspan x="0">$100,000</tspan></text><text class="aggregated-payoff" x="27" y="-6" fill="rgb(0, 111, 0)"><tspan x="27"/></text><text class="probability-to-enter" dy="0.75em" x="27" y="6" fill="rgb(0, 0, 215)"/></g><g id="node-951d8e5f-eb4d-8ed9-c50e-615bc09c3f35" class="chance-node node optimal" transform="translate(380, 65)"><path d="M-19.999998960714944,0C-19.999998960714944,-11.045694422638713,-11.045694422638713,-19.999998960714944,0,-19.999998960714944C11.045694422638713,-19.999998960714944,19.999998960714944,-11.045694422638713,19.999998960714944,0C19.999998960714944,11.045694422638713,11.045694422638713,19.999998960714944,0,19.999998960714944C-11.045694422638713,19.999998960714944,-19.999998960714944,11.045694422638713,-19.999998960714944,0" fill="rgb(255, 255, 68)" stroke="rgb(0, 111, 0)" stroke-width="1.5px"/><text class="label" x="0" y="-27" text-anchor="middle"/><text class="payoff computed" dy="0.75em" x="0" y="27" text-anchor="middle"><tspan x="0">$750,000</tspan></text><text class="aggregated-payoff" x="27" y="-6" fill="rgb(0, 111, 0)"><tspan x="27"/></text><text class="probability-to-enter" dy="0.75em" x="27" y="6" fill="rgb(0, 0, 215)"/></g><g id="node-a61fcaac-57c6-720e-f894-30a15b00996c" class="terminal-node node optimal" transform="translate(560, 20)"><path d="M-19.999998960714944,0L17.99999906464345,-19.999998960714944L17.99999906464345,19.999998960714944Z" fill="rgb(68, 255, 68)" stroke="rgb(0, 111, 0)" stroke-width="1.5px"/><text class="label" x="0" y="-27" text-anchor="middle"/><text class="payoff computed" dy="0.75em" x="0" y="27" text-anchor="middle"><tspan x="0"/></text><text class="aggregated-payoff" x="27" y="-6"><tspan x="27">$350,000</tspan></text><text class="probability-to-enter" dy="0.75em" x="27" y="6" fill="rgb(0, 0, 215)">0.50</text></g><g id="node-9ffac705-3845-8e45-2652-522839371b9a" class="terminal-node node optimal" transform="translate(560, 110)"><path d="M-19.999998960714944,0L17.99999906464345,-19.999998960714944L17.99999906464345,19.999998960714944Z" fill="rgb(68, 255, 68)" stroke="rgb(0, 111, 0)" stroke-width="1.5px"/><text class="label" x="0" y="-27" text-anchor="middle"/><text class="payoff computed" dy="0.75em" x="0" y="27" text-anchor="middle"><tspan x="0"/></text><text class="aggregated-payoff" x="27" y="-6"><tspan class="negative" x="27" fill="rgb(182, 0, 0)">-$150,000</tspan></text><text class="probability-to-enter" dy="0.75em" x="27" y="6" fill="rgb(0, 0, 215)">0.50</text></g><g id="node-64e2bf90-11bc-5f14-9e93-a965326a0a74" class="chance-node node" transform="translate(380, 263)"><path d="M-19.999998960714944,0C-19.999998960714944,-11.045694422638713,-11.045694422638713,-19.999998960714944,0,-19.999998960714944C11.045694422638713,-19.999998960714944,19.999998960714944,-11.045694422638713,19.999998960714944,0C19.999998960714944,11.045694422638713,11.045694422638713,19.999998960714944,0,19.999998960714944C-11.045694422638713,19.999998960714944,-19.999998960714944,11.045694422638713,-19.999998960714944,0" fill="rgb(255, 255, 68)" stroke="rgb(102, 102, 0)"/><text class="label" x="0" y="-27" text-anchor="middle"/><text class="payoff computed" dy="0.75em" x="0" y="27" text-anchor="middle"><tspan x="0">$525,000</tspan></text><text class="aggregated-payoff" x="27" y="-6" fill="rgb(0, 111, 0)"><tspan x="27"/></text><text class="probability-to-enter" dy="0.75em" x="27" y="6" fill="rgb(0, 0, 215)"/></g><g id="node-0aa7fb6b-dede-e1d5-7dd2-032e87800f9c" class="terminal-node node" transform="translate(560, 218)"><path d="M-19.999998960714944,0L17.99999906464345,-19.999998960714944L17.99999906464345,19.999998960714944Z" fill="rgb(68, 255, 68)" stroke="rgb(0, 0, 0)"/><text class="label" x="0" y="-27" text-anchor="middle"/><text class="payoff computed" dy="0.75em" x="0" y="27" text-anchor="middle"><tspan x="0"/></text><text class="aggregated-payoff" x="27" y="-6"><tspan x="27">$100,000</tspan></text><text class="probability-to-enter" dy="0.75em" x="27" y="6" fill="rgb(0, 0, 215)">0.00</text></g><g id="node-f59d72fb-ae16-2ed3-61ef-8b355180f707" class="terminal-node node" transform="translate(560, 308)"><path d="M-19.999998960714944,0L17.99999906464345,-19.999998960714944L17.99999906464345,19.999998960714944Z" fill="rgb(68, 255, 68)" stroke="rgb(0, 0, 0)"/><text class="label" x="0" y="-27" text-anchor="middle"/><text class="payoff computed" dy="0.75em" x="0" y="27" text-anchor="middle"><tspan x="0"/></text><text class="aggregated-payoff" x="27" y="-6"><tspan x="27">$50,000</tspan></text><text class="probability-to-enter" dy="0.75em" x="27" y="6" fill="rgb(0, 0, 215)">0.00</text></g><g id="node-f2e13dd3-f4d4-6a92-1bcf-95717b779bea" class="chance-node node" transform="translate(200, 560)"><path d="M-19.999998960714944,0C-19.999998960714944,-11.045694422638713,-11.045694422638713,-19.999998960714944,0,-19.999998960714944C11.045694422638713,-19.999998960714944,19.999998960714944,-11.045694422638713,19.999998960714944,0C19.999998960714944,11.045694422638713,11.045694422638713,19.999998960714944,0,19.999998960714944C-11.045694422638713,19.999998960714944,-19.999998960714944,11.045694422638713,-19.999998960714944,0" fill="rgb(255, 255, 68)" stroke="rgb(102, 102, 0)"/><text class="label" x="0" y="-27" text-anchor="middle"/><text class="payoff computed" dy="0.75em" x="0" y="27" text-anchor="middle"><tspan x="0">$565,000</tspan></text><text class="aggregated-payoff" x="27" y="-6" fill="rgb(0, 111, 0)"><tspan x="27"/></text><text class="probability-to-enter" dy="0.75em" x="27" y="6" fill="rgb(0, 0, 215)"/></g><g id="node-cad81b59-7cc2-b76c-b6c5-9989730803e4" class="decision-node node optimal" transform="translate(200, 1037)"><path d="M-20,-20h40v40h-40Z" fill="rgb(255, 119, 119)" stroke="rgb(0, 111, 0)" stroke-width="1.5px"/><text class="label" x="0" y="-27" text-anchor="middle"/><text class="payoff computed" dy="0.75em" x="0" y="27" text-anchor="middle"><tspan x="0">$150,000</tspan></text><text class="aggregated-payoff" x="27" y="-6" fill="rgb(0, 111, 0)"><tspan x="27"/></text><text class="probability-to-enter" dy="0.75em" x="27" y="6" fill="rgb(0, 0, 215)"/></g><g id="node-6bbd9a03-e41a-3291-5413-99615e4aff6e" class="chance-node node" transform="translate(380, 839)"><path d="M-19.999998960714944,0C-19.999998960714944,-11.045694422638713,-11.045694422638713,-19.999998960714944,0,-19.999998960714944C11.045694422638713,-19.999998960714944,19.999998960714944,-11.045694422638713,19.999998960714944,0C19.999998960714944,11.045694422638713,11.045694422638713,19.999998960714944,0,19.999998960714944C-11.045694422638713,19.999998960714944,-19.999998960714944,11.045694422638713,-19.999998960714944,0" fill="rgb(255, 255, 68)" stroke="rgb(102, 102, 0)"/><text class="label" x="0" y="-27" text-anchor="middle"/><text class="payoff computed" dy="0.75em" x="0" y="27" text-anchor="middle"><tspan x="0">$750,000</tspan></text><text class="aggregated-payoff" x="27" y="-6" fill="rgb(0, 111, 0)"><tspan x="27"/></text><text class="probability-to-enter" dy="0.75em" x="27" y="6" fill="rgb(0, 0, 215)"/></g><g id="node-ec8b0a36-4556-c724-d234-fcd6147ddbc4" class="terminal-node node" transform="translate(560, 794)"><path d="M-19.999998960714944,0L17.99999906464345,-19.999998960714944L17.99999906464345,19.999998960714944Z" fill="rgb(68, 255, 68)" stroke="rgb(0, 0, 0)"/><text class="label" x="0" y="-27" text-anchor="middle"/><text class="payoff computed" dy="0.75em" x="0" y="27" text-anchor="middle"><tspan x="0"/></text><text class="aggregated-payoff" x="27" y="-6"><tspan x="27">$350,000</tspan></text><text class="probability-to-enter" dy="0.75em" x="27" y="6" fill="rgb(0, 0, 215)">0.00</text></g><g id="node-badf8736-1b10-88ca-3bdf-485770d64503" class="terminal-node node" transform="translate(560, 884)"><path d="M-19.999998960714944,0L17.99999906464345,-19.999998960714944L17.99999906464345,19.999998960714944Z" fill="rgb(68, 255, 68)" stroke="rgb(0, 0, 0)"/><text class="label" x="0" y="-27" text-anchor="middle"/><text class="payoff computed" dy="0.75em" x="0" y="27" text-anchor="middle"><tspan x="0"/></text><text class="aggregated-payoff" x="27" y="-6"><tspan x="27" class="negative" fill="rgb(182, 0, 0)">-$150,000</tspan></text><text class="probability-to-enter" dy="0.75em" x="27" y="6" fill="rgb(0, 0, 215)">0.00</text></g><g id="node-c2fe80cd-08bc-ce18-3eee-f983478e7bd7" class="chance-node node" transform="translate(380, 1037)"><path d="M-19.999998960714944,0C-19.999998960714944,-11.045694422638713,-11.045694422638713,-19.999998960714944,0,-19.999998960714944C11.045694422638713,-19.999998960714944,19.999998960714944,-11.045694422638713,19.999998960714944,0C19.999998960714944,11.045694422638713,11.045694422638713,19.999998960714944,0,19.999998960714944C-11.045694422638713,19.999998960714944,-19.999998960714944,11.045694422638713,-19.999998960714944,0" fill="rgb(255, 255, 68)" stroke="rgb(102, 102, 0)"/><text class="label" x="0" y="-27" text-anchor="middle"/><text class="payoff computed" dy="0.75em" x="0" y="27" text-anchor="middle"><tspan x="0">$525,000</tspan></text><text class="aggregated-payoff" x="27" y="-6" fill="rgb(0, 111, 0)"><tspan x="27"/></text><text class="probability-to-enter" dy="0.75em" x="27" y="6" fill="rgb(0, 0, 215)"/></g><g id="node-64a2a646-2d9a-bf07-471f-83ce9750a377" class="terminal-node node" transform="translate(560, 992)"><path d="M-19.999998960714944,0L17.99999906464345,-19.999998960714944L17.99999906464345,19.999998960714944Z" fill="rgb(68, 255, 68)" stroke="rgb(0, 0, 0)"/><text class="label" x="0" y="-27" text-anchor="middle"/><text class="payoff computed" dy="0.75em" x="0" y="27" text-anchor="middle"><tspan x="0"/></text><text class="aggregated-payoff" x="27" y="-6"><tspan x="27">$100,000</tspan></text><text class="probability-to-enter" dy="0.75em" x="27" y="6" fill="rgb(0, 0, 215)">0.00</text></g><g id="node-fc1a718f-9662-47a5-8b5b-3a2fec29e48c" class="terminal-node node" transform="translate(560, 1082)"><path d="M-19.999998960714944,0L17.99999906464345,-19.999998960714944L17.99999906464345,19.999998960714944Z" fill="rgb(68, 255, 68)" stroke="rgb(0, 0, 0)"/><text class="label" x="0" y="-27" text-anchor="middle"/><text class="payoff computed" dy="0.75em" x="0" y="27" text-anchor="middle"><tspan x="0"/></text><text class="aggregated-payoff" x="27" y="-6"><tspan x="27">$50,000</tspan></text><text class="probability-to-enter" dy="0.75em" x="27" y="6" fill="rgb(0, 0, 215)">0.00</text></g><g id="node-cfaa2835-5bd2-ccc5-4295-eb29fb3687b1" class="chance-node node optimal" transform="translate(380, 1235)"><path d="M-19.999998960714944,0C-19.999998960714944,-11.045694422638713,-11.045694422638713,-19.999998960714944,0,-19.999998960714944C11.045694422638713,-19.999998960714944,19.999998960714944,-11.045694422638713,19.999998960714944,0C19.999998960714944,11.045694422638713,11.045694422638713,19.999998960714944,0,19.999998960714944C-11.045694422638713,19.999998960714944,-19.999998960714944,11.045694422638713,-19.999998960714944,0" fill="rgb(255, 255, 68)" stroke="rgb(0, 111, 0)" stroke-width="1.5px"/><text class="label" x="0" y="-27" text-anchor="middle"/><text class="payoff computed" dy="0.75em" x="0" y="27" text-anchor="middle"><tspan x="0">$625,000</tspan></text><text class="aggregated-payoff" x="27" y="-6" fill="rgb(0, 111, 0)"><tspan x="27"/></text><text class="probability-to-enter" dy="0.75em" x="27" y="6" fill="rgb(0, 0, 215)"/></g><g id="node-7071da7b-75f5-aa8f-5aca-e909a3abff19" class="terminal-node node optimal" transform="translate(560, 1190)"><path d="M-19.999998960714944,0L17.99999906464345,-19.999998960714944L17.99999906464345,19.999998960714944Z" fill="rgb(68, 255, 68)" stroke="rgb(0, 111, 0)" stroke-width="1.5px"/><text class="label" x="0" y="-27" text-anchor="middle"/><text class="payoff computed" dy="0.75em" x="0" y="27" text-anchor="middle"><tspan x="0"/></text><text class="aggregated-payoff" x="27" y="-6"><tspan x="27">$275,000</tspan></text><text class="probability-to-enter" dy="0.75em" x="27" y="6" fill="rgb(0, 0, 215)">0.20</text></g><g id="node-0177bcb5-8e1b-e9a5-6b68-ba3637705352" class="terminal-node node optimal" transform="translate(560, 1280)"><path d="M-19.999998960714944,0L17.99999906464345,-19.999998960714944L17.99999906464345,19.999998960714944Z" fill="rgb(68, 255, 68)" stroke="rgb(0, 111, 0)" stroke-width="1.5px"/><text class="label" x="0" y="-27" text-anchor="middle"/><text class="payoff computed" dy="0.75em" x="0" y="27" text-anchor="middle"><tspan x="0"/></text><text class="aggregated-payoff" x="27" y="-6"><tspan x="27" class="">$25,000</tspan></text><text class="probability-to-enter" dy="0.75em" x="27" y="6" fill="rgb(0, 0, 215)">0.20</text></g><g id="node-99b6b579-d4cd-c427-15b0-6622fb3ed214" class="chance-node node optimal" transform="translate(20, 1334)"><path d="M-19.999998960714944,0C-19.999998960714944,-11.045694422638713,-11.045694422638713,-19.999998960714944,0,-19.999998960714944C11.045694422638713,-19.999998960714944,19.999998960714944,-11.045694422638713,19.999998960714944,0C19.999998960714944,11.045694422638713,11.045694422638713,19.999998960714944,0,19.999998960714944C-11.045694422638713,19.999998960714944,-19.999998960714944,11.045694422638713,-19.999998960714944,0" fill="rgb(255, 255, 68)" stroke="rgb(0, 111, 0)" stroke-width="1.5px"/><text class="label" x="0" y="-27" text-anchor="middle"/><text class="payoff computed" dy="0.75em" x="0" y="27" text-anchor="middle"><tspan x="0">$120,000</tspan></text><text class="aggregated-payoff" x="27" y="-6" fill="rgb(0, 111, 0)"><tspan x="27"/></text><text class="probability-to-enter" dy="0.75em" x="27" y="6" fill="rgb(0, 0, 215)"/></g><g id="node-57ef3e27-5a85-b46e-c1b5-25679d8fbeb3" class="decision-node node optimal" transform="translate(200, 1631)"><path d="M-20,-20h40v40h-40Z" fill="rgb(255, 119, 119)" stroke="rgb(0, 111, 0)" stroke-width="1.5px"/><text class="label" x="0" y="-27" text-anchor="middle"/><text class="payoff computed" dy="0.75em" x="0" y="27" text-anchor="middle"><tspan x="0">$100,000</tspan></text><text class="aggregated-payoff" x="27" y="-6" fill="rgb(0, 111, 0)"><tspan x="27"/></text><text class="probability-to-enter" dy="0.75em" x="27" y="6" fill="rgb(0, 0, 215)"/></g><g id="node-a6b08296-6267-9b23-6b63-edfdb7e3ae17" class="chance-node node optimal" transform="translate(380, 1433)"><path d="M-19.999998960714944,0C-19.999998960714944,-11.045694422638713,-11.045694422638713,-19.999998960714944,0,-19.999998960714944C11.045694422638713,-19.999998960714944,19.999998960714944,-11.045694422638713,19.999998960714944,0C19.999998960714944,11.045694422638713,11.045694422638713,19.999998960714944,0,19.999998960714944C-11.045694422638713,19.999998960714944,-19.999998960714944,11.045694422638713,-19.999998960714944,0" fill="rgb(255, 255, 68)" stroke="rgb(0, 111, 0)" stroke-width="1.5px"/><text class="label" x="0" y="-27" text-anchor="middle"/><text class="payoff computed" dy="0.75em" x="0" y="27" text-anchor="middle"><tspan x="0">$750,000</tspan></text><text class="aggregated-payoff" x="27" y="-6" fill="rgb(0, 111, 0)"><tspan x="27"/></text><text class="probability-to-enter" dy="0.75em" x="27" y="6" fill="rgb(0, 0, 215)"/></g><g id="node-0f806983-f6d4-e648-8584-99ab479545b0" class="terminal-node node optimal" transform="translate(560, 1388)"><path d="M-19.999998960714944,0L17.99999906464345,-19.999998960714944L17.99999906464345,19.999998960714944Z" fill="rgb(68, 255, 68)" stroke="rgb(0, 111, 0)" stroke-width="1.5px"/><text class="label" x="0" y="-27" text-anchor="middle"/><text class="payoff computed" dy="0.75em" x="0" y="27" text-anchor="middle"><tspan x="0"/></text><text class="aggregated-payoff" x="27" y="-6"><tspan x="27">$350,000</tspan></text><text class="probability-to-enter" dy="0.75em" x="27" y="6" fill="rgb(0, 0, 215)">0.30</text></g><g id="node-7aaeb722-0925-fd96-482b-82775b0a072d" class="terminal-node node optimal" transform="translate(560, 1478)"><path d="M-19.999998960714944,0L17.99999906464345,-19.999998960714944L17.99999906464345,19.999998960714944Z" fill="rgb(68, 255, 68)" stroke="rgb(0, 111, 0)" stroke-width="1.5px"/><text class="label" x="0" y="-27" text-anchor="middle"/><text class="payoff computed" dy="0.75em" x="0" y="27" text-anchor="middle"><tspan x="0"/></text><text class="aggregated-payoff" x="27" y="-6"><tspan class="negative" x="27" fill="rgb(182, 0, 0)">-$150,000</tspan></text><text class="probability-to-enter" dy="0.75em" x="27" y="6" fill="rgb(0, 0, 215)">0.30</text></g><g id="node-dd29fa34-26e9-2db6-9e01-0abd944dfa8c" class="chance-node node" transform="translate(380, 1631)"><path d="M-19.999998960714944,0C-19.999998960714944,-11.045694422638713,-11.045694422638713,-19.999998960714944,0,-19.999998960714944C11.045694422638713,-19.999998960714944,19.999998960714944,-11.045694422638713,19.999998960714944,0C19.999998960714944,11.045694422638713,11.045694422638713,19.999998960714944,0,19.999998960714944C-11.045694422638713,19.999998960714944,-19.999998960714944,11.045694422638713,-19.999998960714944,0" fill="rgb(255, 255, 68)" stroke="rgb(102, 102, 0)"/><text class="label" x="0" y="-27" text-anchor="middle"/><text class="payoff computed" dy="0.75em" x="0" y="27" text-anchor="middle"><tspan x="0">$525,000</tspan></text><text class="aggregated-payoff" x="27" y="-6" fill="rgb(0, 111, 0)"><tspan x="27"/></text><text class="probability-to-enter" dy="0.75em" x="27" y="6" fill="rgb(0, 0, 215)"/></g><g id="node-599cd486-5176-95e5-900a-9db9fcdb6910" class="terminal-node node" transform="translate(560, 1586)"><path d="M-19.999998960714944,0L17.99999906464345,-19.999998960714944L17.99999906464345,19.999998960714944Z" fill="rgb(68, 255, 68)" stroke="rgb(0, 0, 0)"/><text class="label" x="0" y="-27" text-anchor="middle"/><text class="payoff computed" dy="0.75em" x="0" y="27" text-anchor="middle"><tspan x="0"/></text><text class="aggregated-payoff" x="27" y="-6"><tspan x="27">$100,000</tspan></text><text class="probability-to-enter" dy="0.75em" x="27" y="6" fill="rgb(0, 0, 215)">0.00</text></g><g id="node-17624b65-7207-6cf8-5a90-ac23e597aee9" class="terminal-node node" transform="translate(560, 1676)"><path d="M-19.999998960714944,0L17.99999906464345,-19.999998960714944L17.99999906464345,19.999998960714944Z" fill="rgb(68, 255, 68)" stroke="rgb(0, 0, 0)"/><text class="label" x="0" y="-27" text-anchor="middle"/><text class="payoff computed" dy="0.75em" x="0" y="27" text-anchor="middle"><tspan x="0"/></text><text class="aggregated-payoff" x="27" y="-6"><tspan x="27">$50,000</tspan></text><text class="probability-to-enter" dy="0.75em" x="27" y="6" fill="rgb(0, 0, 215)">0.00</text></g><g id="node-f66b67fc-21bd-a4f3-4ee2-c459c34c65f8" class="chance-node node" transform="translate(380, 1829)"><path d="M-19.999998960714944,0C-19.999998960714944,-11.045694422638713,-11.045694422638713,-19.999998960714944,0,-19.999998960714944C11.045694422638713,-19.999998960714944,19.999998960714944,-11.045694422638713,19.999998960714944,0C19.999998960714944,11.045694422638713,11.045694422638713,19.999998960714944,0,19.999998960714944C-11.045694422638713,19.999998960714944,-19.999998960714944,11.045694422638713,-19.999998960714944,0" fill="rgb(255, 255, 68)" stroke="rgb(102, 102, 0)"/><text class="label" x="0" y="-27" text-anchor="middle"/><text class="payoff computed" dy="0.75em" x="0" y="27" text-anchor="middle"><tspan x="0">$525,000</tspan></text><text class="aggregated-payoff" x="27" y="-6" fill="rgb(0, 111, 0)"><tspan x="27"/></text><text class="probability-to-enter" dy="0.75em" x="27" y="6" fill="rgb(0, 0, 215)"/></g><g id="node-2c8bb453-da10-5a80-5ffa-f9dda20da317" class="terminal-node node" transform="translate(560, 1784)"><path d="M-19.999998960714944,0L17.99999906464345,-19.999998960714944L17.99999906464345,19.999998960714944Z" fill="rgb(68, 255, 68)" stroke="rgb(0, 0, 0)"/><text class="label" x="0" y="-27" text-anchor="middle"/><text class="payoff computed" dy="0.75em" x="0" y="27" text-anchor="middle"><tspan x="0"/></text><text class="aggregated-payoff" x="27" y="-6"><tspan x="27">$75,000</tspan></text><text class="probability-to-enter" dy="0.75em" x="27" y="6" fill="rgb(0, 0, 215)">0.00</text></g><g id="node-eff3404a-d122-ccd7-9347-548a8c04eefa" class="terminal-node node" transform="translate(560, 1874)"><path d="M-19.999998960714944,0L17.99999906464345,-19.999998960714944L17.99999906464345,19.999998960714944Z" fill="rgb(68, 255, 68)" stroke="rgb(0, 0, 0)"/><text class="label" x="0" y="-27" text-anchor="middle"/><text class="payoff computed" dy="0.75em" x="0" y="27" text-anchor="middle"><tspan x="0"/></text><text class="aggregated-payoff" x="27" y="-6"><tspan class="" x="27">$25,000</tspan></text><text class="probability-to-enter" dy="0.75em" x="27" y="6" fill="rgb(0, 0, 215)">0.00</text></g><g id="node-58a6f561-37bb-5cf8-0296-1ae679af240a" class="chance-node node" transform="translate(380, 461)"><path d="M-19.999998960714944,0C-19.999998960714944,-11.045694422638713,-11.045694422638713,-19.999998960714944,0,-19.999998960714944C11.045694422638713,-19.999998960714944,19.999998960714944,-11.045694422638713,19.999998960714944,0C19.999998960714944,11.045694422638713,11.045694422638713,19.999998960714944,0,19.999998960714944C-11.045694422638713,19.999998960714944,-19.999998960714944,11.045694422638713,-19.999998960714944,0" fill="rgb(255, 255, 68)" stroke="rgb(102, 102, 0)"/><text class="label" x="0" y="-27" text-anchor="middle"/><text class="payoff computed" dy="0.75em" x="0" y="27" text-anchor="middle"><tspan x="0">$630,000</tspan></text><text class="aggregated-payoff" x="27" y="-6" fill="rgb(0, 111, 0)"><tspan x="27"/></text><text class="probability-to-enter" dy="0.75em" x="27" y="6" fill="rgb(0, 0, 215)"/></g><g id="node-57eb489a-7f0f-f45e-18d3-914825e4a30b" class="terminal-node node" transform="translate(560  416.00000000000006)"><path d="M-19.999998960714944,0L17.99999906464345,-19.999998960714944L17.99999906464345,19.999998960714944Z" fill="rgb(68, 255, 68)" stroke="rgb(0, 0, 0)"/><text class="label" x="0" y="-27" text-anchor="middle"/><text class="payoff computed" dy="0.75em" x="0" y="27" text-anchor="middle"><tspan x="0"/></text><text class="aggregated-payoff" x="27" y="-6"><tspan x="27">$275,000</tspan></text><text class="probability-to-enter" dy="0.75em" x="27" y="6" fill="rgb(0, 0, 215)">0.00</text></g><g id="node-48979327-b389-a3c2-abf1-a4a611c55ff8" class="terminal-node node" transform="translate(560, 506)"><path d="M-19.999998960714944,0L17.99999906464345,-19.999998960714944L17.99999906464345,19.999998960714944Z" fill="rgb(68, 255, 68)" stroke="rgb(0, 0, 0)"/><text class="label" x="0" y="-27" text-anchor="middle"/><text class="payoff computed" dy="0.75em" x="0" y="27" text-anchor="middle"><tspan x="0"/></text><text class="aggregated-payoff" x="27" y="-6"><tspan x="27">$75,000</tspan></text><text class="probability-to-enter" dy="0.75em" x="27" y="6" fill="rgb(0, 0, 215)">0.00</text></g><g id="node-5161470b-480c-6348-80f9-112a57ed9846" class="chance-node node" transform="translate(380, 659)"><path d="M-19.999998960714944,0C-19.999998960714944,-11.045694422638713,-11.045694422638713,-19.999998960714944,0,-19.999998960714944C11.045694422638713,-19.999998960714944,19.999998960714944,-11.045694422638713,19.999998960714944,0C19.999998960714944,11.045694422638713,11.045694422638713,19.999998960714944,0,19.999998960714944C-11.045694422638713,19.999998960714944,-19.999998960714944,11.045694422638713,-19.999998960714944,0" fill="rgb(255, 255, 68)" stroke="rgb(102, 102, 0)"/><text class="label" x="0" y="-27" text-anchor="middle"/><text class="payoff computed" dy="0.75em" x="0" y="27" text-anchor="middle"><tspan x="0">$500,000</tspan></text><text class="aggregated-payoff" x="27" y="-6" fill="rgb(0, 111, 0)"><tspan x="27"/></text><text class="probability-to-enter" dy="0.75em" x="27" y="6" fill="rgb(0, 0, 215)"/></g><g id="node-684ae2fe-b27d-09fc-6b81-2f9a80bf447b" class="terminal-node node" transform="translate(560, 614)"><path d="M-19.999998960714944,0L17.99999906464345,-19.999998960714944L17.99999906464345,19.999998960714944Z" fill="rgb(68, 255, 68)" stroke="rgb(0, 0, 0)"/><text class="label" x="0" y="-27" text-anchor="middle"/><text class="payoff computed" dy="0.75em" x="0" y="27" text-anchor="middle"><tspan x="0"/></text><text class="aggregated-payoff" x="27" y="-6"><tspan x="27">$25,000</tspan></text><text class="probability-to-enter" dy="0.75em" x="27" y="6" fill="rgb(0, 0, 215)">0.00</text></g><g id="node-9f3b6430-427e-c49d-679d-ffca27490e13" class="terminal-node node" transform="translate(560  704)"><path d="M-19.999998960714944,0L17.99999906464345,-19.999998960714944L17.99999906464345,19.999998960714944Z" fill="rgb(68, 255, 68)" stroke="rgb(0, 0, 0)"/><text class="label" x="0" y="-27" text-anchor="middle"/><text class="payoff computed" dy="0.75em" x="0" y="27" text-anchor="middle"><tspan x="0"/></text><text class="aggregated-payoff" x="27" y="-6"><tspan x="27">$25,000</tspan></text><text class="probability-to-enter" dy="0.75em" x="27" y="6" fill="rgb(0, 0, 215)">0.00</text></g></g><g class="edges"><g id="edge-3fcc3b67-24dd-2749-1e03-349620375a34" class="edge"><path d="M41,296L50,296L70,263.00000000000006L352,263.00000000000006" fill="none" marker-end="url(#arrow)" stroke="rgb(66, 66, 66)" stroke-width="1.5px"/><g class="label-group" transform="translate(72,256.00000000000006)"><text class="label"><tspan x="0">only 100000 first</tspan></text></g><text class="payoff" dy="0.75em" x="72" y="270.00000000000006"><tspan x="72">-$450,000</tspan></text><text class="probability" text-anchor="end" dy="0.75em" x="344" y="270.00000000000006" fill="rgb(0, 0, 215)">0.00</text></g><g id="edge-aa262af8-895c-a14c-43c8-766c66ac1459" class="edge"><path d="M401,263.00000000000006L410,263.00000000000006L430,218.00000000000006L532,218.00000000000006" fill="none" marker-end="url(#arrow)" stroke="rgb(66, 66, 66)" stroke-width="1.5px"/><g class="label-group" transform="translate(432, 211)"><text class="label"/></g><text class="payoff" dy="0.75em" x="432" y="225.00000000000006"><tspan x="432">$550,000</tspan></text><text class="probability" text-anchor="end" dy="0.75em" x="524" y="225.00000000000006" fill="rgb(0, 0, 215)">0.50</text></g><g id="edge-9f9c2cca-5b43-36d3-6573-992e8f582ce7" class="edge"><path d="M401,263.00000000000006L410,263.00000000000006L430,308.00000000000006L532,308.00000000000006" fill="none" marker-end="url(#arrow)" stroke="rgb(66, 66, 66)" stroke-width="1.5px"/><g class="label-group" transform="translate(432, 301)"><text class="label"><tspan x="0">no additional</tspan></text></g><text class="payoff" dy="0.75em" x="432" y="315.00000000000006"><tspan x="432">$500,000</tspan></text><text class="probability" text-anchor="end" dy="0.75em" x="524" y="315.00000000000006" fill="rgb(0, 0, 215)">0.50</text></g><g id="edge-ad6fb805-9384-8f07-24d7-69ef9c00c200" class="edge"><path d="M221,1037L230,1037L250,1037L352,1037" fill="none" marker-end="url(#arrow)" stroke="rgb(66, 66, 66)" stroke-width="1.5px"/><g class="label-group" transform="translate(252, 1030)"><text class="label"><tspan x="0">only 100000 first</tspan></text></g><text class="payoff" dy="0.75em" x="252" y="1044"><tspan x="252">-$450,000</tspan></text><text class="probability" text-anchor="end" dy="0.75em" x="344" y="1044" fill="rgb(0, 0, 215)">0.00</text></g><g id="edge-3f6367b5-5cea-6286-6558-37731f4c2735" class="edge"><path d="M401,1037L410,1037L430,992L532,992" fill="none" marker-end="url(#arrow)" stroke="rgb(66, 66, 66)" stroke-width="1.5px"/><g class="label-group" transform="translate(432, 985)"><text class="label"/></g><text class="payoff" dy="0.75em" x="432" y="999"><tspan x="432">$550,000</tspan></text><text class="probability" text-anchor="end" dy="0.75em" x="524" y="999" fill="rgb(0, 0, 215)">0.50</text></g><g id="edge-336df353-b32b-a59e-2ade-3bb6415d7576" class="edge"><path d="M401,1037L410,1037L430,1082L532,1082" fill="none" marker-end="url(#arrow)" stroke="rgb(66, 66, 66)" stroke-width="1.5px"/><g class="label-group" transform="translate(432, 1075)"><text class="label"><tspan x="0">no additional</tspan></text></g><text class="payoff" dy="0.75em" x="432" y="1089"><tspan x="432">$500,000</tspan></text><text class="probability" text-anchor="end" dy="0.75em" x="524" y="1089" fill="rgb(0, 0, 215)">0.50</text></g><g id="edge-c78017c5-0383-3982-f701-f72910b57154" class="edge"><path d="M221,1631L230,1631L250,1631L352,1631" fill="none" marker-end="url(#arrow)" stroke="rgb(66, 66, 66)" stroke-width="1.5px"/><g class="label-group" transform="translate(252, 1624)"><text class="label"><tspan x="0">only 100000 first</tspan></text></g><text class="payoff" dy="0.75em" x="252" y="1638"><tspan x="252">-$450,000</tspan></text><text class="probability" text-anchor="end" dy="0.75em" x="344" y="1638" fill="rgb(0, 0, 215)">0.00</text></g><g id="edge-6bfbb478-2b57-aed4-4f40-7c50ea320c26" class="edge"><path d="M401,1631L410,1631L430,1586L532,1586" fill="none" marker-end="url(#arrow)" stroke="rgb(66, 66, 66)" stroke-width="1.5px"/><g class="label-group" transform="translate(432, 1579)"><text class="label"/></g><text class="payoff" dy="0.75em" x="432" y="1593"><tspan x="432">$550,000</tspan></text><text class="probability" text-anchor="end" dy="0.75em" x="524" y="1593" fill="rgb(0, 0, 215)">0.50</text></g><g id="edge-8075d112-7618-890a-54d3-be8bd3a9f8f4" class="edge"><path d="M401,1631L410,1631L430,1676L532,1676" fill="none" marker-end="url(#arrow)" stroke="rgb(66, 66, 66)" stroke-width="1.5px"/><g class="label-group" transform="translate(432, 1669)"><text class="label"><tspan x="0">no additional</tspan></text></g><text class="payoff" dy="0.75em" x="432" y="1683"><tspan x="432">$500,000</tspan></text><text class="probability" text-anchor="end" dy="0.75em" x="524" y="1683" fill="rgb(0, 0, 215)">0.50</text></g><g id="edge-6d69cdf7-f1ef-e1bc-ddc6-949f4ee8c56f" class="edge"><path d="M221,1631L230,1631L250,1829L352,1829" fill="none" marker-end="url(#arrow)" stroke="rgb(66, 66, 66)" stroke-width="1.5px"/><g class="label-group" transform="translate(252, 1822)"><text class="label"><tspan x="0">research</tspan></text></g><text class="payoff" dy="0.75em" x="252" y="1836"><tspan x="252">-$475,000</tspan></text><text class="probability" text-anchor="end" dy="0.75em" x="344" y="1836" fill="rgb(0, 0, 215)">0.00</text></g><g id="edge-60d5827e-e613-154d-f2c8-1f536f8127e8" class="edge"><path d="M401,1829L410,1829L430,1784L532,1784" fill="none" marker-end="url(#arrow)" stroke="rgb(66, 66, 66)" stroke-width="1.5px"/><g class="label-group" transform="translate(432, 1777)"><text class="label"><tspan x="0">with adition</tspan></text></g><text class="payoff" dy="0.75em" x="432" y="1791"><tspan x="432">$550,000</tspan></text><text class="probability" text-anchor="end" dy="0.75em" x="524" y="1791" fill="rgb(0, 0, 215)">0.50</text></g><g id="edge-31a77127-f4d8-8eec-28dc-227459b6dc0c" class="edge"><path d="M401,1829L410,1829L430,1874L532,1874" fill="none" marker-end="url(#arrow)" stroke="rgb(66, 66, 66)" stroke-width="1.5px"/><g class="label-group" transform="translate(432, 1867)"><text class="label"><tspan x="0">no addition</tspan></text></g><text class="payoff" dy="0.75em" x="432" y="1881"><tspan x="432">$500,000</tspan></text><text class="probability" text-anchor="end" dy="0.75em" x="524" y="1881" fill="rgb(0, 0, 215)">0.50</text></g><g id="edge-2ba4f471-c6f3-10f1-240c-aa5e9c47b995" class="edge"><path d="M221,1037L230,1037L250,839L352,839" fill="none" marker-end="url(#arrow)" stroke="rgb(66, 66, 66)" stroke-width="1.5px"/><g class="label-group" transform="translate(252, 832)"><text class="label"><tspan x="0">all 200000 boards</tspan></text></g><text class="payoff" dy="0.75em" x="252" y="846"><tspan x="252">-$650,000</tspan></text><text class="probability" text-anchor="end" dy="0.75em" x="344" y="846" fill="rgb(0, 0, 215)">0.00</text></g><g id="edge-ca42deb3-e3b3-f52c-3953-d938015d99a3" class="edge"><path d="M401,839L410,839L430,793.9999999999999L532,793.9999999999999" fill="none" marker-end="url(#arrow)" stroke="rgb(66, 66, 66)" stroke-width="1.5px"/><g class="label-group" transform="translate(432, 787)"><text class="label"/></g><text class="payoff" dy="0.75em" x="432" y="800.9999999999999"><tspan x="432">$1,000,000</tspan></text><text class="probability" text-anchor="end" dy="0.75em" x="525.07421875" y="800.9999999999999" fill="rgb(0, 0, 215)">0.50</text></g><g id="edge-e5303374-123e-165e-89f2-9f937457b258" class="edge"><path d="M401,839L410,839L430,884L532,884" fill="none" marker-end="url(#arrow)" stroke="rgb(66, 66, 66)" stroke-width="1.5px"/><g class="label-group" transform="translate(432, 877)"><text class="label"><tspan x="0">no additional</tspan></text></g><text class="payoff" dy="0.75em" x="432" y="891"><tspan x="432">$500,000</tspan></text><text class="probability" text-anchor="end" dy="0.75em" x="524" y="891" fill="rgb(0, 0, 215)">0.50</text></g><g id="edge-50c0f7f2-f20d-a683-67c7-cf3c0ada7f32" class="edge"><path d="M41,296L50,296L70,560L172,560" fill="none" marker-end="url(#arrow)" stroke="rgb(66, 66, 66)" stroke-width="1.5px"/><g class="label-group" transform="translate(72,553)"><text class="label"><tspan x="0">research</tspan></text></g><text class="payoff" dy="0.75em" x="72" y="567"><tspan x="72">-$475,000</tspan></text><text class="probability" text-anchor="end" dy="0.75em" x="164" y="567" fill="rgb(0, 0, 215)">0.00</text></g><g id="edge-ab59abef-6777-b6ce-07a4-dae839d722e1" class="edge"><path d="M221,560L230,560L250,461.00000000000006L352,461.00000000000006" fill="none" marker-end="url(#arrow)" stroke="rgb(66, 66, 66)" stroke-width="1.5px"/><g class="label-group" transform="translate(252, 454)"><text class="label"><tspan x="0">with addition</tspan></text></g><text class="payoff" dy="0.75em" x="252" y="468.00000000000006"><tspan x="252">$0</tspan></text><text class="probability" text-anchor="end" dy="0.75em" x="344" y="468.00000000000006" fill="rgb(0, 0, 215)">0.50</text></g><g id="edge-b266d496-ac8a-ba9b-d4d4-52847871095f" class="edge"><path d="M401,461.00000000000006L410,461.00000000000006L430,416.00000000000006L532,416.00000000000006" fill="none" marker-end="url(#arrow)" stroke="rgb(66, 66, 66)" stroke-width="1.5px"/><g class="label-group" transform="translate(432,409.00000000000006)"><text class="label"><tspan x="0">success</tspan></text></g><text class="payoff" dy="0.75em" x="432" y="423.00000000000006"><tspan x="432">$750,000</tspan></text><text class="probability" text-anchor="end" dy="0.75em" x="524" y="423.00000000000006" fill="rgb(0, 0, 215)">0.40</text></g><g id="edge-212958d3-d3e5-ece2-1bed-4cbe0d6d3d08" class="edge"><path d="M401,461.00000000000006L410,461.00000000000006L430,506.00000000000006L532,506.00000000000006" fill="none" marker-end="url(#arrow)" stroke="rgb(66, 66, 66)" stroke-width="1.5px"/><g class="label-group" transform="translate(432, 499)"><text class="label"><tspan x="0">fail</tspan></text></g><text class="payoff" dy="0.75em" x="432" y="513"><tspan x="432">$550,000</tspan></text><text class="probability" text-anchor="end" dy="0.75em" x="524" y="513" fill="rgb(0, 0, 215)">0.60</text></g><g id="edge-7e5d46ad-1132-f65c-080d-644c7ac4ddd2" class="edge"><path d="M221,560L230,560L250,659L352,659" fill="none" marker-end="url(#arrow)" stroke="rgb(66, 66, 66)" stroke-width="1.5px"/><g class="label-group" transform="translate(252, 652)"><text class="label"><tspan x="0">no addition</tspan></text></g><text class="payoff" dy="0.75em" x="252" y="666"><tspan x="252">$0</tspan></text><text class="probability" text-anchor="end" dy="0.75em" x="344" y="666" fill="rgb(0, 0, 215)">0.50</text></g><g id="edge-9eb3fdf6-98b2-d311-2d64-e1474f5880ec" class="edge"><path d="M401,659L410,659L430,614L532,614" fill="none" marker-end="url(#arrow)" stroke="rgb(66, 66, 66)" stroke-width="1.5px"/><g class="label-group" transform="translate(432, 607)"><text class="label"><tspan x="0">success</tspan></text></g><text class="payoff" dy="0.75em" x="432" y="621"><tspan x="432">$500,000</tspan></text><text class="probability" text-anchor="end" dy="0.75em" x="524" y="621" fill="rgb(0, 0, 215)">0.40</text></g><g id="edge-e09d27b2-8c81-9b60-f892-d59e44c3ca78" class="edge"><path d="M401,659L410,659L430,704L532,704" fill="none" marker-end="url(#arrow)" stroke="rgb(66, 66, 66)" stroke-width="1.5px"/><g class="label-group" transform="translate(432,697)"><text class="label"><tspan x="0">fail</tspan></text></g><text class="payoff" dy="0.75em" x="432" y="711"><tspan x="432">$500,000</tspan></text><text class="probability" text-anchor="end" dy="0.75em" x="524" y="711" fill="rgb(0, 0, 215)">0.60</text></g><g id="edge-cbaaf150-bae7-50b6-6755-f1d75b8cbd8b" class="edge optimal"><path d="M221,1037L230,1037L250,1235L352,1235" fill="none" marker-end="url(#arrow-optimal)" stroke="rgb(0, 111, 0)" stroke-width="2.4px"/><g class="label-group" transform="translate(252, 1228)"><text class="label"><tspan x="0">research</tspan></text></g><text class="payoff" dy="0.75em" x="252" y="1242"><tspan x="252">-$475,000</tspan></text><text class="probability" text-anchor="end" dy="0.75em" x="344" y="1242" fill="rgb(0, 0, 215)">1.00</text></g><g id="edge-73374765-7700-8ee1-5c76-1fe7839336ad" class="edge optimal"><path d="M401,1235L410,1235L430,1190L532,1190" fill="none" marker-end="url(#arrow-optimal)" stroke="rgb(0, 111, 0)" stroke-width="2.4px"/><g class="label-group" transform="translate(432, 1183)"><text class="label"><tspan x="0">with adition</tspan></text></g><text class="payoff" dy="0.75em" x="432" y="1197"><tspan x="432">$750,000</tspan></text><text class="probability" text-anchor="end" dy="0.75em" x="524" y="1197" fill="rgb(0, 0, 215)">0.50</text></g><g id="edge-7cc0481f-1162-38db-63d9-0573caf4766b" class="edge optimal"><path d="M401,1235L410,1235L430,1280L532,1280" fill="none" marker-end="url(#arrow-optimal)" stroke="rgb(0, 111, 0)" stroke-width="2.4px"/><g class="label-group" transform="translate(432, 1273)"><text class="label"><tspan x="0">no addition</tspan></text></g><text class="payoff" dy="0.75em" x="432" y="1287"><tspan x="432">$500,000</tspan></text><text class="probability" text-anchor="end" dy="0.75em" x="524" y="1287" fill="rgb(0, 0, 215)">0.50</text></g><g id="edge-a3e18749-7e49-66cf-2add-44e567d16af9" class="edge optimal"><path d="M41,1334L50,1334L70,1037L172,1037" fill="none" marker-end="url(#arrow-optimal)" stroke="rgb(0, 111, 0)" stroke-width="2.4px"/><g class="label-group" transform="translate(72,1030)"><text class="label"><tspan x="0">success</tspan></text></g><text class="payoff" dy="0.75em" x="72" y="1044"><tspan x="72">$0</tspan></text><text class="probability" text-anchor="end" dy="0.75em" x="164" y="1044" fill="rgb(0, 0, 215)">0.40</text></g><g id="edge-8168045e-79ba-4f48-e034-3efe07d753b9" class="edge optimal"><path d="M41,1334L50,1334L70,1631L172,1631" fill="none" marker-end="url(#arrow-optimal)" stroke="rgb(0, 111, 0)" stroke-width="2.4px"/><g class="label-group" transform="translate(72, 1624)"><text class="label"/></g><text class="payoff" dy="0.75em" x="72" y="1638"><tspan x="72">$0</tspan></text><text class="probability" text-anchor="end" dy="0.75em" x="164" y="1638" fill="rgb(0, 0, 215)">0.60</text></g><g id="edge-a112e7a9-6a43-558d-9674-ac581006e9d2" class="edge optimal"><path d="M221,1631L230,1631L250,1433L352,1433" fill="none" marker-end="url(#arrow-optimal)" stroke="rgb(0, 111, 0)" stroke-width="2.4px"/><g class="label-group" transform="translate(252, 1426)"><text class="label"><tspan x="0">all 200000 boards</tspan></text></g><text class="payoff" dy="0.75em" x="252" y="1440"><tspan x="252">-$650,000</tspan></text><text class="probability" text-anchor="end" dy="0.75em" x="344" y="1440" fill="rgb(0, 0, 215)">1.00</text></g><g id="edge-7b0b7f65-9612-b31f-0e52-0c1c922c05cf" class="edge optimal"><path d="M401,1433L410,1433L430,1388L532,1388" fill="none" marker-end="url(#arrow-optimal)" stroke="rgb(0, 111, 0)" stroke-width="2.4px"/><g class="label-group" transform="translate(432, 1381)"><text class="label"/></g><text class="payoff" dy="0.75em" x="432" y="1395"><tspan x="432">$1,000,000</tspan></text><text class="probability" text-anchor="end" dy="0.75em" x="525.07421875" y="1395" fill="rgb(0, 0, 215)">0.50</text></g><g id="edge-49edbd5e-51ad-5de0-e1bc-5acf124ab174" class="edge optimal"><path d="M401,1433L410,1433L430,1478L532,1478" fill="none" marker-end="url(#arrow-optimal)" stroke="rgb(0, 111, 0)" stroke-width="2.4px"/><g class="label-group" transform="translate(432, 1471)"><text class="label"><tspan x="0">no additional</tspan></text></g><text class="payoff" dy="0.75em" x="432" y="1485"><tspan x="432">$500,000</tspan></text><text class="probability" text-anchor="end" dy="0.75em" x="524" y="1485" fill="rgb(0, 0, 215)">0.50</text></g><g id="edge-b86c2ad0-af68-e389-521c-f27da65abbaf" class="edge optimal"><path d="M41,296L50,296L70,65.00000000000003L352,65.00000000000003" fill="none" marker-end="url(#arrow-optimal)" stroke="rgb(0, 111, 0)" stroke-width="2.4px"/><g class="label-group" transform="translate(72,58.00000000000003)"><text class="label"><tspan x="0">all 200000 boards</tspan></text></g><text class="payoff" dy="0.75em" x="72" y="72.00000000000003"><tspan x="72">-$650,000</tspan></text><text class="probability" text-anchor="end" dy="0.75em" x="344" y="72.00000000000003" fill="rgb(0, 0, 215)">1.00</text></g><g id="edge-eb639a00-cf22-1cba-0bb8-435f2dc75abf" class="edge optimal"><path d="M401,65.00000000000003L410,65.00000000000003L430,20L532,20" fill="none" marker-end="url(#arrow-optimal)" stroke="rgb(0, 111, 0)" stroke-width="2.4px"/><g class="label-group" transform="translate(432, 13)"><text class="label"/></g><text class="payoff" dy="0.75em" x="432" y="27"><tspan x="432">$1,000,000</tspan></text><text class="probability" text-anchor="end" dy="0.75em" x="525.07421875" y="27" fill="rgb(0, 0, 215)">0.50</text></g><g id="edge-1a54f276-a1a1-e3a4-fc9c-366b574e5f87" class="edge optimal"><path d="M401,65.00000000000003L410,65.00000000000003L430,110.00000000000003L532,110.00000000000003" fill="none" marker-end="url(#arrow-optimal)" stroke="rgb(0, 111, 0)" stroke-width="2.4px"/><g class="label-group" transform="translate(432, 103)"><text class="label"><tspan x="0">no additional</tspan></text></g><text class="payoff" dy="0.75em" x="432" y="117.00000000000003"><tspan x="432">$500,000</tspan></text><text class="probability" text-anchor="end" dy="0.75em" x="524" y="117.00000000000003" fill="rgb(0, 0, 215)">0.50</text></g></g><g class="floating-texts"/></g></g><defs><marker id="arrow" viewBox="0 -5 10 10" refX="5" refY="0" markerWidth="4" markerHeight="4" orient="auto"><path d="M0,-5L10,0L0,5" class="arrowHead" fill="rgb(66, 66, 66)"/></marker><marker id="arrow-optimal" viewBox="0 -5 10 10" refX="5" refY="0" markerWidth="4" markerHeight="4" orient="auto"><path d="M0,-5L10,0L0,5" class="arrowHead" fill="rgb(0, 111, 0)"/></marker><marker id="arrow-selected" viewBox="0 -5 10 10" refX="5" refY="0" markerWidth="4" markerHeight="4" orient="auto"><path d="M0,-5L10,0L0,5" class="arrowHead" fill="rgb(4, 90, 209)"/></marker></defs><g class="sd-title-container" transform="translate(374,15)"><text class="sd-title" dy="0.75em" text-anchor="middle" style="; font-size: 16px; font-weight: 700"/><text class="sd-description" dy="0.75em" transform="translate(0,0)" text-anchor="middle" style="; font-weight: 700"/></g></svg>