<svg xmlns:xlink="http://www.w3.org/1999/xlink" xmlns="http://www.w3.org/2000/svg" class="sd-tree-designer" width="748" height="1272.1875" style="; color: rgb(0, 0, 0); font-family: sans-serif; font-kerning: auto; font-size: 12px; font-stretch: 100%; font-style: normal; font-variant: normal; font-variant-ligatures: normal; font-variant-caps: normal; font-variant-numeric: normal; font-variant-east-asian: normal; font-weight: 400; opacity: 1; color-interpolation: srgb; color-interpolation-filters: linearrgb; color-rendering: auto" text-align="start" text-align-last="auto" text-decoration="none solid rgb(0, 0, 0)" text-decoration-line="none" text-decoration-style="solid" text-decoration-color="rgb(0, 0, 0)" text-decoration-skip-ink="auto" text-underline-position="auto" text-indent="0px" text-rendering="auto" text-shadow="none" text-size-adjust="auto" text-overflow="clip" text-transform="none" fill="rgb(0, 0, 0)" fill-opacity="1" fill-rule="nonzero" stroke="none" stroke-dasharray="none" stroke-dashoffset="0px" stroke-linecap="butt" stroke-linejoin="miter" stroke-miterlimit="4" stroke-opacity="1" stroke-width="1px" text-anchor="start" xlink="http://www.w3.org/1999/xlink"><g class="sd-wrapper-group" transform="scale(1)"><g class="brush" fill="none" pointer-events="all"><rect class="overlay" pointer-events="all" cursor="crosshair" x="0" y="0" width="748" height="1272.1875"/></g><g class="main-group" transform="translate(25,25)"><g class="nodes"><g id="node-384276d3-3ced-f3d8-26f1-263daa5a879e" class="terminal-node node" transform="translate(560, 20)"><path d="M-19.999998960714944,0L17.99999906464345,-19.999998960714944L17.99999906464345,19.999998960714944Z" fill="rgb(68, 255, 68)" stroke="rgb(0, 0, 0)"/><text class="label" x="0" y="-27" text-anchor="middle"/><text class="payoff computed" dy="0.75em" x="0" y="27" text-anchor="middle"><tspan x="0"/></text><text class="aggregated-payoff" x="27" y="-7.6953125"><tspan x="27" class="negative" fill="rgb(182, 0, 0)">P: -$1,800</tspan><tspan dy="0.95em" class="negative" x="27" fill="rgb(182, 0, 0)">U: -10.02</tspan></text><text class="probability-to-enter" dy="0.75em" x="27" y="7.199999999999999" fill="rgb(0, 0, 215)">0.00</text></g><g id="node-b53b8c86-6465-2f4f-008e-433ee98db3b7" class="terminal-node node optimal" transform="translate(560, 515)"><path d="M-19.999998960714944,0L17.99999906464345,-19.999998960714944L17.99999906464345,19.999998960714944Z" fill="rgb(68, 255, 68)" stroke="rgb(0, 111, 0)" stroke-width="1.5px"/><text class="label" x="0" y="-27" text-anchor="middle"/><text class="payoff computed" dy="0.75em" x="0" y="27" text-anchor="middle"><tspan x="0"/></text><text class="aggregated-payoff" x="27" y="-7.6953125"><tspan x="27" class="negative" fill="rgb(182, 0, 0)">P: -$750</tspan><tspan dy="0.95em" class="negative" x="27" fill="rgb(182, 0, 0)">U: -1.72</tspan></text><text class="probability-to-enter" dy="0.75em" x="27" y="7.199999999999999" fill="rgb(0, 0, 215)">0.40</text></g><g id="node-313a0489-35b5-5a11-cc1e-bcd2eca22925" class="terminal-node node" transform="translate(560, 1100)"><path d="M-19.999998960714944,0L17.99999906464345,-19.999998960714944L17.99999906464345,19.999998960714944Z" fill="rgb(68, 255, 68)" stroke="rgb(0, 0, 0)"/><text class="label" x="0" y="-27" text-anchor="middle"/><text class="payoff computed" dy="0.75em" x="0" y="27" text-anchor="middle"><tspan x="0"/></text><text class="aggregated-payoff" x="27" y="-7.6953125"><tspan x="27" class="negative" fill="rgb(182, 0, 0)">P: -$1,250</tspan><tspan dy="0.95em" class="negative" x="27" fill="rgb(182, 0, 0)">U: -4.29</tspan></text><text class="probability-to-enter" dy="0.75em" x="27" y="7.199999999999999" fill="rgb(0, 0, 215)">0.00</text></g><g id="node-440c6307-c2c1-eaf9-0749-f6247163a46f" class="terminal-node node" transform="translate(560, 1190)"><path d="M-19.999998960714944,0L17.99999906464345,-19.999998960714944L17.99999906464345,19.999998960714944Z" fill="rgb(68, 255, 68)" stroke="rgb(0, 0, 0)"/><text class="label" x="0" y="-27" text-anchor="middle"/><text class="payoff computed" dy="0.75em" x="0" y="27" text-anchor="middle"><tspan x="0"/></text><text class="aggregated-payoff" x="27" y="-7.6953125"><tspan x="27" class="negative" fill="rgb(182, 0, 0)">P: -$1,500</tspan><tspan dy="0.95em" class="negative" x="27" fill="rgb(182, 0, 0)">U: -6.39</tspan></text><text class="probability-to-enter" dy="0.75em" x="27" y="7.199999999999999" fill="rgb(0, 0, 215)">0.00</text></g><g id="node-f6fe2302-3093-c613-19b1-8e382271918f" class="terminal-node node optimal" transform="translate(560, 95)"><path d="M-19.999998960714944,0L17.99999906464345,-19.999998960714944L17.99999906464345,19.999998960714944Z" fill="rgb(68, 255, 68)" stroke="rgb(0, 111, 0)" stroke-width="1.5px"/><text class="label" x="0" y="-27" text-anchor="middle"/><text class="payoff computed" dy="0.75em" x="0" y="27" text-anchor="middle"><tspan x="0"/></text><text class="aggregated-payoff" x="27" y="-7.6953125"><tspan x="27" class="negative" fill="rgb(182, 0, 0)">P: -$1,125</tspan><tspan dy="0.95em" class="negative" x="27" fill="rgb(182, 0, 0)">U: -3.48</tspan></text><text class="probability-to-enter" dy="0.75em" x="27" y="7.199999999999999" fill="rgb(0, 0, 215)">0.20</text></g><g id="node-650de3c1-89a7-6edb-45fc-3f4390217be1" class="terminal-node node optimal" transform="translate(560, 350)"><path d="M-19.999998960714944,0L17.99999906464345,-19.999998960714944L17.99999906464345,19.999998960714944Z" fill="rgb(68, 255, 68)" stroke="rgb(0, 111, 0)" stroke-width="1.5px"/><text class="label" x="0" y="-27" text-anchor="middle"/><text class="payoff computed" dy="0.75em" x="0" y="27" text-anchor="middle"><tspan x="0"/></text><text class="aggregated-payoff" x="27" y="-7.6953125"><tspan x="27" class="negative" fill="rgb(182, 0, 0)">P: -$1,950</tspan><tspan dy="0.95em" class="negative" x="27" fill="rgb(182, 0, 0)">U: -12.46</tspan></text><text class="probability-to-enter" dy="0.75em" x="27" y="7.199999999999999" fill="rgb(0, 0, 215)">0.20</text></g><g id="node-c651e6ea-12a4-a22d-53bf-75d76c682a9a" class="terminal-node node" transform="translate(560, 425)"><path d="M-19.999998960714944,0L17.99999906464345,-19.999998960714944L17.99999906464345,19.999998960714944Z" fill="rgb(68, 255, 68)" stroke="rgb(0, 0, 0)"/><text class="label" x="0" y="-27" text-anchor="middle"/><text class="payoff computed" dy="0.75em" x="0" y="27" text-anchor="middle"><tspan x="0"/></text><text class="aggregated-payoff" x="27" y="-7.6953125"><tspan x="27" class="negative" fill="rgb(182, 0, 0)">P: -$2,250</tspan><tspan dy="0.95em" class="negative" x="27" fill="rgb(182, 0, 0)">U: -19.09</tspan></text><text class="probability-to-enter" dy="0.75em" x="27" y="7.199999999999999" fill="rgb(0, 0, 215)">0.00</text></g><g id="node-68064964-eb3f-04ed-a132-ef0ba641d915" class="terminal-node node" transform="translate(560, 185)"><path d="M-19.999998960714944,0L17.99999906464345,-19.999998960714944L17.99999906464345,19.999998960714944Z" fill="rgb(68, 255, 68)" stroke="rgb(0, 0, 0)"/><text class="label" x="0" y="-27" text-anchor="middle"/><text class="payoff computed" dy="0.75em" x="0" y="27" text-anchor="middle"><tspan x="0"/></text><text class="aggregated-payoff" x="27" y="-7.6953125"><tspan x="27" class="negative" fill="rgb(182, 0, 0)">P: -$1,875</tspan><tspan dy="0.95em" class="negative" x="27" fill="rgb(182, 0, 0)">U: -11.18</tspan></text><text class="probability-to-enter" dy="0.75em" x="27" y="7.199999999999999" fill="rgb(0, 0, 215)">0.00</text></g><g id="node-72368212-8586-37b4-d3f1-8d836dd046e2" class="terminal-node node optimal" transform="translate(560, 260)"><path d="M-19.999998960714944,0L17.99999906464345,-19.999998960714944L17.99999906464345,19.999998960714944Z" fill="rgb(68, 255, 68)" stroke="rgb(0, 111, 0)" stroke-width="1.5px"/><text class="label" x="0" y="-27" text-anchor="middle"/><text class="payoff computed" dy="0.75em" x="0" y="27" text-anchor="middle"><tspan x="0"/></text><text class="aggregated-payoff" x="27" y="-7.6953125"><tspan x="27" class="negative" fill="rgb(182, 0, 0)">P: -$1,500</tspan><tspan dy="0.95em" class="negative" x="27" fill="rgb(182, 0, 0)">U: -6.39</tspan></text><text class="probability-to-enter" dy="0.75em" x="27" y="7.199999999999999" fill="rgb(0, 0, 215)">0.20</text></g><g id="node-3914f34b-4d69-c8b1-e282-3f868527e474" class="decision-node node optimal" transform="translate(425, 57.5)"><path d="M-20,-20h40v40h-40Z" fill="rgb(255, 119, 119)" stroke="rgb(0, 111, 0)" stroke-width="1.5px"/><text class="label" x="0" y="-27" text-anchor="middle"/><text class="payoff computed" dy="0.75em" x="0" y="27" text-anchor="middle"><tspan x="0" class="negative">P: -$1,125</tspan><tspan dy="1.1em" x="0" class="negative">U: -3.48</tspan></text><text class="aggregated-payoff" x="27" y="-6" fill="rgb(0, 111, 0)"><tspan x="27"/></text><text class="probability-to-enter" dy="0.75em" x="27" y="6" fill="rgb(0, 0, 215)"/></g><g id="node-4d604410-b847-114b-0451-93515bc95330" class="decision-node node optimal" transform="translate(425, 222.5)"><path d="M-20,-20h40v40h-40Z" fill="rgb(255, 119, 119)" stroke="rgb(0, 111, 0)" stroke-width="1.5px"/><text class="label" x="0" y="-27" text-anchor="middle"/><text class="payoff computed" dy="0.75em" x="0" y="27" text-anchor="middle"><tspan x="0" class="negative">P: -$1,500</tspan><tspan dy="1.1em" x="0" class="negative">U: -6.39</tspan></text><text class="aggregated-payoff" x="27" y="-6" fill="rgb(0, 111, 0)"><tspan x="27"/></text><text class="probability-to-enter" dy="0.75em" x="27" y="6" fill="rgb(0, 0, 215)"/></g><g id="node-75d9e7ac-c235-6b68-2095-d420d5e529da" class="decision-node node optimal" transform="translate(425, 387.5)"><path d="M-20,-20h40v40h-40Z" fill="rgb(255, 119, 119)" stroke="rgb(0, 111, 0)" stroke-width="1.5px"/><text class="label" x="0" y="-27" text-anchor="middle"/><text class="payoff computed" dy="0.75em" x="0" y="27" text-anchor="middle"><tspan x="0" class="negative">P: -$1,950</tspan><tspan dy="1.1em" x="0" class="negative">U: -12.46</tspan></text><text class="aggregated-payoff" x="27" y="-6" fill="rgb(0, 111, 0)"><tspan x="27"/></text><text class="probability-to-enter" dy="0.75em" x="27" y="6" fill="rgb(0, 0, 215)"/></g><g id="node-e0d7426a-7921-5318-4353-c38c7e2fee33" class="chance-node node optimal" transform="translate(290, 222.5)"><path d="M-19.999998960714944,0C-19.999998960714944,-11.045694422638713,-11.045694422638713,-19.999998960714944,0,-19.999998960714944C11.045694422638713,-19.999998960714944,19.999998960714944,-11.045694422638713,19.999998960714944,0C19.999998960714944,11.045694422638713,11.045694422638713,19.999998960714944,0,19.999998960714944C-11.045694422638713,19.999998960714944,-19.999998960714944,11.045694422638713,-19.999998960714944,0" fill="rgb(255, 255, 68)" stroke="rgb(0, 111, 0)" stroke-width="1.5px"/><text class="label" x="0" y="-27" text-anchor="middle"/><text class="payoff computed" dy="0.75em" x="0" y="27" text-anchor="middle"><tspan x="0" class="negative">P: -$1,525</tspan><tspan dy="1.1em" x="0" class="negative">U: -7.44</tspan></text><text class="aggregated-payoff" x="27" y="-6" fill="rgb(0, 111, 0)"><tspan x="27"/></text><text class="probability-to-enter" dy="0.75em" x="27" y="6" fill="rgb(0, 0, 215)"/></g><g id="node-1e42a206-0deb-928d-e075-05d145f3eda1" class="terminal-node node" transform="translate(560, 605)"><path d="M-19.999998960714944,0L17.99999906464345,-19.999998960714944L17.99999906464345,19.999998960714944Z" fill="rgb(68, 255, 68)" stroke="rgb(0, 0, 0)"/><text class="label" x="0" y="-27" text-anchor="middle"/><text class="payoff computed" dy="0.75em" x="0" y="27" text-anchor="middle"><tspan x="0"/></text><text class="aggregated-payoff" x="27" y="-7.6953125"><tspan x="27" class="negative" fill="rgb(182, 0, 0)">P: -$1,662.5</tspan><tspan dy="0.95em" class="negative" x="27" fill="rgb(182, 0, 0)">U: -8.18</tspan></text><text class="probability-to-enter" dy="0.75em" x="27" y="7.199999999999999" fill="rgb(0, 0, 215)">0.00</text></g><g id="node-83f543fe-5b8c-8d7b-8922-03721c79da49" class="terminal-node node" transform="translate(560, 680)"><path d="M-19.999998960714944,0L17.99999906464345,-19.999998960714944L17.99999906464345,19.999998960714944Z" fill="rgb(68, 255, 68)" stroke="rgb(0, 0, 0)"/><text class="label" x="0" y="-27" text-anchor="middle"/><text class="payoff computed" dy="0.75em" x="0" y="27" text-anchor="middle"><tspan x="0"/></text><text class="aggregated-payoff" x="27" y="-7.6953125"><tspan x="27" class="negative" fill="rgb(182, 0, 0)">P: -$1,500</tspan><tspan dy="0.95em" class="negative" x="27" fill="rgb(182, 0, 0)">U: -6.39</tspan></text><text class="probability-to-enter" dy="0.75em" x="27" y="7.199999999999999" fill="rgb(0, 0, 215)">0.00</text></g><g id="node-8d3783b5-bf19-2d54-a398-6c20446af701" class="terminal-node node" transform="translate(560, 770)"><path d="M-19.999998960714944,0L17.99999906464345,-19.999998960714944L17.99999906464345,19.999998960714944Z" fill="rgb(68, 255, 68)" stroke="rgb(0, 0, 0)"/><text class="label" x="0" y="-27" text-anchor="middle"/><text class="payoff computed" dy="0.75em" x="0" y="27" text-anchor="middle"><tspan x="0"/></text><text class="aggregated-payoff" x="27" y="-7.6953125"><tspan x="27" class="negative" fill="rgb(182, 0, 0)">P: -$1,700</tspan><tspan dy="0.95em" class="negative" x="27" fill="rgb(182, 0, 0)">U: -8.65</tspan></text><text class="probability-to-enter" dy="0.75em" x="27" y="7.199999999999999" fill="rgb(0, 0, 215)">0.00</text></g><g id="node-0585c4a8-8460-05af-5e55-c5bb318d611a" class="terminal-node node" transform="translate(560, 845)"><path d="M-19.999998960714944,0L17.99999906464345,-19.999998960714944L17.99999906464345,19.999998960714944Z" fill="rgb(68, 255, 68)" stroke="rgb(0, 0, 0)"/><text class="label" x="0" y="-27" text-anchor="middle"/><text class="payoff computed" dy="0.75em" x="0" y="27" text-anchor="middle"><tspan x="0"/></text><text class="aggregated-payoff" x="27" y="-7.6953125"><tspan x="27" class="negative" fill="rgb(182, 0, 0)">P: -$1,750</tspan><tspan dy="0.95em" class="negative" x="27" fill="rgb(182, 0, 0)">U: -9.31</tspan></text><text class="probability-to-enter" dy="0.75em" x="27" y="7.199999999999999" fill="rgb(0, 0, 215)">0.00</text></g><g id="node-badfee9b-0c49-d8db-f47e-203910f58e69" class="terminal-node node" transform="translate(560, 935)"><path d="M-19.999998960714944,0L17.99999906464345,-19.999998960714944L17.99999906464345,19.999998960714944Z" fill="rgb(68, 255, 68)" stroke="rgb(0, 0, 0)"/><text class="label" x="0" y="-27" text-anchor="middle"/><text class="payoff computed" dy="0.75em" x="0" y="27" text-anchor="middle"><tspan x="0"/></text><text class="aggregated-payoff" x="27" y="-7.6953125"><tspan x="27" class="negative" fill="rgb(182, 0, 0)">P: -$1,737.5</tspan><tspan dy="0.95em" class="negative" x="27" fill="rgb(182, 0, 0)">U: -9.14</tspan></text><text class="probability-to-enter" dy="0.75em" x="27" y="7.199999999999999" fill="rgb(0, 0, 215)">0.00</text></g><g id="node-233d9b62-d601-0ae3-a177-bea80f63eb31" class="terminal-node node" transform="translate(560, 1010)"><path d="M-19.999998960714944,0L17.99999906464345,-19.999998960714944L17.99999906464345,19.999998960714944Z" fill="rgb(68, 255, 68)" stroke="rgb(0, 0, 0)"/><text class="label" x="0" y="-27" text-anchor="middle"/><text class="payoff computed" dy="0.75em" x="0" y="27" text-anchor="middle"><tspan x="0"/></text><text class="aggregated-payoff" x="27" y="-7.6953125"><tspan x="27" class="negative" fill="rgb(182, 0, 0)">P: -$2,250</tspan><tspan dy="0.95em" class="negative" x="27" fill="rgb(182, 0, 0)">U: -19.09</tspan></text><text class="probability-to-enter" dy="0.75em" x="27" y="7.199999999999999" fill="rgb(0, 0, 215)">0.00</text></g><g id="node-8824ca56-d3cf-bae2-fe15-2a841696ae1e" class="chance-node node" transform="translate(290, 807.5)"><path d="M-19.999998960714944,0C-19.999998960714944,-11.045694422638713,-11.045694422638713,-19.999998960714944,0,-19.999998960714944C11.045694422638713,-19.999998960714944,19.999998960714944,-11.045694422638713,19.999998960714944,0C19.999998960714944,11.045694422638713,11.045694422638713,19.999998960714944,0,19.999998960714944C-11.045694422638713,19.999998960714944,-19.999998960714944,11.045694422638713,-19.999998960714944,0" fill="rgb(255, 255, 68)" stroke="rgb(102, 102, 0)"/><text class="label" x="0" y="-27" text-anchor="middle"/><text class="payoff computed" dy="0.75em" x="0" y="27" text-anchor="middle"><tspan x="0" class="negative">P: -$895.83</tspan><tspan dy="1.1em" x="0" class="negative">U: -8.06</tspan></text><text class="aggregated-payoff" x="27" y="-6" fill="rgb(0, 111, 0)"><tspan x="27"/></text><text class="probability-to-enter" dy="0.75em" x="27" y="6" fill="rgb(0, 0, 215)"/></g><g id="node-3b7bc879-9fc4-b97c-8b48-fa52e571897f" class="decision-node node" transform="translate(425, 642.5)"><path d="M-20,-20h40v40h-40Z" fill="rgb(255, 119, 119)" stroke="rgb(102, 0, 0)"/><text class="label" x="0" y="-27" text-anchor="middle"/><text class="payoff computed" dy="0.75em" x="0" y="27" text-anchor="middle"><tspan x="0" class="negative">P: -$750</tspan><tspan dy="1.1em" x="0" class="negative">U: -6.39</tspan></text><text class="aggregated-payoff" x="27" y="-6" fill="rgb(0, 111, 0)"><tspan x="27"/></text><text class="probability-to-enter" dy="0.75em" x="27" y="6" fill="rgb(0, 0, 215)"/></g><g id="node-1c068624-0100-7ed7-77c1-1579743d2bd2" class="decision-node node" transform="translate(425, 807.5)"><path d="M-20,-20h40v40h-40Z" fill="rgb(255, 119, 119)" stroke="rgb(102, 0, 0)"/><text class="label" x="0" y="-27" text-anchor="middle"/><text class="payoff computed" dy="0.75em" x="0" y="27" text-anchor="middle"><tspan x="0" class="negative">P: -$950</tspan><tspan dy="1.1em" x="0" class="negative">U: -8.65</tspan></text><text class="aggregated-payoff" x="27" y="-6" fill="rgb(0, 111, 0)"><tspan x="27"/></text><text class="probability-to-enter" dy="0.75em" x="27" y="6" fill="rgb(0, 0, 215)"/></g><g id="node-4386bfff-05c0-1291-5db1-d4d1dad67122" class="decision-node node" transform="translate(425, 972.5)"><path d="M-20,-20h40v40h-40Z" fill="rgb(255, 119, 119)" stroke="rgb(102, 0, 0)"/><text class="label" x="0" y="-27" text-anchor="middle"/><text class="payoff computed" dy="0.75em" x="0" y="27" text-anchor="middle"><tspan x="0" class="negative">P: -$987.5</tspan><tspan dy="1.1em" x="0" class="negative">U: -9.14</tspan></text><text class="aggregated-payoff" x="27" y="-6" fill="rgb(0, 111, 0)"><tspan x="27"/></text><text class="probability-to-enter" dy="0.75em" x="27" y="6" fill="rgb(0, 0, 215)"/></g><g id="node-c4ba10ba-882f-1850-59ff-11e6a63850aa" class="chance-node node optimal" transform="translate(155, 368.75)"><path d="M-19.999998960714944,0C-19.999998960714944,-11.045694422638713,-11.045694422638713,-19.999998960714944,0,-19.999998960714944C11.045694422638713,-19.999998960714944,19.999998960714944,-11.045694422638713,19.999998960714944,0C19.999998960714944,11.045694422638713,11.045694422638713,19.999998960714944,0,19.999998960714944C-11.045694422638713,19.999998960714944,-19.999998960714944,11.045694422638713,-19.999998960714944,0" fill="rgb(255, 255, 68)" stroke="rgb(0, 111, 0)" stroke-width="1.5px"/><text class="label" x="0" y="-27" text-anchor="middle"/><text class="payoff computed" dy="0.75em" x="0" y="27" text-anchor="middle"><tspan x="0" class="negative">P: -$1,215</tspan><tspan dy="1.1em" x="0" class="negative">U: -5.15</tspan></text><text class="aggregated-payoff" x="27" y="-6" fill="rgb(0, 111, 0)"><tspan x="27"/></text><text class="probability-to-enter" dy="0.75em" x="27" y="6" fill="rgb(0, 0, 215)"/></g><g id="node-71a2a998-6055-6be0-d429-6b54b725c12d" class="chance-node node" transform="translate(155, 953.75)"><path d="M-19.999998960714944,0C-19.999998960714944,-11.045694422638713,-11.045694422638713,-19.999998960714944,0,-19.999998960714944C11.045694422638713,-19.999998960714944,19.999998960714944,-11.045694422638713,19.999998960714944,0C19.999998960714944,11.045694422638713,11.045694422638713,19.999998960714944,0,19.999998960714944C-11.045694422638713,19.999998960714944,-19.999998960714944,11.045694422638713,-19.999998960714944,0" fill="rgb(255, 255, 68)" stroke="rgb(102, 102, 0)"/><text class="label" x="0" y="-27" text-anchor="middle"/><text class="payoff computed" dy="0.75em" x="0" y="27" text-anchor="middle"><tspan x="0" class="negative">P: -$697.92</tspan><tspan dy="1.1em" x="0" class="negative">U: -6.18</tspan></text><text class="aggregated-payoff" x="27" y="-6" fill="rgb(0, 111, 0)"><tspan x="27"/></text><text class="probability-to-enter" dy="0.75em" x="27" y="6" fill="rgb(0, 0, 215)"/></g><g id="node-1c3b6341-1400-9f68-d1ad-1fee3d86b81e" class="decision-node node optimal" transform="translate(20, 837.5)"><path d="M-20,-20h40v40h-40Z" fill="rgb(255, 119, 119)" stroke="rgb(0, 111, 0)" stroke-width="1.5px"/><text class="label" x="0" y="-27" text-anchor="middle"/><text class="payoff computed" dy="0.75em" x="0" y="27" text-anchor="middle"><tspan x="0" class="negative">P: -$1,215</tspan><tspan dy="1.1em" x="0" class="negative">U: -5.15</tspan></text><text class="aggregated-payoff" x="27" y="-6" fill="rgb(0, 111, 0)"><tspan x="27"/></text><text class="probability-to-enter" dy="0.75em" x="27" y="6" fill="rgb(0, 0, 215)"/></g></g><g class="edges"><g id="edge-13aa297f-ecb8-e4a9-462b-4827f7a25b92" class="edge"><path d="M41,837.5L50,837.5L70,1189.9999999999998L532,1189.9999999999998" fill="none" marker-end="url(#arrow)" stroke="rgb(66, 66, 66)" stroke-width="1.5px"/><g class="label-group" transform="translate(72, 1183)"><text class="label"><tspan x="0">AM</tspan></text></g><text class="payoff" dy="0.75em" x="72" y="1196.9999999999998"><tspan class="negative" x="72" fill="rgb(182, 0, 0)">P: -$1,500</tspan><tspan dy="1.1em" class="negative" x="72" fill="rgb(182, 0, 0)">U: -6.39</tspan></text><text class="probability" text-anchor="end" dy="0.75em" x="524" y="1196.9999999999998" fill="rgb(0, 0, 215)">0.00</text></g><g id="edge-fa07ac09-1386-7a0e-a9f1-7eecb985508f" class="edge"><path d="M446,972.4999999999999L455,972.4999999999999L475,1009.9999999999999L532,1009.9999999999999" fill="none" marker-end="url(#arrow)" stroke="rgb(66, 66, 66)" stroke-width="1.5px"/><g class="label-group" transform="translate(477, 1003)"><text class="label"/></g><text class="payoff" dy="0.75em" x="477" y="1016.9999999999999"><tspan class="negative" x="477" fill="rgb(182, 0, 0)">P: -$1,500</tspan><tspan dy="1.1em" class="negative" x="477" fill="rgb(182, 0, 0)">U: -19.09</tspan></text><text class="probability" text-anchor="end" dy="0.75em" x="565.046875" y="1016.9999999999999" fill="rgb(0, 0, 215)">0.00</text></g><g id="edge-448821e3-8ebf-c62a-e192-0a21e65ee0b9" class="edge"><path d="M446,57.5L455,57.5L475,20L532,20" fill="none" marker-end="url(#arrow)" stroke="rgb(66, 66, 66)" stroke-width="1.5px"/><g class="label-group" transform="translate(477,13)"><text class="label"><tspan x="0">switch AM</tspan></text></g><text class="payoff" dy="0.75em" x="477" y="27"><tspan x="477" class="negative" fill="rgb(182, 0, 0)">P: -$1,800</tspan><tspan dy="1.1em" class="negative" x="477" fill="rgb(182, 0, 0)">U: -10.02</tspan></text><text class="probability" text-anchor="end" dy="0.75em" x="565.046875" y="27" fill="rgb(0, 0, 215)">0.00</text></g><g id="edge-5d8b847c-72f2-a913-dcdc-a6f397af2d6c" class="edge"><path d="M446,387.5L455,387.5L475,425L532,425" fill="none" marker-end="url(#arrow)" stroke="rgb(66, 66, 66)" stroke-width="1.5px"/><g class="label-group" transform="translate(477, 418)"><text class="label"/></g><text class="payoff" dy="0.75em" x="477" y="432"><tspan class="negative" x="477" fill="rgb(182, 0, 0)">P: -$2,250</tspan><tspan dy="1.1em" class="negative" x="477" fill="rgb(182, 0, 0)">U: -19.09</tspan></text><text class="probability" text-anchor="end" dy="0.75em" x="565.046875" y="432" fill="rgb(0, 0, 215)">0.00</text></g><g id="edge-3f1b4c6a-0758-a7e2-8a8e-309913c521f9" class="edge"><path d="M446,222.5L455,222.5L475,185L532,185" fill="none" marker-end="url(#arrow)" stroke="rgb(66, 66, 66)" stroke-width="1.5px"/><g class="label-group" transform="translate(477, 178)"><text class="label"><tspan x="0">switch AM</tspan></text></g><text class="payoff" dy="0.75em" x="477" y="192"><tspan class="negative" x="477" fill="rgb(182, 0, 0)">P: -$1,875</tspan><tspan dy="1.1em" class="negative" x="477" fill="rgb(182, 0, 0)">U: -11.18</tspan></text><text class="probability" text-anchor="end" dy="0.75em" x="565.046875" y="192" fill="rgb(0, 0, 215)">0.00</text></g><g id="edge-d0c961c1-e241-8f4a-c245-34b6329665e5" class="edge"><path d="M446,642.5L455,642.5L475,605L532,605" fill="none" marker-end="url(#arrow)" stroke="rgb(66, 66, 66)" stroke-width="1.5px"/><g class="label-group" transform="translate(477, 598)"><text class="label"><tspan x="0">switch AM</tspan></text></g><text class="payoff" dy="0.75em" x="477" y="612"><tspan class="negative" x="477" fill="rgb(182, 0, 0)">P: -$912.5</tspan><tspan dy="1.1em" class="negative" x="477" fill="rgb(182, 0, 0)">U: -8.18</tspan></text><text class="probability" text-anchor="end" dy="0.75em" x="565.046875" y="612" fill="rgb(0, 0, 215)">0.00</text></g><g id="edge-db46dd0c-131f-be15-6a76-eb6e860523aa" class="edge"><path d="M446,807.5L455,807.5L475,845L532,845" fill="none" marker-end="url(#arrow)" stroke="rgb(66, 66, 66)" stroke-width="1.5px"/><g class="label-group" transform="translate(477, 838)"><text class="label"/></g><text class="payoff" dy="0.75em" x="477" y="852"><tspan class="negative" x="477" fill="rgb(182, 0, 0)">P: -$1,000</tspan><tspan dy="1.1em" class="negative" x="477" fill="rgb(182, 0, 0)">U: -9.31</tspan></text><text class="probability" text-anchor="end" dy="0.75em" x="565.046875" y="852" fill="rgb(0, 0, 215)">0.00</text></g><g id="edge-e6a5bdb1-69e8-39e8-f7a0-fecb75d55022" class="edge"><path d="M446,807.5L455,807.5L475,770L532,770" fill="none" marker-end="url(#arrow)" stroke="rgb(66, 66, 66)" stroke-width="1.5px"/><g class="label-group" transform="translate(477, 763)"><text class="label"><tspan x="0">switch AM</tspan></text></g><text class="payoff" dy="0.75em" x="477" y="777"><tspan class="negative" x="477" fill="rgb(182, 0, 0)">P: -$950</tspan><tspan dy="1.1em" class="negative" x="477" fill="rgb(182, 0, 0)">U: -8.65</tspan></text><text class="probability" text-anchor="end" dy="0.75em" x="555.12109375" y="777" fill="rgb(0, 0, 215)">1.00</text></g><g id="edge-fb85de9a-e522-cb65-dad3-2f8ccc3d99fb" class="edge"><path d="M446,642.5L455,642.5L475,680L532,680" fill="none" marker-end="url(#arrow)" stroke="rgb(66, 66, 66)" stroke-width="1.5px"/><g class="label-group" transform="translate(477, 673)"><text class="label"/></g><text class="payoff" dy="0.75em" x="477" y="687"><tspan class="negative" x="477" fill="rgb(182, 0, 0)">P: -$750</tspan><tspan dy="1.1em" class="negative" x="477" fill="rgb(182, 0, 0)">U: -6.39</tspan></text><text class="probability" text-anchor="end" dy="0.75em" x="555.12109375" y="687" fill="rgb(0, 0, 215)">1.00</text></g><g id="edge-a25a87ad-551d-a684-1746-91563228c961" class="edge"><path d="M41,837.5L50,837.5L70,953.7499999999999L127,953.7499999999999" fill="none" marker-end="url(#arrow)" stroke="rgb(66, 66, 66)" stroke-width="1.5px"/><g class="label-group" transform="translate(72, 946.75)"><text class="label"><tspan x="0">KEC 250,000</tspan></text></g><text class="payoff" dy="0.75em" x="72" y="960.7499999999999"><tspan class="negative" x="72" fill="rgb(182, 0, 0)">P: -$750</tspan><tspan dy="1.1em" x="72">U: 0</tspan></text><text class="probability" text-anchor="end" dy="0.75em" x="150.12109375" y="960.7499999999999" fill="rgb(0, 0, 215)">0.00</text></g><g id="edge-1d6b44f2-199f-e91d-05a1-60af9a786917" class="edge"><path d="M176,953.7499999999999L185,953.7499999999999L205,1100L532,1100" fill="none" marker-end="url(#arrow)" stroke="rgb(66, 66, 66)" stroke-width="1.5px"/><g class="label-group" transform="translate(207, 1093)"><text class="label"/></g><text class="payoff" dy="0.75em" x="207" y="1107"><tspan class="negative" x="207" fill="rgb(182, 0, 0)">P: -$500</tspan><tspan dy="1.1em" class="negative" x="207" fill="rgb(182, 0, 0)">U: -4.29</tspan></text><text class="probability" text-anchor="end" dy="0.75em" x="524" y="1107" fill="rgb(0, 0, 215)">0.50</text></g><g id="edge-bc9ba2a1-90ee-7b8c-f3ce-714b417d6091" class="edge"><path d="M176,953.7499999999999L185,953.7499999999999L205,807.5L262,807.5" fill="none" marker-end="url(#arrow)" stroke="rgb(66, 66, 66)" stroke-width="1.5px"/><g class="label-group" transform="translate(207, 800.5)"><text class="label"/></g><text class="payoff" dy="0.75em" x="207" y="814.5"><tspan x="207">P: $0</tspan><tspan dy="1.1em" x="207">U: 0</tspan></text><text class="probability" text-anchor="end" dy="0.75em" x="265.85546875" y="814.5" fill="rgb(0, 0, 215)">0.50</text></g><g id="edge-d760ee8a-dad7-4133-183d-286269326824" class="edge"><path d="M311,807.5L320,807.5L340,642.5L397,642.5" fill="none" marker-end="url(#arrow)" stroke="rgb(66, 66, 66)" stroke-width="1.5px"/><g class="label-group" transform="translate(342, 635.5)"><text class="label"><tspan x="0">50%</tspan></text></g><text class="payoff" dy="0.75em" x="342" y="649.5"><tspan x="342">P: $0</tspan><tspan dy="1.1em" x="342">U: 0</tspan></text><text class="probability" text-anchor="end" dy="0.75em" x="407.892578125" y="649.5" fill="rgb(0, 0, 215)">0.333</text></g><g id="edge-a90d832c-874e-f56d-a054-36583fc04ca6" class="edge"><path d="M311,807.5L320,807.5L340,807.5L397,807.5" fill="none" marker-end="url(#arrow)" stroke="rgb(66, 66, 66)" stroke-width="1.5px"/><g class="label-group" transform="translate(342, 800.5)"><text class="label"><tspan x="0">100%</tspan></text></g><text class="payoff" dy="0.75em" x="342" y="814.5"><tspan x="342">P: $0</tspan><tspan dy="1.1em" x="342">U: 0</tspan></text><text class="probability" text-anchor="end" dy="0.75em" x="407.892578125" y="814.5" fill="rgb(0, 0, 215)">0.333</text></g><g id="edge-607f651f-c221-bf21-e8c0-8c0936bb4bf7" class="edge"><path d="M311,807.5L320,807.5L340,972.4999999999999L397,972.4999999999999" fill="none" marker-end="url(#arrow)" stroke="rgb(66, 66, 66)" stroke-width="1.5px"/><g class="label-group" transform="translate(342, 965.5)"><text class="label"><tspan x="0">200%</tspan></text></g><text class="payoff" dy="0.75em" x="342" y="979.4999999999999"><tspan x="342">P: $0</tspan><tspan dy="1.1em" x="342">U: 0</tspan></text><text class="probability" text-anchor="end" dy="0.75em" x="407.892578125" y="979.4999999999999" fill="rgb(0, 0, 215)">0.333</text></g><g id="edge-67041e2a-ff96-fa33-1ca2-15650aa56ef1" class="edge"><path d="M446,972.4999999999999L455,972.4999999999999L475,934.9999999999999L532,934.9999999999999" fill="none" marker-end="url(#arrow)" stroke="rgb(66, 66, 66)" stroke-width="1.5px"/><g class="label-group" transform="translate(477, 928)"><text class="label"><tspan x="0">switch AM</tspan></text></g><text class="payoff" dy="0.75em" x="477" y="941.9999999999999"><tspan class="negative" x="477" fill="rgb(182, 0, 0)">P: -$987.5</tspan><tspan dy="1.1em" class="negative" x="477" fill="rgb(182, 0, 0)">U: -9.14</tspan></text><text class="probability" text-anchor="end" dy="0.75em" x="565.046875" y="941.9999999999999" fill="rgb(0, 0, 215)">1.00</text></g><g id="edge-bceb0e2c-904b-ecdd-7389-1a8a05f175d6" class="edge optimal"><path d="M41,837.5L50,837.5L70,368.75L127,368.75" fill="none" marker-end="url(#arrow-optimal)" stroke="rgb(0, 111, 0)" stroke-width="2.4px"/><g class="label-group" transform="translate(72, 361.75)"><text class="label"><tspan x="0"/><tspan dy="-1.1em" x="0">KEC 500,000</tspan></text></g><text class="payoff" dy="0.75em" x="72" y="375.75"><tspan x="72">P: $0</tspan><tspan dy="1.1em" x="72">U: 0</tspan></text><text class="probability" text-anchor="end" dy="0.75em" x="130.85546875" y="375.75" fill="rgb(0, 0, 215)">1.00</text></g><g id="edge-b0b93c27-140e-e9bf-1543-fee12d36acb1" class="edge optimal"><path d="M176,368.75L185,368.75L205,222.5L262,222.5" fill="none" marker-end="url(#arrow-optimal)" stroke="rgb(0, 111, 0)" stroke-width="2.4px"/><g class="label-group" transform="translate(207, 215.5)"><text class="label"><tspan x="0">tax</tspan></text></g><text class="payoff" dy="0.75em" x="207" y="229.5"><tspan class="" x="207">P: $0</tspan><tspan dy="1.1em" x="207">U: 0</tspan></text><text class="probability" text-anchor="end" dy="0.75em" x="265.85546875" y="229.5" fill="rgb(0, 0, 215)">0.60</text></g><g id="edge-5639279c-c17d-8268-6a5a-6ac4a4dc648b" class="edge optimal"><path d="M311,222.5L320,222.5L340,57.5L397,57.5" fill="none" marker-end="url(#arrow-optimal)" stroke="rgb(0, 111, 0)" stroke-width="2.4px"/><g class="label-group" transform="translate(342,50.5)"><text class="label"><tspan x="0">50%</tspan></text></g><text class="payoff" dy="0.75em" x="342" y="64.5"><tspan class="" x="342">P: $0</tspan><tspan dy="1.1em" x="342">U: 0</tspan></text><text class="probability" text-anchor="end" dy="0.75em" x="407.892578125" y="64.5" fill="rgb(0, 0, 215)">0.333</text></g><g id="edge-6bf605d4-9a90-2d3a-7985-cbd8cf8e9760" class="edge optimal"><path d="M176,368.75L185,368.75L205,515L532,515" fill="none" marker-end="url(#arrow-optimal)" stroke="rgb(0, 111, 0)" stroke-width="2.4px"/><g class="label-group" transform="translate(207, 508)"><text class="label"/></g><text class="payoff" dy="0.75em" x="207" y="522"><tspan class="negative" x="207" fill="rgb(182, 0, 0)">P: -$750</tspan><tspan dy="1.1em" class="negative" x="207" fill="rgb(182, 0, 0)">U: -1.72</tspan></text><text class="probability" text-anchor="end" dy="0.75em" x="524" y="522" fill="rgb(0, 0, 215)">0.40</text></g><g id="edge-a4686928-769d-1e51-97b4-90ec47198d59" class="edge optimal"><path d="M446,57.5L455,57.5L475,95L532,95" fill="none" marker-end="url(#arrow-optimal)" stroke="rgb(0, 111, 0)" stroke-width="2.4px"/><g class="label-group" transform="translate(477,88)"><text class="label"/></g><text class="payoff" dy="0.75em" x="477" y="102"><tspan x="477" class="negative" fill="rgb(182, 0, 0)">P: -$1,125</tspan><tspan dy="1.1em" class="negative" x="477" fill="rgb(182, 0, 0)">U: -3.48</tspan></text><text class="probability" text-anchor="end" dy="0.75em" x="565.046875" y="102" fill="rgb(0, 0, 215)">1.00</text></g><g id="edge-d31fcf4c-2d5e-3bad-156c-7ce90f7743e6" class="edge optimal"><path d="M311,222.5L320,222.5L340,387.5L397,387.5" fill="none" marker-end="url(#arrow-optimal)" stroke="rgb(0, 111, 0)" stroke-width="2.4px"/><g class="label-group" transform="translate(342, 380.5)"><text class="label"><tspan x="0">200%</tspan></text></g><text class="payoff" dy="0.75em" x="342" y="394.5"><tspan x="342">P: $0</tspan><tspan dy="1.1em" x="342">U: 0</tspan></text><text class="probability" text-anchor="end" dy="0.75em" x="407.892578125" y="394.5" fill="rgb(0, 0, 215)">0.333</text></g><g id="edge-9316ca0e-1eeb-21d7-85ad-32657acc6b83" class="edge optimal"><path d="M446,387.5L455,387.5L475,350L532,350" fill="none" marker-end="url(#arrow-optimal)" stroke="rgb(0, 111, 0)" stroke-width="2.4px"/><g class="label-group" transform="translate(477, 343)"><text class="label"><tspan x="0">switch AM</tspan></text></g><text class="payoff" dy="0.75em" x="477" y="357"><tspan class="negative" x="477" fill="rgb(182, 0, 0)">P: -$1,950</tspan><tspan dy="1.1em" class="negative" x="477" fill="rgb(182, 0, 0)">U: -12.46</tspan></text><text class="probability" text-anchor="end" dy="0.75em" x="565.046875" y="357" fill="rgb(0, 0, 215)">1.00</text></g><g id="edge-4312685c-3add-22c7-da51-76545f675848" class="edge optimal"><path d="M311,222.5L320,222.5L340,222.5L397,222.5" fill="none" marker-end="url(#arrow-optimal)" stroke="rgb(0, 111, 0)" stroke-width="2.4px"/><g class="label-group" transform="translate(342, 215.5)"><text class="label"><tspan x="0">100%</tspan></text></g><text class="payoff" dy="0.75em" x="342" y="229.5"><tspan x="342">P: $0</tspan><tspan dy="1.1em" x="342">U: 0</tspan></text><text class="probability" text-anchor="end" dy="0.75em" x="407.892578125" y="229.5" fill="rgb(0, 0, 215)">0.333</text></g><g id="edge-c80c05d4-5898-1b64-866a-8e044346a3ae" class="edge optimal"><path d="M446,222.5L455,222.5L475,260L532,260" fill="none" marker-end="url(#arrow-optimal)" stroke="rgb(0, 111, 0)" stroke-width="2.4px"/><g class="label-group" transform="translate(477, 253)"><text class="label"/></g><text class="payoff" dy="0.75em" x="477" y="267"><tspan class="negative" x="477" fill="rgb(182, 0, 0)">P: -$1,500</tspan><tspan dy="1.1em" class="negative" x="477" fill="rgb(182, 0, 0)">U: -6.39</tspan></text><text class="probability" text-anchor="end" dy="0.75em" x="565.046875" y="267" fill="rgb(0, 0, 215)">1.00</text></g></g><g class="floating-texts"/></g></g><defs><marker id="arrow" viewBox="0 -5 10 10" refX="5" refY="0" markerWidth="4" markerHeight="4" orient="auto"><path d="M0,-5L10,0L0,5" class="arrowHead" fill="rgb(66, 66, 66)"/></marker><marker id="arrow-optimal" viewBox="0 -5 10 10" refX="5" refY="0" markerWidth="4" markerHeight="4" orient="auto"><path d="M0,-5L10,0L0,5" class="arrowHead" fill="rgb(0, 111, 0)"/></marker><marker id="arrow-selected" viewBox="0 -5 10 10" refX="5" refY="0" markerWidth="4" markerHeight="4" orient="auto"><path d="M0,-5L10,0L0,5" class="arrowHead" fill="rgb(4, 90, 209)"/></marker></defs><g class="sd-title-container" transform="translate(374,15)"><text class="sd-title" dy="0.75em" text-anchor="middle" style="; font-size: 16px; font-weight: 700"/><text class="sd-description" dy="0.75em" transform="translate(0,0)" text-anchor="middle" style="; font-weight: 700"/></g></svg>