<svg xmlns:xlink="http://www.w3.org/1999/xlink" xmlns="http://www.w3.org/2000/svg" class="sd-tree-designer" width="748" height="1076.0000019073486" style="; color: rgb(0, 0, 0); font-family: sans-serif; font-kerning: auto; font-size: 12px; font-stretch: 100%; font-style: normal; font-variant: normal; font-variant-ligatures: normal; font-variant-caps: normal; font-variant-numeric: normal; font-variant-east-asian: normal; font-weight: 400; opacity: 1; color-interpolation: srgb; color-interpolation-filters: linearrgb; color-rendering: auto" text-align="start" text-align-last="auto" text-decoration="none solid rgb(0, 0, 0)" text-decoration-line="none" text-decoration-style="solid" text-decoration-color="rgb(0, 0, 0)" text-decoration-skip-ink="auto" text-underline-position="auto" text-indent="0px" text-rendering="auto" text-shadow="none" text-size-adjust="auto" text-overflow="clip" text-transform="none" fill="rgb(0, 0, 0)" fill-opacity="1" fill-rule="nonzero" stroke="none" stroke-dasharray="none" stroke-dashoffset="0px" stroke-linecap="butt" stroke-linejoin="miter" stroke-miterlimit="4" stroke-opacity="1" stroke-width="1px" text-anchor="start" xlink="http://www.w3.org/1999/xlink"><g class="sd-wrapper-group" transform="scale(1)"><g class="brush" fill="none" pointer-events="all"><rect class="overlay" pointer-events="all" cursor="crosshair" x="0" y="0" width="748" height="1076.0000019073486"/></g><g class="main-group" transform="translate(25,25)"><g class="nodes"><g id="node-889403a0-020b-c10f-0b73-1d3b150c4b4f" class="decision-node node optimal" transform="translate(20  244)"><path d="M-20,-20h40v40h-40Z" fill="rgb(255, 119, 119)" stroke="rgb(0, 111, 0)" stroke-width="1.5px"/><text class="label" x="0" y="-27" text-anchor="middle"/><text class="payoff computed" dy="0.75em" x="0" y="27" text-anchor="middle"><tspan x="0">$100,000</tspan></text><text class="aggregated-payoff" x="27" y="-6" fill="rgb(0, 111, 0)"><tspan x="27"/></text><text class="probability-to-enter" dy="0.75em" x="27" y="6" fill="rgb(0, 0, 215)"/></g><g id="node-951d8e5f-eb4d-8ed9-c50e-615bc09c3f35" class="chance-node node optimal" transform="translate(300  90)"><path d="M-19.999998960714944,0C-19.999998960714944,-11.045694422638713,-11.045694422638713,-19.999998960714944,0,-19.999998960714944C11.045694422638713,-19.999998960714944,19.999998960714944,-11.045694422638713,19.999998960714944,0C19.999998960714944,11.045694422638713,11.045694422638713,19.999998960714944,0,19.999998960714944C-11.045694422638713,19.999998960714944,-19.999998960714944,11.045694422638713,-19.999998960714944,0" fill="rgb(255, 255, 68)" stroke="rgb(0, 111, 0)" stroke-width="1.5px"/><text class="label" x="0" y="-27" text-anchor="middle"/><text class="payoff computed" dy="0.75em" x="0" y="27" text-anchor="middle"><tspan x="0">$750,000</tspan></text><text class="aggregated-payoff" x="27" y="-6" fill="rgb(0, 111, 0)"><tspan x="27"/></text><text class="probability-to-enter" dy="0.75em" x="27" y="6" fill="rgb(0, 0, 215)"/></g><g id="node-a61fcaac-57c6-720e-f894-30a15b00996c" class="terminal-node node optimal" transform="translate(580  20)"><path d="M-19.999998960714944,0L17.99999906464345,-19.999998960714944L17.99999906464345,19.999998960714944Z" fill="rgb(68, 255, 68)" stroke="rgb(0, 111, 0)" stroke-width="1.5px"/><text class="label" x="0" y="-27" text-anchor="middle"/><text class="payoff computed" dy="0.75em" x="0" y="27" text-anchor="middle"><tspan x="0"/></text><text class="aggregated-payoff" x="27" y="-6"><tspan x="27">$350,000</tspan></text><text class="probability-to-enter" dy="0.75em" x="27" y="6" fill="rgb(0, 0, 215)">0.50</text></g><g id="node-9ffac705-3845-8e45-2652-522839371b9a" class="terminal-node node optimal" transform="translate(580  160)"><path d="M-19.999998960714944,0L17.99999906464345,-19.999998960714944L17.99999906464345,19.999998960714944Z" fill="rgb(68, 255, 68)" stroke="rgb(0, 111, 0)" stroke-width="1.5px"/><text class="label" x="0" y="-27" text-anchor="middle"/><text class="payoff computed" dy="0.75em" x="0" y="27" text-anchor="middle"><tspan x="0"/></text><text class="aggregated-payoff" x="27" y="-6"><tspan class="negative" x="27" fill="rgb(182, 0, 0)">-$150,000</tspan></text><text class="probability-to-enter" dy="0.75em" x="27" y="6" fill="rgb(0, 0, 215)">0.50</text></g><g id="node-64e2bf90-11bc-5f14-9e93-a965326a0a74" class="chance-node node" transform="translate(300  398)"><path d="M-19.999998960714944,0C-19.999998960714944,-11.045694422638713,-11.045694422638713,-19.999998960714944,0,-19.999998960714944C11.045694422638713,-19.999998960714944,19.999998960714944,-11.045694422638713,19.999998960714944,0C19.999998960714944,11.045694422638713,11.045694422638713,19.999998960714944,0,19.999998960714944C-11.045694422638713,19.999998960714944,-19.999998960714944,11.045694422638713,-19.999998960714944,0" fill="rgb(255, 255, 68)" stroke="rgb(102, 102, 0)"/><text class="label" x="0" y="-27" text-anchor="middle"/><text class="payoff computed" dy="0.75em" x="0" y="27" text-anchor="middle"><tspan x="0">$525,000</tspan></text><text class="aggregated-payoff" x="27" y="-6" fill="rgb(0, 111, 0)"><tspan x="27"/></text><text class="probability-to-enter" dy="0.75em" x="27" y="6" fill="rgb(0, 0, 215)"/></g><g id="node-0aa7fb6b-dede-e1d5-7dd2-032e87800f9c" class="terminal-node node" transform="translate(580  328)"><path d="M-19.999998960714944,0L17.99999906464345,-19.999998960714944L17.99999906464345,19.999998960714944Z" fill="rgb(68, 255, 68)" stroke="rgb(0, 0, 0)"/><text class="label" x="0" y="-27" text-anchor="middle"/><text class="payoff computed" dy="0.75em" x="0" y="27" text-anchor="middle"><tspan x="0"/></text><text class="aggregated-payoff" x="27" y="-6"><tspan x="27">$100,000</tspan></text><text class="probability-to-enter" dy="0.75em" x="27" y="6" fill="rgb(0, 0, 215)">0.00</text></g><g id="node-f59d72fb-ae16-2ed3-61ef-8b355180f707" class="terminal-node node" transform="translate(580  468)"><path d="M-19.999998960714944,0L17.99999906464345,-19.999998960714944L17.99999906464345,19.999998960714944Z" fill="rgb(68, 255, 68)" stroke="rgb(0, 0, 0)"/><text class="label" x="0" y="-27" text-anchor="middle"/><text class="payoff computed" dy="0.75em" x="0" y="27" text-anchor="middle"><tspan x="0"/></text><text class="aggregated-payoff" x="27" y="-6"><tspan x="27">$50,000</tspan></text><text class="probability-to-enter" dy="0.75em" x="27" y="6" fill="rgb(0, 0, 215)">0.00</text></g><g id="node-a626b6af-c78f-e419-9a50-9f42bfe2c4ec" class="chance-node node optimal" transform="translate(20, 782)"><path d="M-19.999998960714944,0C-19.999998960714944,-11.045694422638713,-11.045694422638713,-19.999998960714944,0,-19.999998960714944C11.045694422638713,-19.999998960714944,19.999998960714944,-11.045694422638713,19.999998960714944,0C19.999998960714944,11.045694422638713,11.045694422638713,19.999998960714944,0,19.999998960714944C-11.045694422638713,19.999998960714944,-19.999998960714944,11.045694422638713,-19.999998960714944,0" fill="rgb(255, 255, 68)" stroke="rgb(0, 111, 0)" stroke-width="1.5px"/><text class="label" x="0" y="-27" text-anchor="middle"/><text class="payoff computed" dy="0.75em" x="0" y="27" text-anchor="middle"><tspan x="0" class="">$200,000</tspan></text><text class="aggregated-payoff" x="27" y="-6" fill="rgb(0, 111, 0)"><tspan x="27"/></text><text class="probability-to-enter" dy="0.75em" x="27" y="6" fill="rgb(0, 0, 215)"/></g><g id="node-66599377-0913-cf1e-9926-dba8bdfa1d5a" class="terminal-node node" transform="translate(580  558)"><path d="M-19.999998960714944,0L17.99999906464345,-19.999998960714944L17.99999906464345,19.999998960714944Z" fill="rgb(68, 255, 68)" stroke="rgb(0, 0, 0)"/><text class="label" x="0" y="-27" text-anchor="middle"/><text class="payoff computed" dy="0.75em" x="0" y="27" text-anchor="middle"><tspan x="0"/></text><text class="aggregated-payoff" x="27" y="-6"><tspan x="27" class="negative" fill="rgb(182, 0, 0)">-$150,000</tspan></text><text class="probability-to-enter" dy="0.75em" x="27" y="6" fill="rgb(0, 0, 215)">0.00</text></g><g id="node-08437caa-df7b-e96d-06ca-bdd24d224867" class="terminal-node node optimal" transform="translate(580, 698)"><path d="M-19.999998960714944,0L17.99999906464345,-19.999998960714944L17.99999906464345,19.999998960714944Z" fill="rgb(68, 255, 68)" stroke="rgb(0, 111, 0)" stroke-width="1.5px"/><text class="label" x="0" y="-27" text-anchor="middle"/><text class="payoff computed" dy="0.75em" x="0" y="27" text-anchor="middle"><tspan x="0"/></text><text class="aggregated-payoff" x="27" y="-6"><tspan x="27" class="">$50,000</tspan></text><text class="probability-to-enter" dy="0.75em" x="27" y="6" fill="rgb(0, 0, 215)">0.50</text></g><g id="node-9d71e6f6-0652-ed04-4084-650164cfed8e" class="terminal-node node optimal" transform="translate(580, 866)"><path d="M-19.999998960714944,0L17.99999906464345,-19.999998960714944L17.99999906464345,19.999998960714944Z" fill="rgb(68, 255, 68)" stroke="rgb(0, 111, 0)" stroke-width="1.5px"/><text class="label" x="0" y="-27" text-anchor="middle"/><text class="payoff computed" dy="0.75em" x="0" y="27" text-anchor="middle"><tspan x="0"/></text><text class="aggregated-payoff" x="27" y="-6"><tspan x="27">$350,000</tspan></text><text class="probability-to-enter" dy="0.75em" x="27" y="6" fill="rgb(0, 0, 215)">0.50</text></g><g id="node-bd110be0-082c-831d-c1b9-4cc9f8dcc075" class="terminal-node node" transform="translate(580  1006)"><path d="M-19.999998960714944,0L17.99999906464345,-19.999998960714944L17.99999906464345,19.999998960714944Z" fill="rgb(68, 255, 68)" stroke="rgb(0, 0, 0)"/><text class="label" x="0" y="-27" text-anchor="middle"/><text class="payoff computed" dy="0.75em" x="0" y="27" text-anchor="middle"><tspan x="0"/></text><text class="aggregated-payoff" x="27" y="-6"><tspan x="27" class="">$100,000</tspan></text><text class="probability-to-enter" dy="0.75em" x="27" y="6" fill="rgb(0, 0, 215)">0.00</text></g><g id="node-de8067d1-8624-f9da-2220-0b47a1687a90" class="decision-node node optimal" transform="translate(300, 628)"><path d="M-20,-20h40v40h-40Z" fill="rgb(255, 119, 119)" stroke="rgb(0, 111, 0)" stroke-width="1.5px"/><text class="label" x="0" y="-27" text-anchor="middle"/><text class="payoff computed" dy="0.75em" x="0" y="27" text-anchor="middle"><tspan x="0" class="">$50,000</tspan></text><text class="aggregated-payoff" x="27" y="-6" fill="rgb(0, 111, 0)"><tspan x="27"/></text><text class="probability-to-enter" dy="0.75em" x="27" y="6" fill="rgb(0, 0, 215)"/></g><g id="node-bf4508f7-89f7-0854-80e3-e558c7705439" class="decision-node node optimal" transform="translate(300, 936)"><path d="M-20,-20h40v40h-40Z" fill="rgb(255, 119, 119)" stroke="rgb(0, 111, 0)" stroke-width="1.5px"/><text class="label" x="0" y="-27" text-anchor="middle"/><text class="payoff computed" dy="0.75em" x="0" y="27" text-anchor="middle"><tspan x="0">$350,000</tspan></text><text class="aggregated-payoff" x="27" y="-6" fill="rgb(0, 111, 0)"><tspan x="27"/></text><text class="probability-to-enter" dy="0.75em" x="27" y="6" fill="rgb(0, 0, 215)"/></g></g><g class="edges"><g id="edge-3fcc3b67-24dd-2749-1e03-349620375a34" class="edge"><path d="M41,244L50,244L70,398L272,398" fill="none" marker-end="url(#arrow)" stroke="rgb(66, 66, 66)" stroke-width="1.5px"/><g class="label-group" transform="translate(72,391)"><text class="label"><tspan x="0">only 100000 first</tspan></text></g><text class="payoff" dy="0.75em" x="72" y="405"><tspan x="72">-$450,000</tspan></text><text class="probability" text-anchor="end" dy="0.75em" x="264" y="405" fill="rgb(0, 0, 215)">0.00</text></g><g id="edge-aa262af8-895c-a14c-43c8-766c66ac1459" class="edge"><path d="M321,398L330,398L350,328L552,328" fill="none" marker-end="url(#arrow)" stroke="rgb(66, 66, 66)" stroke-width="1.5px"/><g class="label-group" transform="translate(352,321)"><text class="label"/></g><text class="payoff" dy="0.75em" x="352" y="335"><tspan x="352">$550,000</tspan></text><text class="probability" text-anchor="end" dy="0.75em" x="544" y="335" fill="rgb(0, 0, 215)">0.50</text></g><g id="edge-9f9c2cca-5b43-36d3-6573-992e8f582ce7" class="edge"><path d="M321,398L330,398L350,468L552,468" fill="none" marker-end="url(#arrow)" stroke="rgb(66, 66, 66)" stroke-width="1.5px"/><g class="label-group" transform="translate(352,461)"><text class="label"><tspan x="0">no additional</tspan></text></g><text class="payoff" dy="0.75em" x="352" y="475"><tspan x="352">$500,000</tspan></text><text class="probability" text-anchor="end" dy="0.75em" x="544" y="475" fill="rgb(0, 0, 215)">0.50</text></g><g id="edge-6bcc7d81-1533-17f9-5f09-2ac9f2f20e79" class="edge"><path d="M321,628L330,628L350,558L552,558" fill="none" marker-end="url(#arrow)" stroke="rgb(66, 66, 66)" stroke-width="1.5px"/><g class="label-group" transform="translate(352,551)"><text class="label"><tspan x="0">all</tspan></text></g><text class="payoff" dy="0.75em" x="352" y="565"><tspan x="352">-$150,000</tspan></text><text class="probability" text-anchor="end" dy="0.75em" x="544" y="565" fill="rgb(0, 0, 215)">0.00</text></g><g id="edge-98b2d6bc-02d3-362c-5de1-2e70d6055a61" class="edge"><path d="M321,936L330,936L350,1006L552,1006" fill="none" marker-end="url(#arrow)" stroke="rgb(66, 66, 66)" stroke-width="1.5px"/><g class="label-group" transform="translate(352,999)"><text class="label"><tspan x="0">only parts</tspan></text></g><text class="payoff" dy="0.75em" x="352" y="1013"><tspan x="352">$100,000</tspan></text><text class="probability" text-anchor="end" dy="0.75em" x="544" y="1013" fill="rgb(0, 0, 215)">0.00</text></g><g id="edge-97427266-f78a-133f-d077-48e8f75e0675" class="edge optimal"><path d="M41,782L50,782L70,628L272,628" fill="none" marker-end="url(#arrow-optimal)" stroke="rgb(0, 111, 0)" stroke-width="2.4px"/><g class="label-group" transform="translate(72,621)"><text class="label"><tspan x="0">no addition</tspan></text></g><text class="payoff" dy="0.75em" x="72" y="635"><tspan x="72">$0</tspan></text><text class="probability" text-anchor="end" dy="0.75em" x="264" y="635" fill="rgb(0, 0, 215)">0.50</text></g><g id="edge-c47c5aaa-fb09-17df-2f64-0c6488a82cca" class="edge optimal"><path d="M41,782L50,782L70,936L272,936" fill="none" marker-end="url(#arrow-optimal)" stroke="rgb(0, 111, 0)" stroke-width="2.4px"/><g class="label-group" transform="translate(72,929)"><text class="label"><tspan x="0">with addition</tspan></text></g><text class="payoff" dy="0.75em" x="72" y="943"><tspan x="72">$0</tspan></text><text class="probability" text-anchor="end" dy="0.75em" x="264" y="943" fill="rgb(0, 0, 215)">0.50</text></g><g id="edge-9d3d5d84-1e22-cb02-8909-3ffa1452370d" class="edge optimal"><path d="M321,628L330,628L350,698L552,698" fill="none" marker-end="url(#arrow-optimal)" stroke="rgb(0, 111, 0)" stroke-width="2.4px"/><g class="label-group" transform="translate(352,691)"><text class="label"><tspan x="0">only parts</tspan></text></g><text class="payoff" dy="0.75em" x="352" y="705"><tspan x="352">$50,000</tspan></text><text class="probability" text-anchor="end" dy="0.75em" x="544" y="705" fill="rgb(0, 0, 215)">1.00</text></g><g id="edge-b7a530e1-f942-9b88-b9b3-bbd5cedd99f6" class="edge optimal"><path d="M321,936L330,936L350,866L552,866" fill="none" marker-end="url(#arrow-optimal)" stroke="rgb(0, 111, 0)" stroke-width="2.4px"/><g class="label-group" transform="translate(352,859)"><text class="label"><tspan x="0">all</tspan></text></g><text class="payoff" dy="0.75em" x="352" y="873"><tspan x="352">$350,000</tspan></text><text class="probability" text-anchor="end" dy="0.75em" x="544" y="873" fill="rgb(0, 0, 215)">1.00</text></g><g id="edge-b86c2ad0-af68-e389-521c-f27da65abbaf" class="edge optimal"><path d="M41,244L50,244L70,90L272,90" fill="none" marker-end="url(#arrow-optimal)" stroke="rgb(0, 111, 0)" stroke-width="2.4px"/><g class="label-group" transform="translate(72,83)"><text class="label"><tspan x="0">all 200000 boards</tspan></text></g><text class="payoff" dy="0.75em" x="72" y="97"><tspan x="72">-$650,000</tspan></text><text class="probability" text-anchor="end" dy="0.75em" x="264" y="97" fill="rgb(0, 0, 215)">1.00</text></g><g id="edge-eb639a00-cf22-1cba-0bb8-435f2dc75abf" class="edge optimal"><path d="M321,90L330,90L350,20L552,20" fill="none" marker-end="url(#arrow-optimal)" stroke="rgb(0, 111, 0)" stroke-width="2.4px"/><g class="label-group" transform="translate(352,13)"><text class="label"/></g><text class="payoff" dy="0.75em" x="352" y="27"><tspan x="352">$1,000,000</tspan></text><text class="probability" text-anchor="end" dy="0.75em" x="544" y="27" fill="rgb(0, 0, 215)">0.50</text></g><g id="edge-1a54f276-a1a1-e3a4-fc9c-366b574e5f87" class="edge optimal"><path d="M321,90L330,90L350,160L552,160" fill="none" marker-end="url(#arrow-optimal)" stroke="rgb(0, 111, 0)" stroke-width="2.4px"/><g class="label-group" transform="translate(352,153)"><text class="label"><tspan x="0">no additional</tspan></text></g><text class="payoff" dy="0.75em" x="352" y="167"><tspan x="352">$500,000</tspan></text><text class="probability" text-anchor="end" dy="0.75em" x="544" y="167" fill="rgb(0, 0, 215)">0.50</text></g></g><g class="floating-texts"/></g></g><defs><marker id="arrow" viewBox="0 -5 10 10" refX="5" refY="0" markerWidth="4" markerHeight="4" orient="auto"><path d="M0,-5L10,0L0,5" class="arrowHead" fill="rgb(66, 66, 66)"/></marker><marker id="arrow-optimal" viewBox="0 -5 10 10" refX="5" refY="0" markerWidth="4" markerHeight="4" orient="auto"><path d="M0,-5L10,0L0,5" class="arrowHead" fill="rgb(0, 111, 0)"/></marker><marker id="arrow-selected" viewBox="0 -5 10 10" refX="5" refY="0" markerWidth="4" markerHeight="4" orient="auto"><path d="M0,-5L10,0L0,5" class="arrowHead" fill="rgb(4, 90, 209)"/></marker></defs><g class="sd-title-container" transform="translate(374,15)"><text class="sd-title" dy="0.75em" text-anchor="middle" style="; font-size: 16px; font-weight: 700"/><text class="sd-description" dy="0.75em" transform="translate(0,0)" text-anchor="middle" style="; font-weight: 700"/></g></svg>